<?xml version="1.0" encoding="UTF-8"?>
<!DOCTYPE svg PUBLIC "-//W3C//DTD SVG 1.1//EN" "http://www.w3.org/Graphics/SVG/1.1/DTD/svg11.dtd">
<!-- Creator: CorelDRAW -->
<svg xmlns="http://www.w3.org/2000/svg" xml:space="preserve" width="20.8068mm" height="5.5033mm" version="1.1" style="shape-rendering:geometricPrecision; text-rendering:geometricPrecision; image-rendering:optimizeQuality; fill-rule:evenodd; clip-rule:evenodd"
viewBox="0 0 594.73 157.3"
 xmlns:xlink="http://www.w3.org/1999/xlink"
 xmlns:xodm="http://www.corel.com/coreldraw/odm/2003">
 <defs>
  <style type="text/css">
   <![CDATA[
    .fil1 {fill:#333333;fill-rule:nonzero}
    .fil0 {fill:#666666;fill-rule:nonzero}
    .fil2 {fill:#D21531;fill-rule:nonzero}
   ]]>
  </style>
 </defs>
 <g id="Layer_x0020_1">
  <metadata id="CorelCorpID_0Corel-Layer"/>
  <g id="_2028206475936">
   <path class="fil0" d="M216.67 49.89c-1.66,0.87 -3.4,1.49 -5.21,1.88 -1.8,0.39 -3.65,0.57 -5.53,0.57 -2,0 -3.84,-0.31 -5.53,-0.93 -1.68,-0.63 -3.14,-1.53 -4.37,-2.7 -1.23,-1.17 -2.19,-2.58 -2.88,-4.25 -0.68,-1.66 -1.03,-3.51 -1.03,-5.56 0,-2.05 0.35,-3.9 1.03,-5.57 0.68,-1.66 1.65,-3.08 2.88,-4.25 1.23,-1.16 2.69,-2.06 4.37,-2.69 1.69,-0.62 3.52,-0.94 5.53,-0.94 2.04,0 3.93,0.25 5.65,0.75 1.72,0.49 3.23,1.34 4.54,2.55l-3.98 4.33c-0.77,-0.79 -1.63,-1.39 -2.6,-1.81 -0.96,-0.4 -2.17,-0.61 -3.61,-0.61 -1.2,0 -2.3,0.21 -3.27,0.61 -0.98,0.41 -1.81,0.98 -2.51,1.72 -0.71,0.73 -1.24,1.61 -1.61,2.61 -0.37,1.02 -0.56,2.11 -0.56,3.29 0,1.2 0.19,2.3 0.56,3.3 0.37,1 0.9,1.87 1.61,2.6 0.7,0.73 1.53,1.31 2.51,1.71 0.97,0.42 2.07,0.62 3.27,0.62 1.23,0 2.29,-0.14 3.18,-0.41 0.89,-0.28 1.6,-0.56 2.13,-0.86l0 -4.15 -4.58 0 0 -5.2 10 0 0 13.37z"/>
   <path class="fil0" d="M245.31 36.7l3.32 0c0.5,0 1.04,-0.02 1.6,-0.05 0.57,-0.04 1.08,-0.14 1.53,-0.32 0.46,-0.19 0.84,-0.47 1.14,-0.85 0.3,-0.39 0.45,-0.93 0.45,-1.63 0,-0.65 -0.13,-1.17 -0.4,-1.54 -0.26,-0.39 -0.6,-0.69 -1.01,-0.89 -0.41,-0.2 -0.88,-0.33 -1.4,-0.41 -0.53,-0.07 -1.05,-0.11 -1.56,-0.11l-3.68 0 0 5.82zm-5.64 -10.58l9.9 0c1.3,0 2.53,0.13 3.71,0.38 1.16,0.25 2.19,0.67 3.06,1.26 0.88,0.59 1.58,1.39 2.1,2.38 0.52,1 0.77,2.25 0.77,3.74 0,1.81 -0.47,3.34 -1.4,4.61 -0.94,1.26 -2.32,2.06 -4.13,2.4l6.51 10.81 -6.75 0 -5.35 -10.22 -2.78 0 0 10.22 -5.64 0 0 -25.58z"/>
   <path class="fil0" d="M302.71 41.83c0,1.52 -0.23,2.91 -0.68,4.19 -0.46,1.27 -1.14,2.39 -2.05,3.32 -0.89,0.94 -2.03,1.67 -3.38,2.2 -1.34,0.53 -2.89,0.8 -4.65,0.8 -1.79,0 -3.34,-0.27 -4.69,-0.8 -1.35,-0.53 -2.48,-1.27 -3.38,-2.2 -0.89,-0.93 -1.58,-2.05 -2.04,-3.32 -0.46,-1.28 -0.69,-2.67 -0.69,-4.19l0 -15.72 5.64 0 0 15.49c0,0.8 0.13,1.54 0.38,2.21 0.25,0.67 0.61,1.26 1.06,1.75 0.47,0.49 1.01,0.89 1.65,1.15 0.64,0.28 1.33,0.42 2.08,0.42 0.75,0 1.43,-0.15 2.06,-0.42 0.63,-0.27 1.17,-0.67 1.62,-1.15 0.46,-0.49 0.82,-1.08 1.07,-1.75 0.26,-0.67 0.38,-1.41 0.38,-2.21l0 -15.49 5.64 0 0 15.72z"/>
   <path class="fil0" d="M331.61 36.95l3.75 0c0.51,0 1,-0.05 1.47,-0.14 0.47,-0.1 0.89,-0.25 1.26,-0.48 0.37,-0.24 0.68,-0.54 0.91,-0.95 0.22,-0.39 0.34,-0.89 0.34,-1.49 0,-0.65 -0.15,-1.17 -0.45,-1.57 -0.3,-0.39 -0.69,-0.71 -1.16,-0.92 -0.47,-0.22 -0.99,-0.36 -1.57,-0.42 -0.57,-0.06 -1.13,-0.09 -1.66,-0.09l-2.89 0 0 6.07zm-5.63 -10.83l9.5 0c1.33,0 2.58,0.12 3.75,0.36 1.18,0.24 2.21,0.65 3.09,1.25 0.87,0.59 1.57,1.38 2.09,2.38 0.51,1 0.78,2.26 0.78,3.78 0,1.49 -0.24,2.74 -0.73,3.76 -0.48,1.01 -1.14,1.82 -1.98,2.42 -0.85,0.6 -1.85,1.03 -3,1.28 -1.15,0.25 -2.41,0.39 -3.75,0.39l-4.12 0 0 9.97 -5.63 0 0 -25.57z"/>
   <path class="fil0" d="M371.27 38.91c0,1.2 0.19,2.3 0.56,3.3 0.37,1 0.91,1.87 1.61,2.6 0.7,0.73 1.53,1.31 2.51,1.71 0.97,0.42 2.07,0.62 3.27,0.62 1.21,0 2.3,-0.2 3.28,-0.62 0.97,-0.41 1.81,-0.98 2.5,-1.71 0.7,-0.74 1.23,-1.6 1.6,-2.6 0.38,-1 0.56,-2.1 0.56,-3.3 0,-1.18 -0.18,-2.28 -0.56,-3.29 -0.37,-1 -0.9,-1.88 -1.6,-2.61 -0.7,-0.74 -1.54,-1.31 -2.5,-1.71 -0.98,-0.42 -2.07,-0.62 -3.28,-0.62 -1.19,0 -2.3,0.2 -3.27,0.62 -0.97,0.4 -1.81,0.97 -2.51,1.71 -0.7,0.73 -1.23,1.61 -1.61,2.61 -0.37,1.02 -0.56,2.11 -0.56,3.29zm-5.86 0c0,-2.05 0.35,-3.9 1.03,-5.57 0.69,-1.66 1.65,-3.08 2.87,-4.25 1.23,-1.16 2.69,-2.06 4.37,-2.69 1.7,-0.62 3.53,-0.94 5.53,-0.94 2,0 3.84,0.32 5.53,0.94 1.67,0.63 3.13,1.53 4.37,2.69 1.22,1.17 2.18,2.59 2.87,4.25 0.68,1.66 1.03,3.51 1.03,5.57 0,2.05 -0.35,3.9 -1.03,5.56 -0.68,1.66 -1.65,3.08 -2.87,4.25 -1.23,1.17 -2.69,2.06 -4.37,2.7 -1.69,0.62 -3.53,0.93 -5.53,0.93 -2,0 -3.83,-0.31 -5.53,-0.93 -1.68,-0.63 -3.14,-1.53 -4.37,-2.7 -1.23,-1.17 -2.18,-2.58 -2.87,-4.25 -0.68,-1.66 -1.03,-3.51 -1.03,-5.56z"/>
   <path class="fil1" d="M193.53 104.56c0,2.32 0.36,4.44 1.08,6.37 0.72,1.92 1.76,3.6 3.1,5 1.34,1.42 2.95,2.52 4.83,3.31 1.88,0.79 3.98,1.18 6.3,1.18 2.32,0 4.42,-0.39 6.3,-1.18 1.88,-0.79 3.48,-1.89 4.83,-3.31 1.34,-1.4 2.37,-3.08 3.09,-5 0.72,-1.92 1.08,-4.04 1.08,-6.37 0,-2.26 -0.36,-4.37 -1.08,-6.33 -0.72,-1.94 -1.75,-3.63 -3.09,-5.03 -1.35,-1.42 -2.95,-2.52 -4.83,-3.31 -1.88,-0.79 -3.98,-1.19 -6.3,-1.19 -2.32,0 -4.42,0.39 -6.3,1.19 -1.88,0.79 -3.49,1.89 -4.83,3.31 -1.34,1.4 -2.38,3.09 -3.1,5.03 -0.72,1.96 -1.08,4.07 -1.08,6.33zm-11.26 0c0,-3.94 0.65,-7.51 1.98,-10.71 1.32,-3.2 3.16,-5.92 5.54,-8.17 2.36,-2.25 5.17,-3.97 8.41,-5.19 3.25,-1.21 6.8,-1.8 10.64,-1.8 3.85,0 7.4,0.6 10.65,1.8 3.24,1.21 6.05,2.94 8.41,5.19 2.37,2.26 4.21,4.98 5.53,8.17 1.32,3.2 1.99,6.77 1.99,10.71 0,3.95 -0.67,7.52 -1.99,10.71 -1.32,3.2 -3.16,5.92 -5.53,8.17 -2.36,2.25 -5.17,3.98 -8.41,5.19 -3.25,1.2 -6.8,1.8 -10.65,1.8 -3.85,0 -7.39,-0.59 -10.64,-1.8 -3.24,-1.21 -6.05,-2.94 -8.41,-5.19 -2.37,-2.25 -4.22,-4.97 -5.54,-8.17 -1.33,-3.2 -1.98,-6.77 -1.98,-10.71z"/>
   <polygon class="fil1" points="262.72,89.54 252.42,89.54 246.46,79.94 284.05,79.94 289.92,89.54 273.58,89.54 273.58,129.19 262.72,129.19 "/>
   <polygon class="fil1" points="313.85,79.93 324.71,79.93 324.71,129.19 313.85,129.19 "/>
   <polygon class="fil1" points="355.44,79.94 371.86,79.94 383.19,112.08 383.33,112.08 394.74,79.94 411.09,79.94 411.09,129.19 400.23,129.19 400.23,91.41 400.1,91.41 387.16,129.19 378.89,129.19 366.43,91.41 366.29,91.41 366.29,129.19 355.44,129.19 "/>
   <polygon class="fil1" points="441.84,79.93 452.69,79.93 452.69,129.19 441.84,129.19 "/>
   <polygon class="fil1" points="480.86,119.17 505.83,89.54 487.66,89.54 481.76,79.94 518.98,79.94 518.98,89.54 494.49,119.17 513.68,119.17 519.81,129.19 480.86,129.19 "/>
   <polygon class="fil1" points="573.31,79.94 564.33,79.94 543.04,129.19 555.01,129.19 558.04,121.48 562.55,109.57 562.53,109.57 563.24,107.75 563.88,106.05 563.9,106.05 568.5,94.27 574.56,109.57 563.57,109.57 569.21,118.76 578.24,118.76 582.49,129.19 594.73,129.19 "/>
   <path class="fil2" d="M92.75 0l-59.96 0c-19.57,0 -32.77,10.74 -32.77,33.12l0 76.8 42.72 0 0 -51.96c0.02,-8.41 6.82,-15.23 15.25,-15.24l34.77 0 42.72 0 -42.72 -42.72z"/>
   <path class="fil2" d="M92.73 47.37l0 51.97c-0.01,8.41 -6.83,15.24 -15.24,15.25l-34.77 0 -42.71 0 42.71 42.71 59.96 0c19.56,0 32.77,-10.74 32.77,-33.12l0 -76.81 -42.71 0z"/>
  </g>
 </g>
</svg>
