<?xml version="1.0" encoding="UTF-8"?>
<!DOCTYPE svg PUBLIC "-//W3C//DTD SVG 1.1//EN" "http://www.w3.org/Graphics/SVG/1.1/DTD/svg11.dtd">
<!-- Creator: CorelDRAW -->
<svg xmlns="http://www.w3.org/2000/svg" xml:space="preserve" width="17.51mm" height="6.9421mm" version="1.1" style="shape-rendering:geometricPrecision; text-rendering:geometricPrecision; image-rendering:optimizeQuality; fill-rule:evenodd; clip-rule:evenodd"
viewBox="0 0 811.69 321.81"
 xmlns:xlink="http://www.w3.org/1999/xlink"
 xmlns:xodm="http://www.corel.com/coreldraw/odm/2003">
 <defs>
  <style type="text/css">
   <![CDATA[
    .fil0 {fill:#F15A24}
    .fil1 {fill:#666666;fill-rule:nonzero}
    .fil2 {fill:#F15A24;fill-rule:nonzero}
   ]]>
  </style>
 </defs>
 <g id="Layer_x0020_1">
  <metadata id="CorelCorpID_0Corel-Layer"/>
  <g id="_2027402334880">
   <path class="fil0" d="M66.46 66.97l-12.29 5.13 55.31 132.16 12.3 -5.13 -55.32 -132.16zm-1.34 3.27l53.38 127.54 -7.68 3.22 -53.39 -127.55 7.69 -3.2z"/>
   <path class="fil0" d="M60.3 63.29c-3.68,0 -6.66,2.99 -6.66,6.66 0,3.69 2.98,6.66 6.66,6.66l0 0 78.51 0 -51.46 122.93c-1.42,3.39 11.23,7.69 12.29,5.13l0 0 55.31 -132.15c0.86,-2.05 0.63,-4.4 -0.6,-6.26l0 0c-1.23,-1.85 -3.32,-2.97 -5.54,-2.97l0 0 -88.51 0z"/>
   <path class="fil0" d="M-0 91.77c0,33.54 23.47,60.66 37.46,73.84l0 0c4.28,4.04 9.02,11.07 10.55,15.67l0 0 8.7 25.82 95.7 0 8.71 -25.82c1.53,-4.6 6.27,-11.63 10.56,-15.67l0 0c13.99,-13.19 37.46,-40.31 37.46,-73.84 0,-34.92 -13.58,-91.77 -104.56,-91.77l0 0c-90.98,0 -104.56,56.84 -104.56,91.77zm57.49 86.35c-2.32,-6.96 -8.52,-15.39 -13.18,-19.78l0 0c-12.82,-12.07 -34.32,-36.78 -34.32,-66.57l0 0c0,-38.1 16.41,-81.78 94.57,-81.78l0 0c78.17,0 94.57,43.68 94.57,81.78l0 0c0,29.78 -21.5,54.49 -34.32,66.57l0 0c-4.65,4.39 -10.86,12.82 -13.17,19.78l0 0 -6.42 18.99 -81.3 0 -6.42 -18.99z"/>
   <polygon class="fil1" points="148.81,238.6 60.3,238.6 60.3,216.48 148.81,216.48 "/>
   <polygon class="fil1" points="148.81,270.12 60.3,270.12 60.3,248 148.81,248 "/>
   <polygon class="fil1" points="123.09,301.65 86.03,301.65 71.37,279.53 137.75,279.53 "/>
   <path class="fil2" d="M313.38 188.74c7.89,0 13.89,-6.39 13.89,-14.28l0 -17.1c0,-1.88 -1.49,-3.95 -3.38,-4.51l-72.13 -24.04c-5.64,-1.88 -10.34,-8.27 -10.34,-14.28l0 -22.36c0,-17.66 14.28,-28.37 31.94,-28.37l66.89 0 0 13.72c0,1.31 -0.94,2.44 -2.45,2.44l-64.44 0c-7.89,0 -14.46,5.08 -14.46,12.96l0 18.22c0,2.07 1.5,4.14 3.38,4.7l72.14 23.86c5.63,1.88 9.77,8.46 9.77,14.47l0 20.1c0,17.66 -13.35,30.62 -30.81,30.62l-71.96 0 0 -13.72c0,-1.5 1.13,-2.44 2.44,-2.44l69.52 0z"/>
   <path class="fil2" d="M560.97 66.06l-39.83 114.98 -40.01 -114.98c-0.38,-1.13 -1.88,-2.25 -3.19,-2.25l-5.85 0 -10.5 0 -72.88 0c-17.66,0 -31.93,14.28 -31.93,31.93l0 77.22c0,17.66 14.28,31.93 31.93,31.93l63.32 0 0 -13.72c0,-1.31 -1.13,-2.44 -2.44,-2.44l-60.87 0c-7.89,0 -14.27,-6.39 -14.27,-14.28l0 -32.12 68.57 0c1.31,0 2.44,-1.13 2.44,-2.44l0 -13.72 -61.81 0c-3.94,0 -7.33,1.51 -9.2,3.75l0 -35.69c0,-7.89 6.38,-14.28 14.27,-14.28l75.23 0c1.85,0 3.84,1.42 4.45,3.16l42.04 119.33c0.38,1.31 1.88,2.44 3.19,2.44l14.84 0c1.31,0 2.82,-1.13 3.19,-2.44l48.85 -138.65 -16.34 0c-1.32,0 -2.63,1.13 -3.19,2.25z"/>
   <path class="fil2" d="M785.63 66.24l0 73.27c0.94,13.34 0.94,25.18 2.82,39.83l-17.1 -33.64 -38.32 -72.32c-2.82,-5.26 -9.96,-9.59 -15.97,-9.59l-21.41 0c-1.32,0 -2.44,1.13 -2.44,2.44l0 119.15c0,1.84 -1.49,3.34 -3.35,3.34l-73.48 0c-7.89,0 -14.28,-6.38 -14.28,-14.27l0 -32.12 68.58 0c1.32,0 2.44,-1.13 2.44,-2.44l0 -13.72 -61.81 0c-3.94,0 -7.33,1.5 -9.21,3.75l0 -35.69c0,-7.89 6.39,-14.28 14.28,-14.28l60.87 0c1.32,0 2.45,-1.13 2.45,-2.44l0 -13.72 -63.31 0c-17.66,0 -31.94,14.28 -31.94,31.94l0 77.22c0,17.65 14.28,31.93 31.94,31.93l76.83 0 6.55 0 8.67 0c1.31,0 2.44,-1.13 2.44,-2.44l0 -122.5 3.19 0c1.88,0 4.13,1.31 5.08,3l64.25 119.68c0.56,1.12 2.25,2.25 3.57,2.25l16.34 0 0 -141.1 -15.21 0c-1.32,0 -2.45,1.13 -2.45,2.44z"/>
   <polygon class="fil1" points="246.97,304.92 243.54,304.92 243.54,247.63 246.97,247.63 "/>
   <polygon class="fil1" points="323.93,304.92 319.92,304.92 281.72,252.88 281.72,304.92 278.27,304.92 278.27,247.63 282.3,247.63 320.57,299.68 320.57,247.63 323.93,247.63 "/>
   <path class="fil1" d="M353.9 276.24c0,14.01 11.8,25.41 26.14,25.41 14.34,0 26.14,-11.39 26.14,-25.41 0,-14.01 -11.8,-25.32 -26.14,-25.32 -14.34,0 -26.14,11.31 -26.14,25.32zm55.81 0c0,15.9 -13.27,28.77 -29.66,28.77 -16.39,0 -29.67,-12.87 -29.67,-28.77 0,-15.9 13.28,-28.69 29.67,-28.69 16.39,0 29.66,12.78 29.66,28.69z"/>
   <polygon class="fil1" points="453.01,304.92 449.41,304.92 425.64,247.63 429.49,247.63 451.21,300.83 473.02,247.63 476.78,247.63 "/>
   <path class="fil1" d="M530.15 285.17l-15.32 -33.6 -15.16 33.6 30.48 0zm1.56 3.44l-33.52 0 -7.38 16.31 -3.77 0 25.98 -57.29 3.69 0 26.22 57.29 -3.77 0 -7.46 -16.31z"/>
   <path class="fil1" d="M593.23 314.84c0.17,4.1 -2.95,6.97 -7.22,6.97 -2.13,0 -4.67,-0.74 -6.14,-1.8l0.98 -2.29c1.23,0.98 3.28,1.55 5,1.55 3.03,0 5,-1.97 4.92,-4.59 -0.08,-2.13 -1.72,-3.85 -4.26,-3.85 -0.82,0 -1.97,0 -2.46,0.08l2.37 -5.9c-15.73,-0.58 -28.36,-13.28 -28.36,-28.77 0,-15.9 13.28,-28.69 29.59,-28.69 7.7,0 14.83,2.94 20.16,7.7l-2.04 2.62c-4.76,-4.43 -11.23,-7.05 -18.03,-7.05 -14.51,0 -26.23,11.31 -26.23,25.33 0,14.09 11.72,25.49 26.23,25.49 6.81,0 13.19,-2.62 18.03,-6.97l2.13 2.37c-5,4.59 -11.8,7.63 -18.94,7.95l-1.72 3.93c3.44,0.17 5.98,2.54 5.98,5.9z"/>
   <path class="fil1" d="M661.67 235.91c2.54,0 3.86,-1.72 3.86,-4.67l2.62 0c0,4.83 -2.22,7.54 -6.07,7.54 -4.76,0 -6.72,-5.41 -10.16,-5.41 -2.54,0 -3.86,1.72 -3.86,4.67l-2.62 0c0,-4.84 2.22,-7.54 6.07,-7.54 4.18,0 6.81,5.41 10.16,5.41zm-30.98 40.32c0,14.01 11.8,25.41 26.14,25.41 14.34,0 26.15,-11.39 26.15,-25.41 0,-14.01 -11.81,-25.33 -26.15,-25.33 -14.34,0 -26.14,11.32 -26.14,25.33zm55.82 0c0,15.9 -13.28,28.77 -29.67,28.77 -16.39,0 -29.67,-12.87 -29.67,-28.77 0,-15.9 13.28,-28.69 29.67,-28.69 16.39,0 29.67,12.79 29.67,28.69z"/>
   <polygon class="fil1" points="749.95,250.99 716.43,250.99 716.43,273.86 746.27,273.86 746.27,277.31 716.43,277.31 716.43,301.56 751.02,301.56 751.02,304.92 712.99,304.92 712.99,247.64 749.95,247.64 "/>
   <path class="fil1" d="M809.72 252.14l-1.56 3.12c-4.26,-2.79 -10.08,-4.18 -15,-4.18 -9.1,0 -15,3.77 -15,9.75 0,17.46 33.69,8.44 33.52,29.59 0,8.85 -7.95,14.59 -19.91,14.59 -7.62,0 -15.41,-3.36 -20.41,-8.28l1.8 -3.03c4.67,4.83 11.96,7.78 18.69,7.78 9.84,0 16.15,-4.26 16.15,-10.98 0.16,-17.95 -33.52,-8.77 -33.52,-29.42 0,-8.28 7.54,-13.61 18.85,-13.61 5.82,0 12.13,1.88 16.39,4.67z"/>
  </g>
 </g>
</svg>
