<?xml version="1.0" encoding="UTF-8"?>
<!DOCTYPE svg PUBLIC "-//W3C//DTD SVG 1.1//EN" "http://www.w3.org/Graphics/SVG/1.1/DTD/svg11.dtd">
<!-- Creator: CorelDRAW -->
<svg xmlns="http://www.w3.org/2000/svg" xml:space="preserve" width="12.456mm" height="11.7211mm" version="1.1" style="shape-rendering:geometricPrecision; text-rendering:geometricPrecision; image-rendering:optimizeQuality; fill-rule:evenodd; clip-rule:evenodd"
viewBox="0 0 269.89 253.97"
 xmlns:xlink="http://www.w3.org/1999/xlink"
 xmlns:xodm="http://www.corel.com/coreldraw/odm/2003">
 <defs>
  <style type="text/css">
   <![CDATA[
    .fil0 {fill:#004AAD;fill-rule:nonzero}
    .fil1 {fill:#79C4EC;fill-rule:nonzero}
    .fil3 {fill:#ED1521;fill-rule:nonzero}
    .fil2 {fill:white;fill-rule:nonzero}
    .fil4 {fill:black;fill-rule:nonzero}
   ]]>
  </style>
 </defs>
 <g id="Layer_x0020_1">
  <metadata id="CorelCorpID_0Corel-Layer"/>
  <g id="_2118668445760">
   <path class="fil0" d="M71.97 62.31l-16.71 0 -2.75 -9.49 -17.49 0 -2.9 9.49 -16.71 0 20.63 -57.96 15.92 0 20 57.96zm-33.02 -23.53l9.88 0 -4.86 -16 -5.02 16z"/>
   <path class="fil0" d="M101.46 63.33c-6.27,0 -11.87,-1.75 -16.79,-5.25 -5.23,-4.03 -7.84,-10.35 -7.84,-18.98l0 -34.75 16.47 0 0 34.75c0,2.77 0.75,4.89 2.24,6.36 1.49,1.46 3.46,2.19 5.92,2.19 2.41,0 4.37,-0.73 5.88,-2.19 1.52,-1.46 2.28,-3.58 2.28,-6.36l0 -34.75 16.47 0 0 34.75c0,4.34 -0.71,8.13 -2.12,11.38 -1.41,3.24 -3.32,5.76 -5.73,7.57 -2.41,1.8 -5.01,3.14 -7.8,4 -2.8,0.86 -5.79,1.29 -8.98,1.29z"/>
   <polygon class="fil0" points="147.74,62.31 147.74,20.03 131.89,20.03 131.89,4.34 179.97,4.34 179.97,20.03 164.21,20.03 164.21,62.31 "/>
   <path class="fil1" d="M192.28 54.62c-5.8,-5.8 -8.71,-12.92 -8.71,-21.33 0,-8.47 2.9,-15.56 8.71,-21.26 5.8,-5.8 13.05,-8.71 21.73,-8.71 8.68,0 15.92,2.9 21.73,8.71 5.8,5.7 8.71,12.81 8.71,21.34 0,8.42 -2.9,15.5 -8.71,21.26 -5.75,5.75 -12.97,8.63 -21.65,8.63 -8.68,0 -15.95,-2.88 -21.8,-8.63zm21.73 -7.53c3.82,0 7.03,-1.31 9.65,-3.92 2.61,-2.72 3.9,-6.01 3.84,-9.88 -0.05,-4.03 -1.39,-7.35 -4,-9.96 -2.56,-2.56 -5.72,-3.84 -9.49,-3.84 -3.76,0 -6.96,1.31 -9.57,3.92 -2.62,2.62 -3.92,5.91 -3.92,9.88 0,3.97 1.31,7.27 3.92,9.88 2.61,2.62 5.8,3.92 9.57,3.92z"/>
   <polygon class="fil0" points="30.59,121.19 41.97,86.52 60.87,86.52 38.2,144.48 22.98,144.48 -0,86.52 18.98,86.52 "/>
   <polygon class="fil0" points="66.2,144.48 66.2,86.52 82.67,86.52 82.67,144.48 "/>
   <path class="fil0" d="M113.34 145.5c-9.72,0 -17.93,-3.19 -24.63,-9.57l7.84 -12.16c5.44,4.5 11.11,6.75 17.02,6.75 3.71,0 5.57,-1.02 5.57,-3.06 0,-1.36 -1.46,-2.56 -4.39,-3.61 -1.25,-0.42 -2.46,-0.78 -3.61,-1.1 -4.08,-1.25 -7.09,-2.35 -9.02,-3.29 -6.49,-3.19 -9.73,-8.29 -9.73,-15.3 0,-5.33 2.12,-9.75 6.35,-13.26 4.18,-3.5 9.6,-5.26 16.24,-5.26 7.95,0 15.11,2.35 21.49,7.06l-7.22 12.63c-1.62,-1.2 -3.87,-2.25 -6.75,-3.14 -2.82,-0.89 -5.26,-1.33 -7.3,-1.33 -1.78,0 -3.12,0.26 -4.04,0.78 -0.91,0.52 -1.37,1.2 -1.37,2.04 0,0.89 0.37,1.58 1.1,2.08 0.73,0.5 1.88,0.98 3.45,1.45 5.49,1.67 9.2,2.9 11.14,3.69 7.84,3.03 11.77,8.24 11.77,15.61 0,5.49 -2.17,10.04 -6.51,13.65 -4.34,3.56 -10.14,5.33 -17.41,5.33z"/>
   <path class="fil0" d="M163.3 79.07c-2.09,0 -4,1.52 -5.72,4.55l-10.12 -5.1c2.14,-4.03 4.3,-6.93 6.47,-8.71 2.17,-1.78 4.8,-2.67 7.88,-2.67 1.99,0 4.05,0.58 6.2,1.73 2.15,1.15 3.63,1.72 4.47,1.72 1.57,0 3.22,-1.39 4.94,-4.16l10.2 4.86c-3.56,7.63 -7.9,11.45 -13.02,11.45 -1.62,0 -3.69,-0.6 -6.2,-1.8 -2.35,-1.25 -4.05,-1.88 -5.1,-1.88zm32.87 65.42l-16.71 0 -2.75 -9.49 -17.49 0 -2.9 9.49 -16.71 0 20.63 -57.96 15.92 0 20 57.96zm-33.02 -23.53l9.88 0 -4.86 -16 -5.02 16z"/>
   <path class="fil0" d="M207.54 136.8c-5.8,-5.8 -8.71,-12.92 -8.71,-21.33 0,-8.47 2.9,-15.56 8.71,-21.26 5.8,-5.8 13.05,-8.71 21.73,-8.71 8.68,0 15.92,2.9 21.73,8.71 5.8,5.7 8.71,12.81 8.71,21.34 0,8.42 -2.9,15.5 -8.71,21.26 -5.75,5.75 -12.97,8.63 -21.65,8.63 -8.68,0 -15.95,-2.88 -21.81,-8.63zm21.73 -7.53c3.82,0 7.03,-1.31 9.65,-3.92 2.62,-2.72 3.9,-6.01 3.84,-9.88 -0.05,-4.03 -1.38,-7.35 -4,-9.96 -2.56,-2.56 -5.73,-3.84 -9.49,-3.84 -3.77,0 -6.96,1.31 -9.57,3.92 -2.61,2.62 -3.92,5.91 -3.92,9.88 0,3.97 1.31,7.27 3.92,9.88 2.62,2.61 5.8,3.92 9.57,3.92z"/>
   <path class="fil2" d="M142.79 21.24c-13.12,8.93 -24.19,20.17 -33.01,33.44l-0.16 0.25 0.86 4.26c16.84,-26.89 44.26,-47.08 77.74,-53.81 28.77,-5.78 57.26,-0.66 81.16,12.51l-0.78 -3.86c-10.18,-5.35 -21.05,-9.24 -32.37,-11.56 -16.06,-3.26 -32.47,-3.28 -48.66,-0.03 -16.14,3.24 -31.22,9.59 -44.77,18.81z"/>
   <path class="fil0" d="M143.27 23.11c-13.3,8.66 -24.59,19.68 -33.68,32.77l-0.17 0.24 0.77 4.27c17.38,-26.55 45.2,-46.18 78.8,-52.23 28.88,-5.2 57.26,0.49 80.89,14.14l-0.7 -3.88c-10.07,-5.56 -20.86,-9.66 -32.13,-12.21 -15.99,-3.59 -32.39,-3.94 -48.65,-1.01 -16.21,2.92 -31.4,8.96 -45.14,17.9z"/>
   <polygon class="fil0" points="2.36,155.66 260.01,155.66 260.01,161.81 2.36,161.81 "/>
   <path class="fil3" d="M27.44 229.22l-13.46 -43.85 -0.34 0c0.48,8.92 0.73,14.87 0.73,17.85l0 26 -10.59 0 0 -55.9 16.14 0 13.23 42.74 0.23 0 14.03 -42.74 16.13 0 0 55.9 -11.05 0 0 -26.46c0,-1.25 0.02,-2.69 0.06,-4.32 0.04,-1.63 0.21,-5.97 0.52,-13l-0.34 0 -14.41 43.77 -10.86 0zm50.16 0l0 -55.9 11.85 0 0 55.9 -11.85 0zm75.51 0l-15.06 0 -24.32 -42.28 -0.34 0c0.49,7.47 0.73,12.79 0.73,15.98l0 26.3 -10.59 0 0 -55.9 14.95 0 24.28 41.86 0.27 0c-0.38,-7.26 -0.57,-12.4 -0.57,-15.41l0 -26.46 10.67 0 0 55.9z"/>
   <path class="fil3" d="M261.19 213.7c0,5.05 -1.82,9.02 -5.45,11.93 -3.63,2.91 -8.68,4.36 -15.16,4.36 -5.97,0 -11.24,-1.12 -15.83,-3.36l0 -11.01c3.77,1.68 6.96,2.87 9.58,3.56 2.61,0.69 5,1.03 7.17,1.03 2.6,0 4.59,-0.5 5.98,-1.49 1.39,-0.99 2.08,-2.47 2.08,-4.44 0,-1.1 -0.31,-2.07 -0.92,-2.93 -0.61,-0.85 -1.51,-1.67 -2.7,-2.47 -1.19,-0.79 -3.6,-2.05 -7.25,-3.79 -3.41,-1.61 -5.98,-3.15 -7.69,-4.63 -1.71,-1.48 -3.07,-3.2 -4.09,-5.16 -1.02,-1.96 -1.53,-4.26 -1.53,-6.88 0,-4.94 1.67,-8.83 5.03,-11.66 3.35,-2.83 7.98,-4.24 13.9,-4.24 2.91,0 5.68,0.34 8.32,1.03 2.64,0.69 5.4,1.66 8.28,2.91l-3.82 9.21c-2.98,-1.22 -5.45,-2.08 -7.4,-2.56 -1.95,-0.48 -3.87,-0.73 -5.75,-0.73 -2.24,0 -3.96,0.52 -5.16,1.57 -1.2,1.05 -1.8,2.41 -1.8,4.09 0,1.05 0.24,1.96 0.73,2.73 0.49,0.78 1.26,1.53 2.31,2.26 1.06,0.73 3.56,2.03 7.51,3.92 5.22,2.5 8.81,5 10.74,7.51 1.94,2.51 2.91,5.59 2.91,9.23z"/>
   <polygon class="fil3" points="191.94,170.92 224.3,230.68 159.57,230.68 "/>
   <path class="fil4" d="M182.57 232.76l0 0.74 -1.48 0 0 4.82 -0.91 0 0 -4.82 -1.49 0 0 -0.74 3.88 0zm4.27 4.42l-2.33 0 -0.4 1.14 -0.95 0 1.99 -5.57 1.06 0 1.99 5.57 -0.96 0 -0.4 -1.14zm-0.26 -0.75l-0.9 -2.58 -0.91 2.58 1.82 0z"/>
   <polygon class="fil4" points="194.93,232.76 194.93,238.32 194.01,238.32 194.01,234.51 192.32,238.32 191.69,238.32 189.98,234.51 189.98,238.32 189.07,238.32 189.07,232.76 190.05,232.76 192.01,237.12 193.95,232.76 "/>
   <polygon class="fil4" points="197.04,233.49 197.04,235.13 198.96,235.13 198.96,235.87 197.04,235.87 197.04,237.58 199.2,237.58 199.2,238.32 196.13,238.32 196.13,232.75 199.2,232.75 199.2,233.49 "/>
   <polygon class="fil4" points="204.89,238.32 203.98,238.32 201.23,234.17 201.23,238.32 200.32,238.32 200.32,232.75 201.23,232.75 203.98,236.9 203.98,232.75 204.89,232.75 "/>
   <polygon class="fil4" points="165.66,210.58 166.57,208.93 167.22,209.29 165.85,211.73 161,209.01 161.45,208.22 "/>
   <polygon class="fil4" points="163.18,205.12 168.03,207.84 167.59,208.63 162.74,205.91 "/>
   <path class="fil4" d="M169.29 202.53c0.25,0.14 0.43,0.33 0.56,0.57 0.13,0.24 0.18,0.51 0.16,0.82 -0.02,0.31 -0.12,0.62 -0.3,0.94l-1.09 1.94 -4.85 -2.72 1.04 -1.85c0.19,-0.33 0.4,-0.58 0.65,-0.76 0.24,-0.18 0.49,-0.27 0.75,-0.29 0.26,-0.02 0.5,0.04 0.73,0.17 0.28,0.16 0.47,0.36 0.57,0.62 0.1,0.25 0.13,0.53 0.07,0.83 0.19,-0.24 0.46,-0.38 0.78,-0.43 0.33,-0.05 0.64,0 0.93,0.16zm-3.04 1.89l0.55 -0.98c0.15,-0.26 0.2,-0.5 0.16,-0.71 -0.04,-0.21 -0.17,-0.38 -0.39,-0.51 -0.22,-0.12 -0.43,-0.14 -0.64,-0.07 -0.21,0.08 -0.38,0.25 -0.53,0.51l-0.55 0.99 1.39 0.78zm2.51 -1.14c-0.24,-0.13 -0.47,-0.16 -0.7,-0.07 -0.23,0.08 -0.42,0.26 -0.57,0.53l-0.59 1.05 1.51 0.85 0.6 -1.08c0.15,-0.27 0.21,-0.52 0.16,-0.74 -0.04,-0.23 -0.18,-0.41 -0.41,-0.54z"/>
   <polygon class="fil4" points="167.32,199.24 168.75,200.03 169.68,198.36 170.33,198.72 169.39,200.4 170.88,201.23 171.94,199.35 172.59,199.71 171.08,202.39 166.23,199.67 167.73,196.99 168.38,197.35 "/>
   <path class="fil4" d="M174.55 196.21l-2.57 0.03 -0.34 0.61 1.94 1.09 -0.45 0.8 -4.85 -2.72 0.94 -1.67c0.21,-0.37 0.45,-0.65 0.73,-0.84 0.28,-0.19 0.56,-0.28 0.85,-0.29 0.29,-0 0.57,0.07 0.84,0.22 0.32,0.18 0.55,0.43 0.71,0.76 0.16,0.33 0.17,0.71 0.05,1.14l2.68 -0.07 -0.53 0.95zm-3.54 0.28l0.49 -0.88c0.17,-0.3 0.22,-0.56 0.16,-0.8 -0.07,-0.23 -0.22,-0.42 -0.47,-0.56 -0.25,-0.14 -0.49,-0.18 -0.72,-0.11 -0.23,0.07 -0.42,0.26 -0.59,0.56l-0.49 0.88 1.63 0.91z"/>
   <path class="fil4" d="M172.51 188.47l0.65 0.36 -0.72 1.29 4.2 2.35 -0.45 0.8 -4.2 -2.36 -0.73 1.3 -0.65 -0.36 1.9 -3.39zm5.95 -1.57l-1.14 2.03 0.8 0.91 -0.47 0.83 -3.88 -4.46 0.52 -0.92 5.83 0.98 -0.47 0.84 -1.19 -0.21zm-0.78 -0.14l-2.7 -0.47 1.81 2.06 0.89 -1.58z"/>
   <path class="fil4" d="M179.13 184.88l0.48 -0.85c0.22,0.1 0.44,0.11 0.66,0.04 0.22,-0.07 0.4,-0.24 0.55,-0.5 0.15,-0.28 0.21,-0.53 0.16,-0.75 -0.05,-0.23 -0.18,-0.4 -0.38,-0.52 -0.16,-0.09 -0.32,-0.12 -0.48,-0.08 -0.16,0.04 -0.3,0.11 -0.44,0.22 -0.13,0.11 -0.31,0.27 -0.51,0.49 -0.26,0.27 -0.49,0.48 -0.69,0.63 -0.2,0.15 -0.42,0.24 -0.68,0.28 -0.26,0.04 -0.54,-0.03 -0.84,-0.2 -0.28,-0.16 -0.49,-0.36 -0.62,-0.62 -0.13,-0.26 -0.18,-0.54 -0.15,-0.86 0.03,-0.31 0.14,-0.64 0.32,-0.97 0.26,-0.47 0.6,-0.79 1,-0.96 0.4,-0.17 0.82,-0.16 1.25,0.04l-0.49 0.88c-0.19,-0.08 -0.38,-0.09 -0.6,-0 -0.21,0.08 -0.39,0.25 -0.53,0.5 -0.13,0.23 -0.17,0.45 -0.14,0.66 0.04,0.21 0.16,0.38 0.38,0.5 0.15,0.08 0.3,0.11 0.44,0.07 0.15,-0.04 0.29,-0.11 0.42,-0.22 0.13,-0.11 0.3,-0.26 0.5,-0.47 0.27,-0.27 0.5,-0.48 0.71,-0.64 0.2,-0.15 0.43,-0.25 0.7,-0.29 0.26,-0.04 0.55,0.03 0.86,0.2 0.25,0.14 0.44,0.34 0.59,0.59 0.14,0.25 0.21,0.55 0.2,0.87 -0.01,0.33 -0.11,0.67 -0.3,1.01l-2.35 0.94z"/>
   <path class="fil4" d="M208.52 192.31l-1.13 -2.04 -1.19 0.2 -0.46 -0.83 5.84 -0.96 0.51 0.92 -3.9 4.44 -0.47 -0.84 0.8 -0.9zm0.53 -0.59l1.82 -2.05 -2.7 0.46 0.88 1.59z"/>
   <polygon class="fil4" points="212.49,191.86 211.07,192.65 212,194.34 211.35,194.69 210.42,193.02 208.93,193.84 209.97,195.73 209.32,196.09 207.83,193.41 212.7,190.7 214.19,193.39 213.54,193.75 "/>
   <path class="fil4" d="M201.36 183.81l0.45 -1.37c-0.18,-0.18 -0.34,-0.39 -0.47,-0.64 -0.25,-0.45 -0.38,-0.93 -0.37,-1.43 0,-0.5 0.13,-0.96 0.39,-1.4 0.26,-0.43 0.62,-0.78 1.1,-1.04 0.47,-0.26 0.96,-0.39 1.46,-0.38 0.5,0.01 0.96,0.15 1.39,0.41 0.42,0.26 0.76,0.62 1.01,1.07 0.25,0.46 0.38,0.93 0.38,1.43 -0,0.5 -0.13,0.96 -0.39,1.39 -0.26,0.43 -0.62,0.77 -1.1,1.04 -0.45,0.25 -0.91,0.38 -1.38,0.38 -0.47,0.01 -0.91,-0.1 -1.32,-0.32l-0.59 1.85 -0.56 -1.01zm0.67 -2.39c0.18,0.32 0.41,0.57 0.7,0.74 0.29,0.17 0.6,0.25 0.96,0.24 0.35,-0.01 0.71,-0.11 1.07,-0.31 0.36,-0.2 0.63,-0.44 0.83,-0.74 0.19,-0.29 0.29,-0.6 0.29,-0.94 0.01,-0.33 -0.08,-0.66 -0.26,-0.98 -0.18,-0.32 -0.41,-0.57 -0.69,-0.74 -0.28,-0.17 -0.6,-0.25 -0.95,-0.24 -0.35,0.01 -0.7,0.11 -1.06,0.31l-0.87 2.66z"/>
   <path class="fil4" d="M208.51 183.16l-3.1 1.72c-0.37,0.21 -0.59,0.46 -0.67,0.75 -0.08,0.3 -0.02,0.62 0.17,0.96 0.2,0.35 0.44,0.57 0.73,0.66 0.29,0.09 0.63,0.03 0.99,-0.17l3.1 -1.72 0.44 0.8 -3.09 1.71c-0.4,0.22 -0.78,0.32 -1.15,0.3 -0.37,-0.02 -0.7,-0.14 -1,-0.35 -0.3,-0.21 -0.54,-0.5 -0.73,-0.85 -0.2,-0.35 -0.3,-0.71 -0.33,-1.07 -0.02,-0.36 0.05,-0.7 0.24,-1.02 0.18,-0.32 0.47,-0.59 0.87,-0.81l3.09 -1.71 0.44 0.8z"/>
   <path class="fil4" d="M212.05 198.14l0.47 0.85c-0.2,0.13 -0.33,0.31 -0.38,0.54 -0.05,0.22 -0.01,0.47 0.14,0.73 0.15,0.28 0.34,0.45 0.56,0.53 0.22,0.08 0.43,0.06 0.64,-0.05 0.16,-0.09 0.27,-0.21 0.32,-0.36 0.05,-0.15 0.06,-0.32 0.04,-0.49 -0.02,-0.17 -0.07,-0.41 -0.15,-0.69 -0.09,-0.36 -0.15,-0.67 -0.17,-0.91 -0.02,-0.24 0.02,-0.49 0.12,-0.73 0.1,-0.24 0.31,-0.44 0.61,-0.61 0.28,-0.16 0.56,-0.22 0.85,-0.2 0.29,0.02 0.56,0.13 0.81,0.32 0.25,0.19 0.47,0.45 0.65,0.78 0.26,0.47 0.36,0.92 0.29,1.35 -0.07,0.43 -0.3,0.78 -0.69,1.04l-0.49 -0.88c0.17,-0.11 0.28,-0.28 0.31,-0.5 0.04,-0.23 -0.01,-0.46 -0.15,-0.72 -0.13,-0.23 -0.29,-0.38 -0.49,-0.46 -0.2,-0.08 -0.41,-0.06 -0.62,0.06 -0.15,0.08 -0.25,0.2 -0.29,0.34 -0.05,0.15 -0.06,0.3 -0.03,0.47 0.02,0.17 0.07,0.39 0.13,0.67 0.09,0.37 0.15,0.68 0.17,0.93 0.02,0.25 -0.02,0.5 -0.12,0.75 -0.11,0.24 -0.31,0.45 -0.62,0.62 -0.25,0.14 -0.52,0.2 -0.81,0.19 -0.29,-0.01 -0.58,-0.11 -0.85,-0.29 -0.27,-0.18 -0.51,-0.44 -0.7,-0.79l0.44 -2.49z"/>
   <polygon class="fil4" points="217.78,201.69 216.35,202.48 217.28,204.16 216.63,204.53 215.7,202.85 214.21,203.67 215.26,205.56 214.6,205.92 213.11,203.24 217.98,200.53 219.47,203.22 218.82,203.58 "/>
   <path class="fil4" d="M216.55 209.43l1.32 -2.2 -0.34 -0.61 -1.95 1.08 -0.44 -0.8 4.86 -2.7 0.93 1.68c0.21,0.37 0.32,0.73 0.33,1.06 0.01,0.33 -0.05,0.62 -0.2,0.87 -0.15,0.25 -0.36,0.45 -0.63,0.6 -0.32,0.18 -0.66,0.24 -1.02,0.2 -0.36,-0.04 -0.7,-0.23 -1,-0.56l-1.35 2.32 -0.53 -0.95zm1.62 -3.16l0.49 0.88c0.16,0.3 0.36,0.48 0.6,0.55 0.23,0.07 0.48,0.03 0.73,-0.11 0.25,-0.14 0.41,-0.32 0.47,-0.55 0.06,-0.23 0.01,-0.49 -0.16,-0.8l-0.49 -0.88 -1.63 0.9z"/>
   <path class="fil4" d="M220.22 213.71l-1.13 -2.04 -1.19 0.2 -0.46 -0.83 5.84 -0.96 0.51 0.93 -3.9 4.44 -0.47 -0.84 0.8 -0.9zm0.53 -0.59l1.82 -2.04 -2.7 0.46 0.88 1.59z"/>
   <path class="fil0" d="M9.16 253.93c-1.79,0 -3.29,-0.58 -4.49,-1.73 -1.19,-1.17 -1.78,-2.67 -1.78,-4.51 0,-1.85 0.6,-3.37 1.82,-4.56 1.21,-1.2 2.7,-1.8 4.47,-1.8 1.08,0 2.07,0.21 2.98,0.63 0.91,0.42 1.65,0.99 2.24,1.72l-2.15 2.33c-0.88,-0.93 -1.83,-1.39 -2.84,-1.39 -0.83,0 -1.53,0.29 -2.11,0.87 -0.56,0.57 -0.84,1.29 -0.84,2.16 0,0.85 0.28,1.56 0.84,2.15 0.57,0.57 1.27,0.86 2.1,0.86 1.1,0 2.07,-0.48 2.91,-1.45l2.26 2.19c-0.53,0.73 -1.28,1.33 -2.26,1.82 -0.95,0.47 -1.99,0.71 -3.14,0.71z"/>
   <path class="fil0" d="M20.91 253.97c-1.32,0 -2.5,-0.37 -3.53,-1.11 -1.1,-0.85 -1.65,-2.18 -1.65,-4l0 -7.31 3.47 0 0 7.31c0,0.58 0.16,1.03 0.47,1.34 0.31,0.31 0.73,0.46 1.25,0.46 0.51,0 0.92,-0.15 1.24,-0.46 0.32,-0.31 0.48,-0.75 0.48,-1.34l0 -7.31 3.47 0 0 7.31c0,0.91 -0.15,1.71 -0.45,2.39 -0.3,0.68 -0.7,1.21 -1.2,1.59 -0.51,0.38 -1.06,0.66 -1.64,0.84 -0.59,0.18 -1.22,0.27 -1.89,0.27z"/>
   <path class="fil0" d="M38.54 253.75l-3.91 0 -1.93 -3.81 -1.06 0 0 3.81 -3.43 0 0 -12.2 5.32 0c1.53,0 2.68,0.39 3.45,1.16 0.78,0.78 1.17,1.78 1.17,2.99 0,0.79 -0.18,1.51 -0.53,2.15 -0.35,0.64 -0.87,1.14 -1.57,1.5l2.49 4.41zm-5.05 -9.08l-1.85 0 0 2.3 1.77 0c0.39,0 0.68,-0.11 0.89,-0.32 0.21,-0.21 0.31,-0.49 0.31,-0.83 0,-0.34 -0.1,-0.62 -0.3,-0.83 -0.2,-0.21 -0.47,-0.31 -0.83,-0.31z"/>
   <path class="fil0" d="M44.24 253.97c-2.05,0 -3.77,-0.67 -5.18,-2.01l1.65 -2.56c1.14,0.94 2.34,1.42 3.58,1.42 0.78,0 1.17,-0.21 1.17,-0.64 0,-0.29 -0.31,-0.54 -0.92,-0.76 -0.26,-0.09 -0.52,-0.16 -0.76,-0.23 -0.86,-0.26 -1.49,-0.5 -1.9,-0.69 -1.37,-0.67 -2.05,-1.75 -2.05,-3.22 0,-1.12 0.45,-2.05 1.34,-2.79 0.88,-0.74 2.02,-1.11 3.42,-1.11 1.67,0 3.18,0.49 4.52,1.48l-1.52 2.66c-0.34,-0.25 -0.81,-0.47 -1.42,-0.66 -0.59,-0.19 -1.11,-0.28 -1.54,-0.28 -0.37,0 -0.66,0.05 -0.85,0.16 -0.19,0.11 -0.29,0.25 -0.29,0.43 0,0.19 0.08,0.33 0.23,0.44 0.15,0.1 0.4,0.21 0.73,0.31 1.15,0.35 1.94,0.61 2.34,0.78 1.65,0.64 2.47,1.73 2.47,3.28 0,1.16 -0.46,2.11 -1.37,2.87 -0.91,0.75 -2.13,1.12 -3.67,1.12z"/>
   <path class="fil0" d="M52.13 252.13c-1.22,-1.22 -1.83,-2.72 -1.83,-4.49 0,-1.78 0.61,-3.27 1.83,-4.47 1.22,-1.22 2.75,-1.83 4.57,-1.83 1.83,0 3.35,0.61 4.57,1.83 1.22,1.2 1.83,2.7 1.83,4.49 0,1.77 -0.61,3.26 -1.83,4.47 -1.21,1.21 -2.73,1.82 -4.56,1.82 -1.83,0 -3.36,-0.61 -4.59,-1.82zm4.57 -1.58c0.8,0 1.48,-0.28 2.03,-0.83 0.55,-0.57 0.82,-1.27 0.81,-2.08 -0.01,-0.85 -0.29,-1.55 -0.84,-2.1 -0.54,-0.54 -1.2,-0.81 -2,-0.81 -0.79,0 -1.46,0.28 -2.02,0.83 -0.55,0.55 -0.83,1.24 -0.83,2.08 0,0.84 0.28,1.53 0.83,2.08 0.55,0.55 1.22,0.83 2.02,0.83z"/>
   <path class="fil0" d="M68.84 241.55l5.05 0c1.62,0 2.81,0.42 3.58,1.25 0.77,0.81 1.16,1.85 1.16,3.1 0,1.25 -0.4,2.27 -1.2,3.04 -0.8,0.78 -2.06,1.17 -3.77,1.17l-1.39 0 0 3.63 -3.43 0 0 -12.2zm3.43 5.5l1.55 0c0.39,0 0.71,-0.11 0.93,-0.33 0.23,-0.22 0.34,-0.5 0.34,-0.84 0,-0.34 -0.11,-0.63 -0.35,-0.85 -0.23,-0.23 -0.53,-0.34 -0.89,-0.34l-1.59 0 0 2.36z"/>
   <path class="fil0" d="M90.81 253.75l-3.52 0 -0.58 -2 -3.68 0 -0.61 2 -3.52 0 4.34 -12.2 3.35 0 4.21 12.2zm-6.95 -4.95l2.08 0 -1.02 -3.37 -1.06 3.37z"/>
   <path class="fil0" d="M102.3 253.75l-3.91 0 -1.93 -3.81 -1.06 0 0 3.81 -3.43 0 0 -12.2 5.32 0c1.53,0 2.68,0.39 3.45,1.16 0.78,0.78 1.17,1.78 1.17,2.99 0,0.79 -0.18,1.51 -0.53,2.15 -0.35,0.64 -0.88,1.14 -1.57,1.5l2.49 4.41zm-5.05 -9.08l-1.85 0 0 2.3 1.77 0c0.38,0 0.68,-0.11 0.89,-0.32 0.21,-0.21 0.31,-0.49 0.31,-0.83 0,-0.34 -0.1,-0.62 -0.3,-0.83 -0.2,-0.21 -0.47,-0.31 -0.83,-0.31z"/>
   <path class="fil0" d="M114.56 253.75l-3.52 0 -0.58 -2 -3.68 0 -0.61 2 -3.52 0 4.34 -12.2 3.35 0 4.21 12.2zm-6.95 -4.95l2.08 0 -1.02 -3.37 -1.06 3.37z"/>
   <polygon class="fil0" points="125.08,248.85 127.47,241.55 131.45,241.55 126.68,253.75 123.48,253.75 118.64,241.55 122.64,241.55 "/>
   <polygon class="fil0" points="132.57,253.75 132.57,241.55 136.04,241.55 136.04,253.75 "/>
   <path class="fil0" d="M142.5 253.97c-2.05,0 -3.77,-0.67 -5.18,-2.01l1.65 -2.56c1.14,0.94 2.34,1.42 3.58,1.42 0.78,0 1.17,-0.21 1.17,-0.64 0,-0.29 -0.31,-0.54 -0.93,-0.76 -0.26,-0.09 -0.52,-0.16 -0.76,-0.23 -0.86,-0.26 -1.49,-0.5 -1.9,-0.69 -1.37,-0.67 -2.05,-1.75 -2.05,-3.22 0,-1.12 0.45,-2.05 1.34,-2.79 0.88,-0.74 2.02,-1.11 3.42,-1.11 1.67,0 3.18,0.49 4.52,1.48l-1.52 2.66c-0.34,-0.25 -0.81,-0.47 -1.42,-0.66 -0.6,-0.19 -1.11,-0.28 -1.54,-0.28 -0.37,0 -0.66,0.05 -0.85,0.16 -0.19,0.11 -0.29,0.25 -0.29,0.43 0,0.19 0.08,0.33 0.23,0.44 0.15,0.1 0.4,0.21 0.73,0.31 1.16,0.35 1.94,0.61 2.34,0.78 1.65,0.64 2.48,1.73 2.48,3.28 0,1.16 -0.46,2.11 -1.37,2.87 -0.91,0.75 -2.14,1.12 -3.67,1.12z"/>
   <polygon class="fil0" points="151.59,253.75 151.59,244.85 148.26,244.85 148.26,241.55 158.38,241.55 158.38,244.85 155.06,244.85 155.06,253.75 "/>
   <path class="fil0" d="M160.97 252.13c-1.22,-1.22 -1.83,-2.72 -1.83,-4.49 0,-1.78 0.61,-3.27 1.83,-4.47 1.22,-1.22 2.75,-1.83 4.57,-1.83 1.83,0 3.35,0.61 4.57,1.83 1.22,1.2 1.83,2.7 1.83,4.49 0,1.77 -0.61,3.26 -1.83,4.47 -1.21,1.21 -2.73,1.82 -4.56,1.82 -1.83,0 -3.36,-0.61 -4.59,-1.82zm4.57 -1.58c0.8,0 1.48,-0.28 2.03,-0.83 0.55,-0.57 0.82,-1.27 0.81,-2.08 -0.01,-0.85 -0.29,-1.55 -0.84,-2.1 -0.54,-0.54 -1.2,-0.81 -2,-0.81 -0.79,0 -1.46,0.28 -2.01,0.83 -0.55,0.55 -0.83,1.24 -0.83,2.08 0,0.84 0.28,1.53 0.83,2.08 0.55,0.55 1.22,0.83 2.01,0.83z"/>
   <path class="fil0" d="M183.93 253.75l-3.91 0 -1.93 -3.81 -1.06 0 0 3.81 -3.43 0 0 -12.2 5.32 0c1.53,0 2.68,0.39 3.45,1.16 0.78,0.78 1.17,1.78 1.17,2.99 0,0.79 -0.18,1.51 -0.53,2.15 -0.35,0.64 -0.88,1.14 -1.57,1.5l2.49 4.41zm-5.05 -9.08l-1.85 0 0 2.3 1.77 0c0.39,0 0.68,-0.11 0.89,-0.32 0.21,-0.21 0.31,-0.49 0.31,-0.83 0,-0.34 -0.1,-0.62 -0.3,-0.83 -0.2,-0.21 -0.47,-0.31 -0.83,-0.31z"/>
   <polygon class="fil0" points="185.42,253.75 185.42,241.55 188.88,241.55 188.88,253.75 "/>
   <path class="fil0" d="M201.91 253.75l-3.52 0 -0.58 -2 -3.68 0 -0.61 2 -3.52 0 4.34 -12.2 3.35 0 4.21 12.2zm-6.95 -4.95l2.08 0 -1.02 -3.37 -1.06 3.37z"/>
   <path class="fil0" d="M208.12 253.75l-5.05 0 0 -12.2 5.09 0c1.96,0 3.47,0.55 4.54,1.64 1.09,1.09 1.63,2.58 1.63,4.47 0,1.88 -0.55,3.37 -1.65,4.46 -1.09,1.09 -2.61,1.63 -4.56,1.63zm-1.62 -8.9l0 5.6 1.78 0c0.8,0 1.41,-0.28 1.83,-0.83 0.43,-0.55 0.64,-1.21 0.64,-1.98 0,-0.77 -0.21,-1.43 -0.64,-1.97 -0.42,-0.55 -1.03,-0.83 -1.83,-0.83l-1.78 0z"/>
   <path class="fil0" d="M217.26 252.13c-1.22,-1.22 -1.83,-2.72 -1.83,-4.49 0,-1.78 0.61,-3.27 1.83,-4.47 1.22,-1.22 2.75,-1.83 4.57,-1.83 1.83,0 3.35,0.61 4.57,1.83 1.22,1.2 1.83,2.7 1.83,4.49 0,1.77 -0.61,3.26 -1.83,4.47 -1.21,1.21 -2.73,1.82 -4.56,1.82 -1.83,0 -3.36,-0.61 -4.59,-1.82zm4.57 -1.58c0.8,0 1.48,-0.28 2.03,-0.83 0.55,-0.57 0.82,-1.27 0.81,-2.08 -0.01,-0.85 -0.29,-1.55 -0.84,-2.1 -0.54,-0.54 -1.2,-0.81 -2,-0.81 -0.79,0 -1.46,0.28 -2.02,0.83 -0.55,0.55 -0.83,1.24 -0.83,2.08 0,0.84 0.28,1.53 0.83,2.08 0.55,0.55 1.22,0.83 2.02,0.83z"/>
   <path class="fil0" d="M240.22 253.75l-3.91 0 -1.93 -3.81 -1.06 0 0 3.81 -3.43 0 0 -12.2 5.32 0c1.53,0 2.68,0.39 3.45,1.16 0.78,0.78 1.17,1.78 1.17,2.99 0,0.79 -0.18,1.51 -0.53,2.15 -0.35,0.64 -0.88,1.14 -1.57,1.5l2.49 4.41zm-5.05 -9.08l-1.85 0 0 2.3 1.77 0c0.38,0 0.68,-0.11 0.89,-0.32 0.21,-0.21 0.31,-0.49 0.31,-0.83 0,-0.34 -0.1,-0.62 -0.3,-0.83 -0.2,-0.21 -0.47,-0.31 -0.83,-0.31z"/>
   <polygon class="fil0" points="250.81,253.75 241.71,253.75 241.71,241.55 250.84,241.55 250.84,244.72 245.18,244.72 245.18,246.07 250.41,246.07 250.41,249.23 245.18,249.23 245.18,250.58 250.81,250.58 "/>
   <path class="fil0" d="M257 253.97c-2.05,0 -3.77,-0.67 -5.19,-2.01l1.65 -2.56c1.15,0.94 2.34,1.42 3.58,1.42 0.78,0 1.17,-0.21 1.17,-0.64 0,-0.29 -0.31,-0.54 -0.93,-0.76 -0.26,-0.09 -0.52,-0.16 -0.76,-0.23 -0.86,-0.26 -1.49,-0.5 -1.9,-0.69 -1.36,-0.67 -2.05,-1.75 -2.05,-3.22 0,-1.12 0.44,-2.05 1.34,-2.79 0.88,-0.74 2.02,-1.11 3.42,-1.11 1.67,0 3.18,0.49 4.52,1.48l-1.52 2.66c-0.34,-0.25 -0.81,-0.47 -1.42,-0.66 -0.59,-0.19 -1.11,-0.28 -1.53,-0.28 -0.37,0 -0.66,0.05 -0.85,0.16 -0.19,0.11 -0.29,0.25 -0.29,0.43 0,0.19 0.08,0.33 0.23,0.44 0.15,0.1 0.4,0.21 0.73,0.31 1.15,0.35 1.94,0.61 2.34,0.78 1.65,0.64 2.48,1.73 2.48,3.28 0,1.16 -0.46,2.11 -1.37,2.87 -0.91,0.75 -2.13,1.12 -3.66,1.12z"/>
  </g>
 </g>
</svg>
