<?xml version="1.0" encoding="UTF-8"?>
<!DOCTYPE svg PUBLIC "-//W3C//DTD SVG 1.1//EN" "http://www.w3.org/Graphics/SVG/1.1/DTD/svg11.dtd">
<!-- Creator: CorelDRAW -->
<svg xmlns="http://www.w3.org/2000/svg" xml:space="preserve" width="23.2881mm" height="5.24mm" version="1.1" style="shape-rendering:geometricPrecision; text-rendering:geometricPrecision; image-rendering:optimizeQuality; fill-rule:evenodd; clip-rule:evenodd"
viewBox="0 0 2712.84 610.41"
 xmlns:xlink="http://www.w3.org/1999/xlink"
 xmlns:xodm="http://www.corel.com/coreldraw/odm/2003">
 <defs>
  <style type="text/css">
   <![CDATA[
    .str0 {stroke:#02487D;stroke-width:8.88;stroke-miterlimit:22.9256}
    .fil0 {fill:#02487D}
    .fil1 {fill:#25B2E1}
   ]]>
  </style>
 </defs>
 <g id="Layer_x0020_1">
  <metadata id="CorelCorpID_0Corel-Layer"/>
  <g id="_2027305841136">
   <path class="fil0" d="M1138.5 345.65c0,-74.16 -20.72,-121.05 -99.74,-121.05 -55.93,0 -62.82,35.01 -69.17,40.62l0 -132.31 -81.64 0.06 -0.01 318.87c-0.08,8.97 -2.5,15.4 4.44,17.69 3.26,1.07 16.91,2.46 21.12,2.98 46.55,5.84 122.54,12.57 163.8,-4.67 42.29,-17.66 61.2,-62.79 61.2,-122.2zm-168.91 61.83c28.84,3.37 69.11,5.66 82.39,-16.4 10.87,-18.04 9.35,-68.71 -2.76,-84.86 -11.02,-14.7 -53.83,-20.92 -71.25,6.03 -12.94,20.05 -8.39,67.83 -8.39,95.23z"/>
   <path class="fil1" d="M-0 299.01c0,53.47 8.01,88.11 28.04,134.02 14.93,34.27 36.79,62.82 62.64,88.58 15.61,15.53 21.06,20.95 41.17,34.49 83.35,56.14 185.88,70.79 281.45,34.33 33.03,-12.6 54.59,-26.14 81.05,-46.63 -15.3,5.78 -27.31,18.38 -65.25,30.28 -109.38,34.28 -207.91,1.42 -279.99,-65.89 -19.56,-18.27 -44.58,-54.21 -56.4,-80.23 -88.17,-194 60.39,-394.38 244.69,-394.38 70.36,0 124.34,18.91 176.47,58.39 15.06,11.42 25.92,24.03 39.2,36.33 -18.27,-32.34 -65.74,-70.84 -98.63,-89.48 -122.52,-69.42 -272.77,-41.26 -363.78,48.82 -43.23,42.79 -90.66,119.85 -90.66,211.36z"/>
   <path class="fil0" d="M156.64 143.57c4.18,-2.2 0.69,-0.2 3.48,-2.28 1.75,-1.32 1.1,-0.89 2.83,-2.31 15.8,-12.95 27.72,-22.11 47.13,-31.59 19.85,-9.69 44.44,-17.61 69.47,-20.57 153.84,-18.17 279.33,126.9 232.35,278.91 -56.86,184.03 -308.89,206.48 -398.97,33.95 -4.87,-9.32 -8.93,-23.58 -13.52,-31.41 1.53,22.11 21.14,60.62 31.22,76.36 29.06,45.42 67.47,78.64 119.12,99.66 162.7,66.17 345.83,-56.44 345.83,-227.59 0,-44.27 -5.96,-73.3 -23.01,-111.27 -38.02,-84.71 -128.47,-146.51 -222.31,-146.51 -61.46,0 -113.09,15.81 -159.49,51.64 -9.45,7.29 -28.77,23.82 -34.14,33.01z"/>
   <path class="fil1" d="M2187.3 236.66l-1.05 58.63c7.32,1.1 50.07,-9.55 79.87,-9.55 29.71,0 69.68,-0.03 70.67,35.38 -58.76,0 -169.6,-14.79 -169.6,71.19 0,46.06 15.99,76.3 62.88,84.37 34.76,5.99 83.3,1.5 107.93,-25.97l3.29 23.26 73.07 -0.03c1.63,-14.72 0.56,-107.6 0.55,-129.9 -0.05,-105.21 -51.99,-119.44 -142.35,-119.44 -18.15,0 -71.29,5.34 -85.26,12.06zm86.87 181.77c44.05,0 66.05,-5.6 64.03,-45.04 -28.21,0.01 -112.03,-9.95 -94.66,31.85 4.33,10.43 16.5,13.19 30.63,13.19z"/>
   <path class="fil0" d="M1408.73 236.07l-0.31 60.03c30.03,-2.35 148.94,-34.21 150.41,25.03 -77.68,0 -169.8,-11.98 -169.8,76 0,44.48 21.68,71.83 61.16,79.16 19.05,3.53 43.52,2.9 62.67,-0.77 34.47,-6.62 37.22,-18.27 47.88,-24.29l2.54 22.75 73.42 -0.03c1.51,-17.23 0.45,-96.9 0.45,-120.24 -0.03,-110.58 -42.12,-129.09 -141.56,-129.09 -31.36,0 -58.29,5.81 -86.87,11.46zm151.4 137.33c-25.43,0 -82.46,-6.43 -93.57,12.44 -4.59,7.8 -3.15,20 3.25,25.79 12.17,11.03 44.21,7.79 61.71,3.61 21.11,-5.04 32.4,-16.25 28.61,-41.84z"/>
   <path class="fil1" d="M2549.14 271.55l-4.14 -42.99 -77.12 -1.25 -0.29 246.33 80.88 0.28c2.62,-32.26 0.37,-74.31 0.36,-107.36 -0.02,-37.87 -1.56,-67.53 40.6,-67.61 43.39,-0.09 40.08,28.2 41.12,65.99 0.93,34.34 -2.28,75.98 1.11,108.99l80.25 0c1.67,-11.51 0.58,-95.11 0.58,-113.81 0,-68.83 0.12,-140.29 -94.16,-135.35 -57.22,3.01 -60.41,35.81 -69.2,46.77z"/>
   <path class="fil1" d="M1676.96 302.22c0,39.27 18.14,56.98 49.07,67.17 18.51,6.09 85.63,13.31 93.69,23.93 6.29,21.97 -21.05,21.5 -39.4,21.5 -26.05,0 -38.67,0.49 -65.79,-3.46 -11.57,-1.69 -26.57,-6.41 -36.67,-7.21 -2.2,11.93 -1.2,49.12 -0.66,63.57 49.61,6.71 89.35,13.64 141.78,9.95 64.24,-4.53 85.61,-22.69 85.61,-80.54 0,-78.2 -86.63,-62.32 -135.79,-81.75 -13.84,-5.48 -9.2,-17.74 -3.61,-21.88 17.4,-12.9 89.41,-2.2 108.42,2.28 8.56,2.02 15.09,5.84 19.54,2.73l1.49 -60.92c-44.32,-10.6 -146.49,-25.1 -189.44,2.38 -19.23,12.29 -28.23,30.4 -28.23,62.26z"/>
   <path class="fil1" d="M2139.44 466.3c0,-12.86 2.04,-55.95 -1.3,-65.06 -8.08,-0.54 -22.16,2 -31.2,2.8 -25.51,2.24 -76.8,6.57 -90.41,-13.08 -9.51,-13.75 -9.7,-41.94 -5.01,-60.28 10.5,-41.03 69.24,-33.56 106.55,-28.53 24.18,3.26 18.46,13.84 18.56,-44.97 0.02,-20.83 10.13,-23.03 -40.41,-29.45 -60.74,-7.71 -129.44,-7.39 -155.31,53.33 -13.47,31.63 -14.76,91.35 -5.48,126.6 10.34,39.25 31.7,60.28 73.68,67.8 20.39,3.65 120.85,5.71 130.32,-9.16z"/>
   <path class="fil0" d="M1255.02 277.08c-4.1,-6.27 -5.98,-38.86 -7.85,-49.76l-65.86 -0.24 -0.2 246.27 80.84 0.63c4.39,-40.67 -4.46,-97.93 7.49,-134.13 16.59,-50.29 70.83,-34.66 102,-31.49l0.31 -80.33c-57.19,-6.33 -105.82,-10.11 -116.74,49.05z"/>
   <path class="fil0" d="M276.37 202.5c5.94,5.87 21.8,11.16 27.54,35.15 8.47,35.41 -22.98,70.34 -60.88,62.36 -18.38,-3.88 -28.92,-15.06 -35.62,-28.54 -10.17,14.17 -5.01,53.68 3.24,72.29 30.97,69.87 122.23,78.55 168.82,31.1 28.17,-28.68 41.49,-82.44 15.24,-126.72 -11.07,-18.65 -24.23,-30.53 -45.82,-41.04 -16.77,-8.18 -54.67,-14.46 -72.52,-4.6z"/>
   <polygon class="fil0 str0" points="750.83,473.94 832.16,473.92 832.45,227.32 751.21,227.01 "/>
   <path class="fil0" d="M751.62 135.72c-3.25,18.43 -2.96,43.03 -0.1,61.24 50.07,6.48 29.25,5.42 80.72,0.68 2.11,-31.79 1.91,-30.38 0.05,-61.93 -21.81,-5.64 -58.96,-5.75 -80.66,0.01z"/>
  </g>
 </g>
</svg>
