<?xml version="1.0" encoding="UTF-8"?>
<!DOCTYPE svg PUBLIC "-//W3C//DTD SVG 1.1//EN" "http://www.w3.org/Graphics/SVG/1.1/DTD/svg11.dtd">
<!-- Creator: CorelDRAW -->
<svg xmlns="http://www.w3.org/2000/svg" xml:space="preserve" width="42.3333mm" height="39.8356mm" version="1.1" style="shape-rendering:geometricPrecision; text-rendering:geometricPrecision; image-rendering:optimizeQuality; fill-rule:evenodd; clip-rule:evenodd"
viewBox="0 0 734.22 690.9"
 xmlns:xlink="http://www.w3.org/1999/xlink"
 xmlns:xodm="http://www.corel.com/coreldraw/odm/2003">
 <defs>
  <style type="text/css">
   <![CDATA[
    .fil1 {fill:#79C4EC;fill-rule:nonzero}
    .fil3 {fill:#79C4EC;fill-rule:nonzero}
    .fil4 {fill:#ED1521;fill-rule:nonzero}
    .fil2 {fill:white;fill-rule:nonzero}
    .fil0 {fill:white;fill-rule:nonzero}
   ]]>
  </style>
 </defs>
 <g id="Layer_x0020_1">
  <metadata id="CorelCorpID_0Corel-Layer"/>
  <g id="_2026137428624">
   <path class="fil0" d="M195.79 169.5l-45.45 0 -7.47 -25.82 -47.58 0 -7.9 25.82 -45.45 0 56.12 -157.69 43.32 0 54.41 157.69zm-89.83 -64.02l26.89 0 -13.23 -43.53 -13.66 43.53z"/>
   <path class="fil0" d="M276.02 172.27c-17.07,0 -32.29,-4.77 -45.66,-14.3 -14.23,-10.95 -21.34,-28.17 -21.34,-51.64l0 -94.53 44.81 0 0 94.53c0,7.54 2.03,13.3 6.08,17.28 4.05,3.98 9.42,5.97 16.11,5.97 6.54,0 11.88,-1.99 16,-5.97 4.13,-3.98 6.19,-9.75 6.19,-17.28l0 -94.53 44.81 0 0 94.53c0,11.81 -1.92,22.12 -5.76,30.94 -3.84,8.82 -9.03,15.68 -15.58,20.59 -6.54,4.91 -13.62,8.54 -21.23,10.88 -7.61,2.35 -15.76,3.52 -24.43,3.52z"/>
   <polygon class="fil0" points="401.91,169.5 401.91,54.49 358.8,54.49 358.8,11.81 489.61,11.81 489.61,54.49 446.72,54.49 446.72,169.5 "/>
   <path class="fil1" d="M523.09 148.59c-15.79,-15.79 -23.68,-35.14 -23.68,-58.04 0,-23.04 7.89,-42.32 23.68,-57.83 15.79,-15.79 35.49,-23.69 59.11,-23.69 23.61,0 43.32,7.89 59.11,23.69 15.79,15.51 23.68,34.85 23.68,58.04 0,22.9 -7.89,42.18 -23.68,57.83 -15.65,15.65 -35.28,23.47 -58.89,23.47 -23.61,0 -43.39,-7.82 -59.32,-23.47zm59.11 -20.48c10.38,0 19.13,-3.56 26.25,-10.67 7.11,-7.4 10.6,-16.36 10.45,-26.89 -0.14,-10.95 -3.77,-19.99 -10.88,-27.1 -6.97,-6.97 -15.58,-10.45 -25.82,-10.45 -10.24,0 -18.92,3.56 -26.03,10.67 -7.11,7.11 -10.67,16.08 -10.67,26.89 0,10.81 3.56,19.77 10.67,26.89 7.11,7.11 15.79,10.67 26.03,10.67z"/>
   <polygon class="fil0" points="83.22,329.69 114.16,235.37 165.58,235.37 103.92,393.06 62.52,393.06 -0,235.37 51.64,235.37 "/>
   <polygon class="fil0" points="180.09,393.06 180.09,235.37 224.9,235.37 224.9,393.06 "/>
   <path class="fil0" d="M308.33 395.83c-26.46,0 -48.79,-8.68 -67,-26.03l21.34 -33.07c14.79,12.23 30.23,18.35 46.3,18.35 10.1,0 15.15,-2.77 15.15,-8.32 0,-3.7 -3.98,-6.97 -11.95,-9.81 -3.41,-1.14 -6.69,-2.14 -9.82,-2.99 -11.09,-3.41 -19.27,-6.4 -24.54,-8.96 -17.64,-8.68 -26.46,-22.55 -26.46,-41.61 0,-14.51 5.76,-26.53 17.28,-36.06 11.38,-9.53 26.1,-14.3 44.17,-14.3 21.62,0 41.11,6.4 58.47,19.2l-19.63 34.35c-4.41,-3.27 -10.53,-6.12 -18.35,-8.53 -7.68,-2.42 -14.3,-3.63 -19.84,-3.63 -4.84,0 -8.5,0.71 -10.99,2.13 -2.49,1.42 -3.73,3.27 -3.73,5.55 0,2.42 1,4.3 2.99,5.65 1.99,1.35 5.12,2.67 9.39,3.95 14.94,4.55 25.04,7.89 30.3,10.03 21.34,8.25 32.01,22.4 32.01,42.46 0,14.94 -5.9,27.31 -17.71,37.13 -11.81,9.67 -27.6,14.51 -47.37,14.51z"/>
   <path class="fil0" d="M444.25 215.1c-5.69,0 -10.88,4.13 -15.58,12.38l-27.53 -13.87c5.83,-10.95 11.7,-18.85 17.6,-23.69 5.9,-4.84 13.05,-7.25 21.45,-7.25 5.4,0 11.02,1.57 16.86,4.69 5.83,3.13 9.89,4.69 12.16,4.69 4.27,0 8.75,-3.77 13.44,-11.31l27.74 13.23c-9.67,20.77 -21.48,31.15 -35.42,31.15 -4.41,0 -10.03,-1.64 -16.86,-4.91 -6.4,-3.41 -11.02,-5.12 -13.87,-5.12zm89.41 177.96l-45.45 0 -7.47 -25.82 -47.58 0 -7.9 25.82 -45.45 0 56.12 -157.69 43.32 0 54.41 157.69zm-89.83 -64.02l26.89 0 -13.23 -43.53 -13.66 43.53z"/>
   <path class="fil0" d="M564.59 372.15c-15.79,-15.79 -23.69,-35.14 -23.69,-58.04 0,-23.04 7.89,-42.32 23.69,-57.83 15.79,-15.79 35.49,-23.68 59.11,-23.68 23.62,0 43.32,7.89 59.11,23.68 15.79,15.51 23.68,34.85 23.68,58.04 0,22.9 -7.89,42.18 -23.68,57.83 -15.65,15.65 -35.28,23.47 -58.89,23.47 -23.61,0 -43.39,-7.82 -59.32,-23.47zm59.11 -20.48c10.39,0 19.13,-3.56 26.25,-10.67 7.11,-7.4 10.6,-16.36 10.45,-26.89 -0.14,-10.95 -3.77,-19.99 -10.88,-27.1 -6.97,-6.97 -15.58,-10.45 -25.82,-10.45 -10.24,0 -18.92,3.56 -26.03,10.67 -7.11,7.11 -10.67,16.08 -10.67,26.89 0,10.81 3.56,19.77 10.67,26.89 7.11,7.11 15.79,10.67 26.03,10.67z"/>
   <path class="fil2" d="M388.45 57.78c-35.69,24.29 -65.8,54.87 -89.81,90.97l-0.45 0.67 2.33 11.58c45.82,-73.15 120.41,-128.08 211.48,-146.39 78.28,-15.73 155.78,-1.8 220.8,34.02l-2.11 -10.51c-27.7,-14.55 -57.27,-25.13 -88.05,-31.44 -43.7,-8.87 -88.33,-8.93 -132.38,-0.08 -43.92,8.83 -84.93,26.1 -121.8,51.17z"/>
   <path class="fil3" d="M389.76 62.86c-36.17,23.57 -66.89,53.54 -91.63,89.14l-0.46 0.67 2.1 11.63c47.29,-72.22 122.97,-125.63 214.39,-142.1 78.58,-14.15 155.78,1.34 220.07,38.46l-1.9 -10.55c-27.4,-15.11 -56.75,-26.28 -87.4,-33.21 -43.51,-9.75 -88.13,-10.71 -132.35,-2.75 -44.09,7.94 -85.43,24.39 -122.81,48.7z"/>
   <polygon class="fil0" points="6.41,423.47 707.35,423.47 707.35,440.2 6.41,440.2 "/>
   <path class="fil4" d="M74.65 623.59l-36.61 -119.3 -0.94 0c1.32,24.27 1.98,40.46 1.98,48.57l0 70.73 -28.81 0 0 -152.06 43.89 0 35.99 116.28 0.62 0 38.17 -116.28 43.89 0 0 152.06 -30.06 0 0 -71.97c0,-3.4 0.05,-7.32 0.16,-11.75 0.1,-4.44 0.57,-16.23 1.4,-35.36l-0.94 0 -39.21 119.09 -29.54 0zm136.46 0l0 -152.06 32.24 0 0 152.06 -32.24 0zm205.42 0l-40.98 0 -66.15 -115.03 -0.94 0c1.32,20.31 1.98,34.81 1.98,43.47l0 71.56 -28.81 0 0 -152.06 40.67 0 66.05 113.89 0.73 0c-1.04,-19.76 -1.56,-33.73 -1.56,-41.92l0 -71.97 29.02 0 0 152.06z"/>
   <path class="fil4" d="M710.54 581.36c0,13.73 -4.94,24.54 -14.82,32.45 -9.88,7.9 -23.63,11.86 -41.24,11.86 -16.23,0 -30.58,-3.05 -43.06,-9.15l0 -29.95c10.26,4.58 18.95,7.8 26.05,9.67 7.11,1.87 13.61,2.81 19.5,2.81 7.07,0 12.5,-1.35 16.28,-4.05 3.78,-2.71 5.67,-6.73 5.67,-12.07 0,-2.98 -0.83,-5.63 -2.5,-7.96 -1.67,-2.32 -4.11,-4.56 -7.33,-6.71 -3.22,-2.15 -9.79,-5.58 -19.71,-10.3 -9.29,-4.37 -16.26,-8.56 -20.9,-12.58 -4.65,-4.02 -8.36,-8.7 -11.13,-14.04 -2.77,-5.34 -4.16,-11.58 -4.16,-18.72 0,-13.45 4.56,-24.02 13.68,-31.72 9.12,-7.7 21.72,-11.55 37.81,-11.55 7.9,0 15.44,0.94 22.62,2.81 7.18,1.87 14.68,4.51 22.52,7.9l-10.4 25.07c-8.11,-3.33 -14.82,-5.65 -20.13,-6.97 -5.3,-1.32 -10.52,-1.98 -15.65,-1.98 -6.1,0 -10.78,1.42 -14.04,4.26 -3.26,2.84 -4.89,6.55 -4.89,11.13 0,2.84 0.66,5.32 1.98,7.44 1.32,2.12 3.41,4.16 6.29,6.14 2.88,1.98 9.69,5.53 20.44,10.66 14.22,6.8 23.96,13.61 29.23,20.44 5.27,6.83 7.91,15.2 7.91,25.12z"/>
   <polygon class="fil4" points="522.15,464.97 610.2,627.54 434.1,627.54 "/>
   <path class="fil0" d="M496.68 633.21l0 2.02 -4.03 0 0 13.11 -2.48 0 0 -13.11 -4.05 0 0 -2.02 10.56 0zm11.62 12.04l-6.33 0 -1.09 3.09 -2.59 0 5.42 -15.15 2.87 0 5.42 15.15 -2.61 0 -1.09 -3.09zm-0.7 -2.02l-2.46 -7.03 -2.48 7.03 4.94 0z"/>
   <polygon class="fil0" points="530.29,633.21 530.29,648.34 527.81,648.34 527.81,637.98 523.19,648.34 521.47,648.34 516.84,637.98 516.84,648.34 514.35,648.34 514.35,633.21 517.03,633.21 522.34,645.07 527.63,633.21 "/>
   <polygon class="fil0" points="536.04,635.21 536.04,639.65 541.26,639.65 541.26,641.68 536.04,641.68 536.04,646.31 541.91,646.31 541.91,648.34 533.56,648.34 533.56,633.19 541.91,633.19 541.91,635.21 "/>
   <polygon class="fil0" points="557.39,648.34 554.91,648.34 547.44,637.04 547.44,648.34 544.96,648.34 544.96,633.19 547.44,633.19 554.91,644.46 554.91,633.19 557.39,633.19 "/>
   <polygon class="fil0" points="450.66,572.86 453.15,568.4 454.9,569.38 451.19,576 437.99,568.61 439.2,566.44 "/>
   <polygon class="fil0" points="443.93,558.01 457.13,565.41 455.91,567.57 442.71,560.18 "/>
   <path class="fil0" d="M460.55 550.96c0.67,0.37 1.18,0.89 1.52,1.54 0.34,0.65 0.49,1.39 0.43,2.22 -0.06,0.83 -0.33,1.69 -0.82,2.56l-2.96 5.28 -13.2 -7.4 2.82 -5.03c0.5,-0.9 1.09,-1.59 1.75,-2.06 0.67,-0.48 1.35,-0.73 2.04,-0.78 0.7,-0.04 1.36,0.11 2,0.47 0.76,0.42 1.28,0.98 1.56,1.67 0.28,0.69 0.35,1.44 0.21,2.26 0.52,-0.64 1.23,-1.03 2.13,-1.18 0.9,-0.15 1.74,0 2.52,0.44zm-8.27 5.15l1.5 -2.68c0.4,-0.71 0.55,-1.35 0.45,-1.93 -0.1,-0.58 -0.45,-1.04 -1.06,-1.38 -0.6,-0.33 -1.17,-0.39 -1.73,-0.18 -0.56,0.21 -1.04,0.67 -1.43,1.38l-1.5 2.68 3.78 2.12zm6.83 -3.11c-0.65,-0.36 -1.28,-0.43 -1.91,-0.2 -0.63,0.23 -1.15,0.71 -1.56,1.45l-1.6 2.85 4.12 2.31 1.64 -2.93c0.41,-0.73 0.56,-1.41 0.44,-2.03 -0.12,-0.62 -0.5,-1.1 -1.13,-1.46z"/>
   <polygon class="fil0" points="455.19,542.01 459.06,544.18 461.61,539.62 463.38,540.61 460.83,545.17 464.87,547.44 467.74,542.31 469.51,543.3 465.43,550.59 452.21,543.19 456.29,535.89 458.06,536.88 "/>
   <path class="fil0" d="M474.84 533.78l-6.98 0.08 -0.92 1.65 5.28 2.96 -1.21 2.17 -13.2 -7.4 2.55 -4.56c0.57,-1.01 1.23,-1.77 1.97,-2.28 0.75,-0.5 1.52,-0.76 2.31,-0.78 0.79,-0.01 1.55,0.18 2.29,0.59 0.86,0.48 1.5,1.17 1.93,2.06 0.42,0.89 0.47,1.93 0.14,3.11l7.3 -0.2 -1.45 2.58zm-9.64 0.77l1.34 -2.39c0.45,-0.81 0.59,-1.53 0.42,-2.17 -0.18,-0.64 -0.61,-1.15 -1.29,-1.53 -0.68,-0.38 -1.33,-0.48 -1.95,-0.29 -0.61,0.19 -1.15,0.7 -1.61,1.52l-1.34 2.39 4.42 2.48z"/>
   <path class="fil0" d="M469.3 512.71l1.77 0.99 -1.97 3.51 11.43 6.41 -1.21 2.16 -11.43 -6.41 -1.98 3.53 -1.77 -0.99 5.16 -9.21zm16.19 -4.26l-3.1 5.53 2.16 2.46 -1.27 2.26 -10.57 -12.14 1.4 -2.51 15.87 2.68 -1.28 2.28 -3.23 -0.56zm-2.11 -0.38l-7.34 -1.29 4.92 5.6 2.41 -4.31z"/>
   <path class="fil0" d="M487.31 502.97l1.3 -2.32c0.6,0.27 1.19,0.31 1.78,0.11 0.59,-0.19 1.09,-0.65 1.49,-1.37 0.42,-0.75 0.56,-1.43 0.44,-2.05 -0.13,-0.62 -0.48,-1.09 -1.05,-1.41 -0.44,-0.25 -0.88,-0.32 -1.3,-0.22 -0.42,0.1 -0.82,0.31 -1.19,0.61 -0.37,0.3 -0.83,0.74 -1.39,1.33 -0.71,0.73 -1.33,1.3 -1.87,1.71 -0.54,0.41 -1.16,0.66 -1.86,0.77 -0.71,0.1 -1.47,-0.08 -2.29,-0.54 -0.76,-0.42 -1.32,-0.99 -1.68,-1.69 -0.36,-0.7 -0.49,-1.48 -0.42,-2.33 0.08,-0.85 0.37,-1.73 0.87,-2.63 0.72,-1.28 1.62,-2.15 2.72,-2.61 1.1,-0.46 2.23,-0.42 3.39,0.12l-1.34 2.39c-0.5,-0.23 -1.04,-0.23 -1.62,-0.01 -0.58,0.23 -1.05,0.68 -1.44,1.36 -0.35,0.62 -0.47,1.22 -0.38,1.79 0.1,0.57 0.44,1.02 1.04,1.35 0.41,0.23 0.81,0.29 1.21,0.19 0.4,-0.1 0.78,-0.3 1.14,-0.59 0.37,-0.29 0.82,-0.72 1.37,-1.28 0.73,-0.74 1.37,-1.32 1.92,-1.73 0.55,-0.42 1.18,-0.68 1.9,-0.78 0.72,-0.1 1.49,0.08 2.33,0.54 0.67,0.38 1.2,0.91 1.6,1.6 0.39,0.7 0.58,1.49 0.55,2.38 -0.03,0.89 -0.3,1.81 -0.83,2.74l-6.4 2.55z"/>
   <path class="fil0" d="M567.27 523.16l-3.07 -5.54 -3.23 0.55 -1.26 -2.27 15.88 -2.61 1.39 2.51 -10.62 12.09 -1.27 -2.28 2.17 -2.45zm1.43 -1.59l4.96 -5.56 -7.35 1.24 2.4 4.32z"/>
   <polygon class="fil0" points="578.08,521.95 574.2,524.1 576.73,528.67 574.96,529.66 572.42,525.09 568.37,527.34 571.22,532.48 569.45,533.46 565.39,526.15 578.65,518.8 582.7,526.11 580.93,527.09 "/>
   <path class="fil0" d="M547.78 500.05l1.22 -3.72c-0.48,-0.48 -0.91,-1.06 -1.29,-1.75 -0.68,-1.23 -1.02,-2.52 -1.02,-3.88 0,-1.35 0.36,-2.62 1.06,-3.8 0.7,-1.18 1.7,-2.12 2.99,-2.84 1.29,-0.72 2.62,-1.06 3.99,-1.03 1.36,0.03 2.62,0.41 3.77,1.12 1.15,0.71 2.07,1.69 2.75,2.92 0.69,1.24 1.03,2.54 1.03,3.9 -0,1.35 -0.35,2.62 -1.05,3.78 -0.7,1.17 -1.69,2.11 -2.99,2.83 -1.22,0.67 -2.46,1.02 -3.74,1.04 -1.28,0.02 -2.47,-0.27 -3.58,-0.87l-1.61 5.05 -1.53 -2.76zm1.82 -6.51c0.49,0.88 1.12,1.55 1.9,2.01 0.78,0.46 1.65,0.68 2.61,0.66 0.96,-0.02 1.92,-0.31 2.9,-0.85 0.98,-0.54 1.73,-1.21 2.25,-2 0.52,-0.8 0.79,-1.65 0.8,-2.55 0.01,-0.9 -0.22,-1.79 -0.71,-2.67 -0.49,-0.88 -1.12,-1.55 -1.89,-2.01 -0.77,-0.47 -1.64,-0.69 -2.59,-0.67 -0.95,0.02 -1.91,0.3 -2.89,0.84l-2.38 7.24z"/>
   <path class="fil0" d="M567.24 498.28l-8.43 4.68c-1,0.56 -1.61,1.24 -1.83,2.05 -0.22,0.81 -0.06,1.68 0.46,2.62 0.53,0.95 1.19,1.55 1.99,1.8 0.8,0.24 1.7,0.09 2.7,-0.47l8.43 -4.68 1.2 2.17 -8.4 4.66c-1.08,0.6 -2.12,0.87 -3.13,0.82 -1.01,-0.05 -1.92,-0.37 -2.72,-0.96 -0.8,-0.58 -1.47,-1.35 -2,-2.3 -0.53,-0.95 -0.82,-1.92 -0.89,-2.91 -0.06,-0.99 0.15,-1.91 0.65,-2.79 0.49,-0.87 1.28,-1.61 2.36,-2.21l8.4 -4.66 1.2 2.17z"/>
   <path class="fil0" d="M576.86 539.04l1.29 2.32c-0.54,0.37 -0.89,0.85 -1.04,1.46 -0.15,0.61 -0.02,1.27 0.38,1.99 0.41,0.75 0.92,1.23 1.51,1.45 0.59,0.22 1.18,0.17 1.75,-0.15 0.44,-0.25 0.73,-0.58 0.87,-0.99 0.13,-0.41 0.17,-0.86 0.11,-1.33 -0.06,-0.47 -0.19,-1.1 -0.4,-1.88 -0.25,-0.99 -0.41,-1.82 -0.47,-2.49 -0.06,-0.67 0.05,-1.33 0.33,-1.99 0.28,-0.66 0.84,-1.21 1.66,-1.67 0.76,-0.42 1.53,-0.6 2.32,-0.54 0.78,0.06 1.52,0.36 2.2,0.87 0.68,0.52 1.28,1.23 1.78,2.13 0.71,1.28 0.97,2.51 0.79,3.68 -0.19,1.17 -0.81,2.12 -1.88,2.82l-1.33 -2.4c0.46,-0.31 0.75,-0.76 0.86,-1.37 0.11,-0.61 -0.03,-1.26 -0.41,-1.94 -0.35,-0.62 -0.79,-1.04 -1.32,-1.26 -0.54,-0.22 -1.1,-0.16 -1.7,0.17 -0.41,0.23 -0.67,0.53 -0.79,0.93 -0.12,0.39 -0.15,0.82 -0.1,1.29 0.06,0.47 0.18,1.08 0.37,1.83 0.24,1.01 0.4,1.86 0.46,2.54 0.06,0.69 -0.05,1.36 -0.33,2.03 -0.29,0.67 -0.85,1.23 -1.69,1.69 -0.67,0.37 -1.41,0.54 -2.21,0.51 -0.8,-0.03 -1.57,-0.29 -2.31,-0.78 -0.75,-0.49 -1.38,-1.21 -1.9,-2.15l1.19 -6.78z"/>
   <polygon class="fil0" points="592.44,548.69 588.56,550.85 591.09,555.42 589.32,556.4 586.79,551.83 582.74,554.08 585.58,559.22 583.82,560.2 579.76,552.89 593.01,545.54 597.06,552.85 595.3,553.83 "/>
   <path class="fil0" d="M589.11 569.74l3.6 -5.98 -0.92 -1.66 -5.29 2.94 -1.2 -2.17 13.23 -7.34 2.53 4.57c0.56,1.01 0.86,1.97 0.9,2.88 0.04,0.9 -0.15,1.69 -0.55,2.37 -0.4,0.68 -0.97,1.22 -1.71,1.63 -0.86,0.48 -1.79,0.66 -2.77,0.55 -0.98,-0.11 -1.89,-0.62 -2.72,-1.52l-3.67 6.32 -1.43 -2.59zm4.42 -8.6l1.33 2.4c0.45,0.81 0.99,1.31 1.63,1.5 0.63,0.19 1.3,0.09 1.98,-0.29 0.69,-0.38 1.11,-0.88 1.27,-1.5 0.16,-0.62 0.01,-1.34 -0.44,-2.17l-1.33 -2.4 -4.44 2.46z"/>
   <path class="fil0" d="M599.09 581.37l-3.07 -5.54 -3.23 0.55 -1.26 -2.27 15.88 -2.61 1.39 2.51 -10.62 12.09 -1.27 -2.28 2.18 -2.45zm1.43 -1.59l4.96 -5.56 -7.35 1.24 2.4 4.32z"/>
   <path class="fil0" d="M24.92 690.81c-4.88,0 -8.95,-1.57 -12.22,-4.72 -3.23,-3.17 -4.85,-7.26 -4.85,-12.26 0,-5.03 1.65,-9.16 4.94,-12.4 3.29,-3.26 7.35,-4.9 12.17,-4.9 2.93,0 5.64,0.57 8.11,1.71 2.47,1.14 4.5,2.7 6.09,4.67l-5.84 6.33c-2.4,-2.51 -4.97,-3.77 -7.72,-3.77 -2.24,0 -4.16,0.79 -5.75,2.38 -1.53,1.56 -2.29,3.52 -2.29,5.88 0,2.31 0.76,4.25 2.29,5.84 1.56,1.56 3.46,2.33 5.7,2.33 3,0 5.63,-1.32 7.91,-3.95l6.15 5.97c-1.44,1.98 -3.49,3.62 -6.15,4.94 -2.58,1.29 -5.42,1.93 -8.53,1.93z"/>
   <path class="fil0" d="M56.89 690.9c-3.59,0 -6.8,-1 -9.61,-3.01 -3,-2.3 -4.49,-5.93 -4.49,-10.87l0 -19.9 9.43 0 0 19.9c0,1.59 0.43,2.8 1.28,3.64 0.85,0.84 1.98,1.26 3.39,1.26 1.38,0 2.5,-0.42 3.37,-1.26 0.87,-0.84 1.3,-2.05 1.3,-3.64l0 -19.9 9.43 0 0 19.9c0,2.49 -0.41,4.66 -1.21,6.51 -0.81,1.86 -1.9,3.3 -3.28,4.33 -1.38,1.03 -2.87,1.8 -4.47,2.29 -1.6,0.49 -3.32,0.74 -5.14,0.74z"/>
   <path class="fil0" d="M104.86 690.32l-10.64 0 -5.26 -10.38 -2.87 0 0 10.38 -9.34 0 0 -33.19 14.46 0c4.16,0 7.29,1.05 9.39,3.14 2.13,2.12 3.19,4.84 3.19,8.13 0,2.16 -0.48,4.11 -1.44,5.86 -0.96,1.75 -2.38,3.11 -4.27,4.07l6.78 11.99zm-13.74 -24.7l-5.03 0 0 6.24 4.81 0c1.05,0 1.86,-0.29 2.42,-0.88 0.57,-0.58 0.85,-1.34 0.85,-2.27 0,-0.93 -0.27,-1.68 -0.81,-2.25 -0.54,-0.57 -1.29,-0.85 -2.25,-0.85z"/>
   <path class="fil0" d="M120.35 690.9c-5.57,0 -10.27,-1.83 -14.1,-5.48l4.49 -6.96c3.11,2.58 6.36,3.86 9.75,3.86 2.13,0 3.19,-0.58 3.19,-1.75 0,-0.78 -0.84,-1.47 -2.51,-2.07 -0.72,-0.24 -1.41,-0.45 -2.07,-0.63 -2.34,-0.72 -4.06,-1.35 -5.16,-1.89 -3.71,-1.83 -5.57,-4.75 -5.57,-8.76 0,-3.05 1.21,-5.58 3.64,-7.59 2.4,-2 5.49,-3.01 9.3,-3.01 4.55,0 8.65,1.35 12.31,4.04l-4.13 7.23c-0.93,-0.69 -2.22,-1.29 -3.86,-1.8 -1.62,-0.51 -3.01,-0.76 -4.18,-0.76 -1.02,0 -1.79,0.15 -2.31,0.45 -0.52,0.3 -0.79,0.69 -0.79,1.17 0,0.51 0.21,0.91 0.63,1.19 0.42,0.28 1.08,0.56 1.98,0.83 3.14,0.96 5.27,1.66 6.38,2.11 4.49,1.74 6.74,4.72 6.74,8.94 0,3.14 -1.24,5.75 -3.73,7.81 -2.49,2.04 -5.81,3.05 -9.97,3.05z"/>
   <path class="fil0" d="M141.82 685.92c-3.32,-3.32 -4.98,-7.4 -4.98,-12.22 0,-4.85 1.66,-8.91 4.98,-12.17 3.32,-3.32 7.47,-4.99 12.44,-4.99 4.97,0 9.12,1.66 12.44,4.99 3.32,3.26 4.99,7.33 4.99,12.22 0,4.82 -1.66,8.88 -4.99,12.17 -3.29,3.29 -7.42,4.94 -12.4,4.94 -4.97,0 -9.13,-1.65 -12.49,-4.94zm12.44 -4.31c2.19,0 4.03,-0.75 5.52,-2.25 1.5,-1.56 2.23,-3.44 2.2,-5.66 -0.03,-2.3 -0.79,-4.21 -2.29,-5.7 -1.47,-1.47 -3.28,-2.2 -5.43,-2.2 -2.16,0 -3.98,0.75 -5.48,2.25 -1.5,1.5 -2.25,3.38 -2.25,5.66 0,2.28 0.75,4.16 2.25,5.66 1.5,1.5 3.32,2.25 5.48,2.25z"/>
   <path class="fil0" d="M187.26 657.13l13.74 0c4.4,0 7.65,1.14 9.75,3.41 2.1,2.21 3.14,5.03 3.14,8.44 0,3.41 -1.09,6.17 -3.28,8.26 -2.19,2.13 -5.6,3.19 -10.24,3.19l-3.77 0 0 9.88 -9.34 0 0 -33.19zm9.34 14.96l4.22 0c1.08,0 1.92,-0.3 2.54,-0.9 0.61,-0.6 0.92,-1.36 0.92,-2.29 0,-0.93 -0.31,-1.7 -0.94,-2.31 -0.63,-0.61 -1.44,-0.92 -2.42,-0.92l-4.31 0 0 6.42z"/>
   <path class="fil0" d="M247.04 690.32l-9.57 0 -1.57 -5.44 -10.01 0 -1.66 5.44 -9.57 0 11.81 -33.19 9.12 0 11.45 33.19zm-18.91 -13.47l5.66 0 -2.79 -9.16 -2.87 9.16z"/>
   <path class="fil0" d="M278.3 690.32l-10.64 0 -5.26 -10.38 -2.87 0 0 10.38 -9.34 0 0 -33.19 14.46 0c4.16,0 7.29,1.05 9.39,3.14 2.13,2.12 3.19,4.84 3.19,8.13 0,2.16 -0.48,4.11 -1.44,5.86 -0.96,1.75 -2.38,3.11 -4.27,4.07l6.78 11.99zm-13.74 -24.7l-5.03 0 0 6.24 4.81 0c1.05,0 1.86,-0.29 2.42,-0.88 0.57,-0.58 0.85,-1.34 0.85,-2.27 0,-0.93 -0.27,-1.68 -0.81,-2.25 -0.54,-0.57 -1.29,-0.85 -2.25,-0.85z"/>
   <path class="fil0" d="M311.67 690.32l-9.57 0 -1.57 -5.44 -10.01 0 -1.66 5.44 -9.57 0 11.81 -33.19 9.12 0 11.45 33.19zm-18.91 -13.47l5.66 0 -2.78 -9.16 -2.88 9.16z"/>
   <polygon class="fil0" points="340.27,676.98 346.78,657.13 357.61,657.13 344.63,690.32 335.92,690.32 322.76,657.13 333.63,657.13 "/>
   <polygon class="fil0" points="360.66,690.32 360.66,657.13 370.09,657.13 370.09,690.32 "/>
   <path class="fil0" d="M387.65 690.9c-5.57,0 -10.27,-1.83 -14.1,-5.48l4.49 -6.96c3.11,2.58 6.36,3.86 9.75,3.86 2.12,0 3.19,-0.58 3.19,-1.75 0,-0.78 -0.84,-1.47 -2.51,-2.07 -0.72,-0.24 -1.41,-0.45 -2.07,-0.63 -2.34,-0.72 -4.06,-1.35 -5.16,-1.89 -3.71,-1.83 -5.57,-4.75 -5.57,-8.76 0,-3.05 1.21,-5.58 3.64,-7.59 2.4,-2 5.49,-3.01 9.3,-3.01 4.55,0 8.65,1.35 12.31,4.04l-4.13 7.23c-0.93,-0.69 -2.22,-1.29 -3.86,-1.8 -1.62,-0.51 -3.01,-0.76 -4.18,-0.76 -1.02,0 -1.79,0.15 -2.31,0.45 -0.52,0.3 -0.79,0.69 -0.79,1.17 0,0.51 0.21,0.91 0.63,1.19 0.42,0.28 1.08,0.56 1.98,0.83 3.14,0.96 5.27,1.66 6.38,2.11 4.49,1.74 6.74,4.72 6.74,8.94 0,3.14 -1.24,5.75 -3.73,7.81 -2.49,2.04 -5.81,3.05 -9.97,3.05z"/>
   <polygon class="fil0" points="412.4,690.32 412.4,666.11 403.32,666.11 403.32,657.13 430.86,657.13 430.86,666.11 421.83,666.11 421.83,690.32 "/>
   <path class="fil0" d="M437.91 685.92c-3.32,-3.32 -4.99,-7.4 -4.99,-12.22 0,-4.85 1.66,-8.91 4.99,-12.17 3.32,-3.32 7.47,-4.99 12.44,-4.99 4.97,0 9.12,1.66 12.44,4.99 3.32,3.26 4.98,7.33 4.98,12.22 0,4.82 -1.66,8.88 -4.98,12.17 -3.29,3.29 -7.43,4.94 -12.4,4.94 -4.97,0 -9.13,-1.65 -12.49,-4.94zm12.44 -4.31c2.19,0 4.03,-0.75 5.52,-2.25 1.5,-1.56 2.23,-3.44 2.2,-5.66 -0.03,-2.3 -0.79,-4.21 -2.29,-5.7 -1.47,-1.47 -3.28,-2.2 -5.43,-2.2 -2.16,0 -3.98,0.75 -5.48,2.25 -1.5,1.5 -2.25,3.38 -2.25,5.66 0,2.28 0.75,4.16 2.25,5.66 1.5,1.5 3.32,2.25 5.48,2.25z"/>
   <path class="fil0" d="M500.38 690.32l-10.64 0 -5.26 -10.38 -2.87 0 0 10.38 -9.34 0 0 -33.19 14.46 0c4.16,0 7.29,1.05 9.39,3.14 2.13,2.12 3.19,4.84 3.19,8.13 0,2.16 -0.48,4.11 -1.44,5.86 -0.96,1.75 -2.38,3.11 -4.27,4.07l6.78 11.99zm-13.74 -24.7l-5.03 0 0 6.24 4.8 0c1.05,0 1.86,-0.29 2.43,-0.88 0.57,-0.58 0.85,-1.34 0.85,-2.27 0,-0.93 -0.27,-1.68 -0.81,-2.25 -0.54,-0.57 -1.29,-0.85 -2.25,-0.85z"/>
   <polygon class="fil0" points="504.42,690.32 504.42,657.13 513.85,657.13 513.85,690.32 "/>
   <path class="fil0" d="M549.28 690.32l-9.57 0 -1.57 -5.44 -10.01 0 -1.66 5.44 -9.57 0 11.81 -33.19 9.12 0 11.45 33.19zm-18.91 -13.47l5.66 0 -2.78 -9.16 -2.88 9.16z"/>
   <path class="fil0" d="M566.17 690.32l-13.74 0 0 -33.19 13.83 0c5.33,0 9.45,1.48 12.35,4.45 2.96,2.96 4.45,7.02 4.45,12.17 0,5.12 -1.5,9.16 -4.49,12.13 -2.96,2.96 -7.1,4.45 -12.4,4.45zm-4.4 -24.21l0 15.23 4.85 0c2.19,0 3.85,-0.75 4.98,-2.25 1.17,-1.5 1.75,-3.29 1.75,-5.39 0,-2.1 -0.58,-3.88 -1.75,-5.34 -1.14,-1.5 -2.8,-2.25 -4.98,-2.25l-4.85 0z"/>
   <path class="fil0" d="M591.05 685.92c-3.32,-3.32 -4.99,-7.4 -4.99,-12.22 0,-4.85 1.66,-8.91 4.99,-12.17 3.32,-3.32 7.47,-4.99 12.44,-4.99 4.97,0 9.12,1.66 12.44,4.99 3.32,3.26 4.98,7.33 4.98,12.22 0,4.82 -1.66,8.88 -4.98,12.17 -3.29,3.29 -7.43,4.94 -12.4,4.94 -4.97,0 -9.13,-1.65 -12.49,-4.94zm12.44 -4.31c2.19,0 4.03,-0.75 5.52,-2.25 1.5,-1.56 2.23,-3.44 2.2,-5.66 -0.03,-2.3 -0.79,-4.21 -2.29,-5.7 -1.47,-1.47 -3.28,-2.2 -5.43,-2.2 -2.16,0 -3.98,0.75 -5.48,2.25 -1.5,1.5 -2.25,3.38 -2.25,5.66 0,2.28 0.75,4.16 2.25,5.66 1.5,1.5 3.32,2.25 5.48,2.25z"/>
   <path class="fil0" d="M653.52 690.32l-10.64 0 -5.26 -10.38 -2.88 0 0 10.38 -9.34 0 0 -33.19 14.46 0c4.16,0 7.29,1.05 9.39,3.14 2.12,2.12 3.19,4.84 3.19,8.13 0,2.16 -0.48,4.11 -1.44,5.86 -0.96,1.75 -2.38,3.11 -4.27,4.07l6.78 11.99zm-13.74 -24.7l-5.03 0 0 6.24 4.81 0c1.05,0 1.86,-0.29 2.43,-0.88 0.57,-0.58 0.85,-1.34 0.85,-2.27 0,-0.93 -0.27,-1.68 -0.81,-2.25 -0.54,-0.57 -1.29,-0.85 -2.25,-0.85z"/>
   <polygon class="fil0" points="682.3,690.32 657.56,690.32 657.56,657.13 682.39,657.13 682.39,665.75 666.99,665.75 666.99,669.43 681.23,669.43 681.23,678.01 666.99,678.01 666.99,681.69 682.3,681.69 "/>
   <path class="fil0" d="M699.15 690.9c-5.57,0 -10.27,-1.83 -14.1,-5.48l4.49 -6.96c3.11,2.58 6.36,3.86 9.75,3.86 2.13,0 3.19,-0.58 3.19,-1.75 0,-0.78 -0.84,-1.47 -2.51,-2.07 -0.72,-0.24 -1.41,-0.45 -2.07,-0.63 -2.33,-0.72 -4.06,-1.35 -5.16,-1.89 -3.71,-1.83 -5.57,-4.75 -5.57,-8.76 0,-3.05 1.21,-5.58 3.64,-7.59 2.4,-2 5.49,-3.01 9.3,-3.01 4.55,0 8.65,1.35 12.31,4.04l-4.13 7.23c-0.93,-0.69 -2.21,-1.29 -3.86,-1.8 -1.62,-0.51 -3.01,-0.76 -4.18,-0.76 -1.02,0 -1.79,0.15 -2.31,0.45 -0.52,0.3 -0.79,0.69 -0.79,1.17 0,0.51 0.21,0.91 0.63,1.19 0.42,0.28 1.08,0.56 1.98,0.83 3.14,0.96 5.27,1.66 6.38,2.11 4.49,1.74 6.74,4.72 6.74,8.94 0,3.14 -1.24,5.75 -3.73,7.81 -2.49,2.04 -5.81,3.05 -9.97,3.05z"/>
  </g>
 </g>
</svg>
