<?xml version="1.0" encoding="UTF-8"?>
<!DOCTYPE svg PUBLIC "-//W3C//DTD SVG 1.1//EN" "http://www.w3.org/Graphics/SVG/1.1/DTD/svg11.dtd">
<!-- Creator: CorelDRAW -->
<svg xmlns="http://www.w3.org/2000/svg" xml:space="preserve" width="42.3333mm" height="42.3333mm" version="1.1" style="shape-rendering:geometricPrecision; text-rendering:geometricPrecision; image-rendering:optimizeQuality; fill-rule:evenodd; clip-rule:evenodd"
viewBox="0 0 1253.02 1253.02"
 xmlns:xlink="http://www.w3.org/1999/xlink"
 xmlns:xodm="http://www.corel.com/coreldraw/odm/2003">
 <defs>
  <style type="text/css">
   <![CDATA[
    .fil0 {fill:#D7A84B}
    .fil1 {fill:#333333;fill-rule:nonzero}
    .fil2 {fill:white;fill-rule:nonzero}
   ]]>
  </style>
 </defs>
 <g id="Layer_x0020_1">
  <metadata id="CorelCorpID_0Corel-Layer"/>
  <path class="fil0" d="M689.89 30.74l34.53 43.78c22.48,28.5 59.56,38.44 93.28,24.99l51.8 -20.65c23.74,-9.47 48.13,-7.7 70.26,5.08 22.13,12.78 35.85,33.01 39.53,58.31l8.01 55.18c5.22,35.92 32.36,63.07 68.29,68.29l55.18 8.01c25.3,3.68 45.53,17.39 58.31,39.53 12.78,22.14 14.54,46.52 5.07,70.26l-20.65 51.8c-13.45,33.72 -3.51,70.8 25,93.28l43.78 34.53c20.07,15.83 30.74,37.82 30.74,63.38 0,25.56 -10.67,47.56 -30.74,63.38l-43.78 34.53c-28.5,22.48 -38.44,59.56 -24.99,93.28l20.65 51.8c9.47,23.74 7.7,48.13 -5.08,70.26 -12.78,22.13 -33.01,35.85 -58.31,39.53l-55.18 8.01c-35.92,5.22 -63.07,32.36 -68.29,68.29l-8.01 55.18c-3.68,25.3 -17.39,45.53 -39.53,58.31 -22.14,12.78 -46.52,14.54 -70.26,5.07l-51.8 -20.65c-33.72,-13.45 -70.8,-3.51 -93.28,25l-34.53 43.78c-15.83,20.07 -37.82,30.74 -63.38,30.74 -25.56,0 -47.56,-10.67 -63.38,-30.74l-34.53 -43.78c-22.48,-28.5 -59.56,-38.44 -93.28,-24.99l-51.8 20.65c-23.74,9.47 -48.13,7.7 -70.26,-5.08 -22.13,-12.78 -35.85,-33.01 -39.53,-58.31l-8.01 -55.18c-5.22,-35.92 -32.36,-63.07 -68.29,-68.29l-55.18 -8.01c-25.3,-3.68 -45.53,-17.39 -58.31,-39.53 -12.78,-22.14 -14.54,-46.52 -5.07,-70.26l20.65 -51.8c13.45,-33.72 3.51,-70.8 -25,-93.28l-43.78 -34.53c-20.07,-15.83 -30.74,-37.82 -30.74,-63.38 0,-25.56 10.66,-47.56 30.74,-63.38l43.78 -34.53c28.5,-22.48 38.44,-59.56 24.99,-93.28l-20.65 -51.8c-9.47,-23.74 -7.7,-48.13 5.08,-70.26 12.78,-22.13 33.01,-35.85 58.31,-39.53l55.18 -8.01c35.92,-5.22 63.07,-32.36 68.29,-68.29l8.01 -55.18c3.68,-25.3 17.39,-45.53 39.53,-58.31 22.14,-12.78 46.52,-14.54 70.26,-5.07l51.8 20.65c33.72,13.45 70.8,3.51 93.28,-25l34.53 -43.78c15.83,-20.07 37.82,-30.74 63.38,-30.74 25.56,0 47.56,10.66 63.38,30.74z"/>
  <path class="fil1" d="M393.6 430.81c-0.74,0 -1.24,-0.33 -1.49,-0.99l-4.46 -14.5c-0.08,-0.25 -0.25,-0.37 -0.49,-0.37l-34.82 0c-0.25,0 -0.41,0.12 -0.5,0.37l-4.46 14.5c-0.25,0.66 -0.74,0.99 -1.49,0.99l-10.04 0c-0.91,0 -1.24,-0.46 -0.99,-1.36l27.14 -84.39c0.25,-0.66 0.74,-0.99 1.49,-0.99l12.39 0c0.74,0 1.24,0.33 1.49,0.99l27.39 84.39 0.12 0.5c0,0.58 -0.37,0.87 -1.12,0.87l-10.16 0zm-38.66 -25.9c-0.08,0.17 -0.06,0.31 0.06,0.44 0.12,0.12 0.27,0.18 0.43,0.18l28.5 0c0.16,0 0.31,-0.06 0.43,-0.18 0.12,-0.12 0.15,-0.27 0.06,-0.44l-14.37 -45.97c-0.08,-0.17 -0.21,-0.25 -0.37,-0.25 -0.17,0 -0.29,0.08 -0.37,0.25l-14.37 45.97z"/>
  <path id="_1" class="fil1" d="M455.07 368.98c0,-0.83 0.41,-1.24 1.24,-1.24l9.29 0c0.83,0 1.24,0.41 1.24,1.24l0 60.6c0,0.83 -0.41,1.24 -1.24,1.24l-9.29 0c-0.83,0 -1.24,-0.41 -1.24,-1.24l0 -4.58c0,-0.17 -0.06,-0.27 -0.19,-0.31 -0.12,-0.04 -0.27,0.02 -0.43,0.18 -3.31,4.55 -8.39,6.82 -15.24,6.82 -4.05,0 -7.78,-0.78 -11.22,-2.35 -3.43,-1.57 -6.17,-3.88 -8.24,-6.94 -2.07,-3.06 -3.1,-6.78 -3.1,-11.15l0 -42.26c0,-0.83 0.41,-1.24 1.24,-1.24l9.29 0c0.83,0 1.24,0.41 1.24,1.24l0 38.54c0,4.3 1.14,7.68 3.41,10.16 2.27,2.48 5.47,3.72 9.6,3.72 4.13,0 7.44,-1.26 9.91,-3.78 2.48,-2.52 3.72,-5.88 3.72,-10.1l0 -38.54z"/>
  <path id="_2" class="fil1" d="M515.3 376.29c0,0.83 -0.41,1.24 -1.24,1.24l-13.38 0c-0.33,0 -0.5,0.16 -0.5,0.49l0 32.84c0,3.47 0.78,5.97 2.36,7.49 1.57,1.53 4,2.29 7.31,2.29l3.59 0c0.83,0 1.24,0.41 1.24,1.24l0 7.68c0,0.83 -0.41,1.24 -1.24,1.24 -2.64,0.17 -4.54,0.25 -5.7,0.25 -6.28,0 -11.01,-1.14 -14.19,-3.41 -3.18,-2.27 -4.77,-6.46 -4.77,-12.58l0 -37.05c0,-0.33 -0.17,-0.49 -0.5,-0.49l-7.56 0c-0.83,0 -1.24,-0.41 -1.24,-1.24l0 -7.31c0,-0.83 0.41,-1.24 1.24,-1.24l7.56 0c0.33,0 0.5,-0.17 0.5,-0.49l0 -14.62c0,-0.83 0.41,-1.24 1.24,-1.24l8.92 0c0.83,0 1.24,0.41 1.24,1.24l0 14.62c0,0.33 0.17,0.49 0.5,0.49l13.38 0c0.83,0 1.24,0.41 1.24,1.24l0 7.31z"/>
  <path id="_3" class="fil1" d="M554.21 431.8c-6.12,0 -11.44,-1.55 -15.99,-4.65 -4.54,-3.1 -7.73,-7.41 -9.54,-12.95 -1.49,-4.46 -2.23,-9.5 -2.23,-15.12 0,-5.86 0.7,-10.82 2.1,-14.87 1.82,-5.45 5,-9.73 9.54,-12.83 4.54,-3.1 9.95,-4.65 16.24,-4.65 5.95,0 11.13,1.55 15.55,4.65 4.42,3.1 7.58,7.33 9.48,12.7 1.49,4.21 2.23,9.17 2.23,14.87 0,5.78 -0.74,10.87 -2.23,15.24 -1.82,5.54 -4.96,9.85 -9.42,12.95 -4.46,3.1 -9.71,4.65 -15.74,4.65zm0 -10.29c3.3,0 6.2,-0.93 8.67,-2.79 2.48,-1.86 4.26,-4.48 5.33,-7.87 0.91,-3.14 1.36,-7.02 1.36,-11.65 0,-4.63 -0.41,-8.47 -1.24,-11.52 -1.07,-3.39 -2.85,-6.01 -5.33,-7.87 -2.48,-1.86 -5.49,-2.79 -9.05,-2.79 -3.39,0 -6.32,0.93 -8.8,2.79 -2.48,1.86 -4.26,4.48 -5.33,7.87 -0.91,2.89 -1.36,6.73 -1.36,11.52 0,4.79 0.45,8.68 1.36,11.65 0.99,3.39 2.75,6.01 5.27,7.87 2.52,1.86 5.56,2.79 9.11,2.79z"/>
  <path id="_4" class="fil1" d="M624.84 367.12c2.64,0 5.04,0.54 7.19,1.61 0.58,0.25 0.78,0.74 0.62,1.49l-1.98 9.29c-0.08,0.75 -0.58,0.99 -1.49,0.75 -1.4,-0.58 -3.06,-0.87 -4.96,-0.87l-1.73 0.12c-3.88,0.17 -7.08,1.51 -9.6,4.03 -2.52,2.52 -3.78,5.8 -3.78,9.85l0 36.18c0,0.83 -0.41,1.24 -1.24,1.24l-9.42 0c-0.83,0 -1.24,-0.41 -1.24,-1.24l0 -60.6c0,-0.83 0.41,-1.24 1.24,-1.24l9.42 0c0.83,0 1.24,0.41 1.24,1.24l0 6.57c0,0.25 0.06,0.39 0.19,0.43 0.12,0.04 0.22,-0.02 0.31,-0.19 3.72,-5.78 8.8,-8.67 15.24,-8.67z"/>
  <path id="_5" class="fil1" d="M650.37 357.82c-2.31,0 -4.21,-0.74 -5.7,-2.23 -1.49,-1.49 -2.23,-3.39 -2.23,-5.7 0,-2.31 0.75,-4.21 2.23,-5.7 1.49,-1.49 3.39,-2.23 5.7,-2.23 2.31,0 4.21,0.74 5.7,2.23 1.49,1.49 2.23,3.39 2.23,5.7 0,2.31 -0.74,4.21 -2.23,5.7 -1.49,1.49 -3.39,2.23 -5.7,2.23zm-4.96 72.86c-0.83,0 -1.24,-0.41 -1.24,-1.24l0 -60.47c0,-0.83 0.41,-1.24 1.24,-1.24l9.42 0c0.83,0 1.24,0.41 1.24,1.24l0 60.47c0,0.83 -0.41,1.24 -1.24,1.24l-9.42 0z"/>
  <path id="_6" class="fil1" d="M671.06 430.81c-0.83,0 -1.24,-0.41 -1.24,-1.24l0 -8.67c0,-0.58 0.17,-1.07 0.49,-1.49l32.84 -40.15c0.17,-0.17 0.21,-0.31 0.12,-0.44 -0.08,-0.12 -0.21,-0.19 -0.37,-0.19l-31.23 0c-0.83,0 -1.24,-0.41 -1.24,-1.24l0 -8.43c0,-0.83 0.41,-1.24 1.24,-1.24l44.74 0c0.83,0 1.24,0.41 1.24,1.24l0 8.8c0,0.58 -0.17,1.07 -0.49,1.49l-33.33 40.15c-0.17,0.17 -0.21,0.31 -0.12,0.44 0.08,0.12 0.21,0.19 0.37,0.19l32.46 0c0.83,0 1.24,0.41 1.24,1.24l0 8.3c0,0.83 -0.41,1.24 -1.24,1.24l-45.48 0z"/>
  <path id="_7" class="fil1" d="M753.72 366.74c5.04,0 9.44,0.89 13.2,2.66 3.76,1.78 6.65,4.26 8.68,7.44 2.02,3.18 3.04,6.8 3.04,10.85l0 41.88c0,0.83 -0.41,1.24 -1.24,1.24l-9.42 0c-0.83,0 -1.24,-0.41 -1.24,-1.24l0 -4.46c0,-0.41 -0.21,-0.49 -0.62,-0.25 -2.15,2.23 -4.77,3.95 -7.87,5.14 -3.1,1.2 -6.55,1.8 -10.35,1.8 -6.11,0 -11.17,-1.55 -15.18,-4.65 -4,-3.1 -6.01,-7.79 -6.01,-14.07 0,-6.44 2.25,-11.5 6.75,-15.18 4.5,-3.68 10.8,-5.51 18.9,-5.51l13.88 0c0.33,0 0.5,-0.17 0.5,-0.5l0 -3.34c0,-3.63 -1.05,-6.46 -3.16,-8.49 -2.11,-2.02 -5.31,-3.04 -9.6,-3.04 -3.47,0 -6.3,0.68 -8.49,2.05 -2.19,1.36 -3.53,3.2 -4.03,5.51 -0.25,0.83 -0.74,1.2 -1.49,1.12l-10.04 -1.36c-0.83,-0.17 -1.2,-0.49 -1.11,-0.99 0.66,-4.87 3.26,-8.86 7.81,-11.96 4.54,-3.1 10.24,-4.65 17.1,-4.65zm-3.22 55.02c4.38,0 8.18,-1.16 11.4,-3.47 3.22,-2.31 4.83,-5.25 4.83,-8.8l0 -7.31c0,-0.33 -0.17,-0.5 -0.5,-0.5l-11.65 0c-4.87,0 -8.76,0.95 -11.65,2.85 -2.89,1.9 -4.34,4.54 -4.34,7.93 0,3.06 1.1,5.37 3.28,6.94 2.19,1.57 5.06,2.36 8.61,2.36z"/>
  <path id="_8" class="fil1" d="M833.89 345.31c0,-0.83 0.41,-1.24 1.24,-1.24l9.42 0c0.83,0 1.24,0.41 1.24,1.24l0 84.27c0,0.83 -0.41,1.24 -1.24,1.24l-9.42 0c-0.83,0 -1.24,-0.41 -1.24,-1.24l0 -4.09c0,-0.17 -0.06,-0.29 -0.19,-0.37 -0.12,-0.08 -0.27,-0.04 -0.43,0.12 -1.82,2.07 -3.97,3.68 -6.44,4.83 -2.48,1.16 -5.17,1.73 -8.05,1.73 -5.95,0 -10.89,-1.47 -14.81,-4.4 -3.92,-2.93 -6.8,-7.09 -8.61,-12.46 -1.57,-4.38 -2.36,-9.66 -2.36,-15.86 0,-5.78 0.66,-10.78 1.98,-14.99 1.73,-5.46 4.58,-9.71 8.55,-12.77 3.97,-3.05 9.05,-4.58 15.24,-4.58 2.81,0 5.47,0.56 7.99,1.67 2.52,1.12 4.69,2.71 6.51,4.77 0.17,0.17 0.31,0.21 0.43,0.12 0.12,-0.08 0.19,-0.21 0.19,-0.37l0 -27.64zm-3.1 69.52c1.9,-3.47 2.85,-8.67 2.85,-15.61 0,-6.94 -1.03,-12.23 -3.1,-15.86 -2.4,-4.21 -5.91,-6.32 -10.53,-6.32 -4.95,0 -8.63,1.98 -11.03,5.95 -2.64,4.13 -3.97,9.58 -3.97,16.36 0,6.36 1.03,11.48 3.1,15.36 2.4,4.55 6.32,6.82 11.77,6.82 4.79,0 8.43,-2.23 10.91,-6.69z"/>
  <path id="_9" class="fil1" d="M886.31 366.74c5.04,0 9.44,0.89 13.2,2.66 3.76,1.78 6.65,4.26 8.68,7.44 2.02,3.18 3.04,6.8 3.04,10.85l0 41.88c0,0.83 -0.41,1.24 -1.24,1.24l-9.42 0c-0.83,0 -1.24,-0.41 -1.24,-1.24l0 -4.46c0,-0.41 -0.21,-0.49 -0.62,-0.25 -2.15,2.23 -4.77,3.95 -7.87,5.14 -3.1,1.2 -6.55,1.8 -10.35,1.8 -6.11,0 -11.17,-1.55 -15.18,-4.65 -4,-3.1 -6.01,-7.79 -6.01,-14.07 0,-6.44 2.25,-11.5 6.75,-15.18 4.5,-3.68 10.8,-5.51 18.9,-5.51l13.88 0c0.33,0 0.5,-0.17 0.5,-0.5l0 -3.34c0,-3.63 -1.05,-6.46 -3.16,-8.49 -2.11,-2.02 -5.31,-3.04 -9.6,-3.04 -3.47,0 -6.3,0.68 -8.49,2.05 -2.19,1.36 -3.53,3.2 -4.03,5.51 -0.25,0.83 -0.74,1.2 -1.49,1.12l-10.04 -1.36c-0.83,-0.17 -1.2,-0.49 -1.11,-0.99 0.66,-4.87 3.26,-8.86 7.81,-11.96 4.54,-3.1 10.24,-4.65 17.1,-4.65zm-3.22 55.02c4.38,0 8.18,-1.16 11.4,-3.47 3.22,-2.31 4.83,-5.25 4.83,-8.8l0 -7.31c0,-0.33 -0.17,-0.5 -0.5,-0.5l-11.65 0c-4.87,0 -8.76,0.95 -11.65,2.85 -2.89,1.9 -4.34,4.54 -4.34,7.93 0,3.06 1.1,5.37 3.28,6.94 2.19,1.57 5.06,2.36 8.61,2.36z"/>
  <path id="_10" class="fil1" d="M225.45 526.95c1.57,4.46 2.36,9.75 2.36,15.86 0,5.78 -0.66,10.78 -1.98,14.99 -1.73,5.54 -4.58,9.81 -8.55,12.83 -3.97,3.02 -9.05,4.52 -15.24,4.52 -2.81,0 -5.47,-0.56 -7.99,-1.67 -2.52,-1.12 -4.69,-2.71 -6.51,-4.77 -0.17,-0.17 -0.31,-0.21 -0.43,-0.12 -0.12,0.08 -0.19,0.21 -0.19,0.37l0 27.63c0,0.83 -0.41,1.24 -1.24,1.24l-9.42 0c-0.83,0 -1.24,-0.41 -1.24,-1.24l0 -84.27c0,-0.83 0.41,-1.24 1.24,-1.24l9.42 0c0.83,0 1.24,0.41 1.24,1.24l0 4.09c0,0.17 0.06,0.29 0.19,0.37 0.12,0.08 0.27,0.04 0.43,-0.12 1.82,-2.07 3.97,-3.68 6.44,-4.83 2.48,-1.15 5.17,-1.73 8.06,-1.73 5.95,0 10.88,1.47 14.81,4.4 3.92,2.93 6.79,7.08 8.61,12.45zm-13.63 31.97c2.64,-3.96 3.97,-9.42 3.97,-16.36 0,-6.36 -1.03,-11.48 -3.1,-15.36 -2.39,-4.54 -6.32,-6.82 -11.77,-6.82 -4.79,0 -8.43,2.23 -10.9,6.69 -1.98,3.55 -2.97,8.76 -2.97,15.61 0,6.94 1.07,12.23 3.22,15.86 2.4,4.21 5.91,6.32 10.53,6.32 4.96,0 8.63,-1.98 11.03,-5.95z"/>
  <path id="_11" class="fil1" d="M293.73 534.76c0.33,3.39 0.46,7.19 0.37,11.4 0,0.83 -0.41,1.24 -1.24,1.24l-39.53 0c-0.33,0 -0.49,0.17 -0.49,0.49 0,2.81 0.25,4.96 0.74,6.44 0.91,3.31 2.75,5.89 5.51,7.75 2.77,1.86 6.26,2.79 10.47,2.79 6.11,0 10.82,-2.52 14.12,-7.56 0.41,-0.83 0.95,-0.95 1.61,-0.37l7.06 4.71c0.58,0.49 0.7,1.03 0.37,1.61 -2.31,3.72 -5.59,6.65 -9.85,8.8 -4.25,2.15 -9.07,3.22 -14.44,3.22 -6.03,0 -11.11,-1.32 -15.24,-3.97 -4.13,-2.64 -7.23,-6.4 -9.29,-11.28 -1.98,-4.87 -2.97,-10.78 -2.97,-17.72 0,-6.03 0.46,-10.61 1.36,-13.75 1.49,-5.7 4.46,-10.2 8.92,-13.51 4.46,-3.31 9.87,-4.96 16.24,-4.96 8.34,0 14.58,2.09 18.71,6.26 4.13,4.17 6.65,10.3 7.56,18.4zm-26.27 -14.38c-3.55,0 -6.49,0.89 -8.8,2.66 -2.31,1.78 -3.88,4.15 -4.71,7.13 -0.58,1.82 -0.95,4.13 -1.11,6.94 0,0.33 0.16,0.5 0.49,0.5l28.38 0c0.33,0 0.5,-0.17 0.5,-0.5 -0.17,-2.73 -0.41,-4.75 -0.74,-6.07 -0.83,-3.22 -2.46,-5.8 -4.9,-7.75 -2.44,-1.94 -5.47,-2.91 -9.11,-2.91z"/>
  <path id="_12" class="fil1" d="M310.33 574.17c-0.83,0 -1.24,-0.41 -1.24,-1.24l0 -84.27c0,-0.83 0.41,-1.24 1.24,-1.24l9.42 0c0.83,0 1.24,0.41 1.24,1.24l0 84.27c0,0.83 -0.41,1.24 -1.24,1.24l-9.42 0z"/>
  <path id="_13" class="fil1" d="M361.27 510.1c5.04,0 9.44,0.89 13.2,2.66 3.76,1.78 6.65,4.26 8.68,7.44 2.02,3.18 3.04,6.8 3.04,10.85l0 41.88c0,0.83 -0.41,1.24 -1.24,1.24l-9.42 0c-0.83,0 -1.24,-0.41 -1.24,-1.24l0 -4.46c0,-0.41 -0.21,-0.49 -0.62,-0.25 -2.15,2.23 -4.77,3.95 -7.87,5.14 -3.1,1.2 -6.55,1.8 -10.35,1.8 -6.11,0 -11.17,-1.55 -15.18,-4.65 -4,-3.1 -6.01,-7.79 -6.01,-14.07 0,-6.44 2.25,-11.5 6.75,-15.18 4.5,-3.68 10.8,-5.51 18.9,-5.51l13.88 0c0.33,0 0.5,-0.17 0.5,-0.5l0 -3.34c0,-3.63 -1.05,-6.46 -3.16,-8.49 -2.11,-2.02 -5.31,-3.04 -9.6,-3.04 -3.47,0 -6.3,0.68 -8.49,2.05 -2.19,1.36 -3.53,3.2 -4.03,5.51 -0.25,0.83 -0.74,1.2 -1.49,1.12l-10.04 -1.36c-0.83,-0.17 -1.2,-0.49 -1.11,-0.99 0.66,-4.87 3.26,-8.86 7.81,-11.96 4.54,-3.1 10.24,-4.65 17.1,-4.65zm-3.22 55.02c4.38,0 8.18,-1.16 11.4,-3.47 3.22,-2.31 4.83,-5.25 4.83,-8.8l0 -7.31c0,-0.33 -0.17,-0.5 -0.5,-0.5l-11.65 0c-4.87,0 -8.76,0.95 -11.65,2.85 -2.89,1.9 -4.34,4.54 -4.34,7.93 0,3.06 1.1,5.37 3.28,6.94 2.19,1.57 5.06,2.36 8.61,2.36z"/>
  <path id="_14" class="fil1" d="M462.26 487.3c5.2,0 9.79,1.07 13.75,3.22 3.96,2.15 7.04,5.19 9.23,9.11 2.19,3.92 3.28,8.44 3.28,13.57 0,5.04 -1.12,9.5 -3.34,13.38 -2.23,3.88 -5.39,6.88 -9.48,8.99 -4.09,2.1 -8.82,3.16 -14.19,3.16l-19.83 0c-0.41,0 -0.62,0.21 -0.62,0.62l0 33.33c0,0.41 -0.14,0.76 -0.43,1.05 -0.29,0.29 -0.64,0.44 -1.05,0.44l-11.4 0c-0.41,0 -0.76,-0.15 -1.05,-0.44 -0.29,-0.29 -0.44,-0.64 -0.44,-1.05l0 -83.9c0,-0.41 0.15,-0.76 0.44,-1.05 0.29,-0.29 0.64,-0.43 1.05,-0.43l34.08 0zm-2.11 39.78c4.21,0 7.6,-1.24 10.16,-3.72 2.56,-2.48 3.84,-5.74 3.84,-9.79 0,-4.13 -1.28,-7.48 -3.84,-10.04 -2.56,-2.56 -5.95,-3.84 -10.16,-3.84l-18.46 0c-0.41,0 -0.62,0.2 -0.62,0.62l0 26.15c0,0.41 0.21,0.62 0.62,0.62l18.46 0z"/>
  <path id="_15" class="fil1" d="M523.6 575.16c-6.53,0 -12.12,-1.65 -16.79,-4.96 -4.67,-3.3 -7.95,-7.89 -9.85,-13.75 -1.4,-4.46 -2.1,-9.17 -2.1,-14.13 0,-5.29 0.66,-10 1.98,-14.12 1.9,-5.78 5.2,-10.29 9.91,-13.51 4.71,-3.22 10.37,-4.83 16.98,-4.83 6.28,0 11.71,1.61 16.3,4.83 4.58,3.22 7.83,7.68 9.73,13.38 1.49,3.97 2.23,8.67 2.23,14.13 0,5.2 -0.7,9.91 -2.11,14.12 -1.9,5.87 -5.16,10.47 -9.79,13.82 -4.63,3.35 -10.12,5.02 -16.48,5.02zm0 -12.39c3.05,0 5.68,-0.87 7.87,-2.6 2.19,-1.73 3.78,-4.17 4.77,-7.31 0.83,-2.73 1.24,-6.2 1.24,-10.41 0,-4.46 -0.41,-7.93 -1.24,-10.41 -0.91,-3.14 -2.48,-5.56 -4.71,-7.25 -2.23,-1.69 -4.96,-2.54 -8.18,-2.54 -3.06,0 -5.7,0.85 -7.93,2.54 -2.23,1.7 -3.84,4.11 -4.83,7.25 -0.83,2.89 -1.24,6.36 -1.24,10.41 0,4.05 0.41,7.52 1.24,10.41 0.91,3.14 2.5,5.58 4.77,7.31 2.27,1.73 5.02,2.6 8.24,2.6z"/>
  <path id="_16" class="fil1" d="M595.1 510.1c2.64,0 4.95,0.54 6.94,1.61 0.66,0.33 0.91,0.95 0.74,1.86l-2.1 11.15c-0.08,0.99 -0.66,1.28 -1.73,0.87 -1.24,-0.41 -2.68,-0.62 -4.34,-0.62 -1.07,0 -1.9,0.04 -2.48,0.12 -3.47,0.17 -6.36,1.39 -8.68,3.66 -2.31,2.27 -3.47,5.22 -3.47,8.86l0 35.07c0,0.41 -0.15,0.76 -0.43,1.05 -0.29,0.29 -0.64,0.44 -1.05,0.44l-11.4 0c-0.41,0 -0.76,-0.15 -1.05,-0.44 -0.29,-0.29 -0.43,-0.64 -0.43,-1.05l0 -60.35c0,-0.41 0.15,-0.76 0.43,-1.05 0.29,-0.29 0.64,-0.44 1.05,-0.44l11.4 0c0.41,0 0.76,0.15 1.05,0.44 0.29,0.29 0.43,0.64 0.43,1.05l0 5.58c0,0.33 0.06,0.52 0.19,0.56 0.12,0.04 0.27,-0.06 0.43,-0.31 3.47,-5.37 8.3,-8.06 14.5,-8.06z"/>
  <path id="_17" class="fil1" d="M646.9 521.01c0,0.41 -0.14,0.77 -0.43,1.05 -0.29,0.29 -0.64,0.44 -1.05,0.44l-12.64 0c-0.41,0 -0.62,0.21 -0.62,0.62l0 29.87c0,3.14 0.68,5.41 2.05,6.82 1.36,1.4 3.53,2.1 6.51,2.1l3.72 0c0.41,0 0.76,0.15 1.05,0.44 0.29,0.29 0.43,0.64 0.43,1.05l0 9.29c0,0.91 -0.49,1.44 -1.49,1.61l-6.44 0.12c-6.53,0 -11.4,-1.12 -14.62,-3.35 -3.22,-2.23 -4.87,-6.44 -4.96,-12.64l0 -35.32c0,-0.41 -0.21,-0.62 -0.62,-0.62l-7.06 0c-0.41,0 -0.77,-0.15 -1.05,-0.44 -0.29,-0.29 -0.44,-0.64 -0.44,-1.05l0 -8.67c0,-0.41 0.15,-0.76 0.44,-1.05 0.29,-0.29 0.64,-0.44 1.05,-0.44l7.06 0c0.41,0 0.62,-0.2 0.62,-0.62l0 -14.5c0,-0.41 0.15,-0.76 0.44,-1.05 0.29,-0.29 0.64,-0.44 1.05,-0.44l10.78 0c0.41,0 0.76,0.15 1.05,0.44 0.29,0.29 0.43,0.64 0.43,1.05l0 14.5c0,0.41 0.21,0.62 0.62,0.62l12.64 0c0.41,0 0.76,0.15 1.05,0.44 0.29,0.29 0.43,0.64 0.43,1.05l0 8.67z"/>
  <path id="_18" class="fil1" d="M683.83 509.86c5.2,0 9.79,0.91 13.75,2.73 3.96,1.82 7.02,4.32 9.17,7.49 2.15,3.18 3.22,6.8 3.22,10.85l0 41.76c0,0.41 -0.15,0.76 -0.43,1.05 -0.29,0.29 -0.64,0.44 -1.05,0.44l-11.4 0c-0.41,0 -0.76,-0.15 -1.05,-0.44 -0.29,-0.29 -0.43,-0.64 -0.43,-1.05l0 -3.97c0,-0.25 -0.08,-0.39 -0.25,-0.44 -0.17,-0.04 -0.33,0.02 -0.49,0.19 -4.05,4.46 -9.92,6.69 -17.6,6.69 -6.2,0 -11.3,-1.57 -15.31,-4.71 -4,-3.14 -6.01,-7.81 -6.01,-14 0,-6.44 2.25,-11.46 6.75,-15.06 4.5,-3.59 10.85,-5.39 19.02,-5.39l13.26 0c0.41,0 0.62,-0.21 0.62,-0.62l0 -2.97c0,-3.22 -0.95,-5.72 -2.85,-7.5 -1.9,-1.78 -4.75,-2.66 -8.55,-2.66 -3.14,0 -5.68,0.56 -7.62,1.67 -1.94,1.12 -3.16,2.66 -3.66,4.65 -0.25,0.99 -0.83,1.41 -1.73,1.24l-12.02 -1.49c-0.41,-0.08 -0.76,-0.23 -1.05,-0.44 -0.29,-0.21 -0.39,-0.47 -0.31,-0.81 0.66,-5.04 3.37,-9.17 8.12,-12.39 4.75,-3.22 10.72,-4.83 17.91,-4.83zm-2.97 53.9c4.05,0 7.52,-1.07 10.41,-3.22 2.89,-2.15 4.34,-4.87 4.34,-8.18l0 -5.83c0,-0.41 -0.21,-0.62 -0.62,-0.62l-10.41 0c-4.38,0 -7.83,0.83 -10.35,2.48 -2.52,1.65 -3.78,4.01 -3.78,7.06 0,2.64 0.97,4.69 2.91,6.14 1.94,1.44 4.44,2.17 7.5,2.17z"/>
  <path id="_19" class="fil1" d="M753.84 510.1c2.64,0 4.95,0.54 6.94,1.61 0.66,0.33 0.91,0.95 0.74,1.86l-2.1 11.15c-0.08,0.99 -0.66,1.28 -1.73,0.87 -1.24,-0.41 -2.68,-0.62 -4.34,-0.62 -1.07,0 -1.9,0.04 -2.48,0.12 -3.47,0.17 -6.36,1.39 -8.68,3.66 -2.31,2.27 -3.47,5.22 -3.47,8.86l0 35.07c0,0.41 -0.15,0.76 -0.43,1.05 -0.29,0.29 -0.64,0.44 -1.05,0.44l-11.4 0c-0.41,0 -0.76,-0.15 -1.05,-0.44 -0.29,-0.29 -0.43,-0.64 -0.43,-1.05l0 -60.35c0,-0.41 0.15,-0.76 0.43,-1.05 0.29,-0.29 0.64,-0.44 1.05,-0.44l11.4 0c0.41,0 0.76,0.15 1.05,0.44 0.29,0.29 0.43,0.64 0.43,1.05l0 5.58c0,0.33 0.06,0.52 0.19,0.56 0.12,0.04 0.27,-0.06 0.43,-0.31 3.47,-5.37 8.3,-8.06 14.5,-8.06z"/>
  <path id="_20" class="fil1" d="M779.12 502.17c-2.56,0 -4.67,-0.83 -6.32,-2.48 -1.65,-1.65 -2.48,-3.76 -2.48,-6.32 0,-2.56 0.83,-4.67 2.48,-6.32 1.65,-1.65 3.76,-2.48 6.32,-2.48 2.56,0 4.67,0.83 6.32,2.48 1.65,1.65 2.48,3.76 2.48,6.32 0,2.56 -0.83,4.67 -2.48,6.32 -1.65,1.65 -3.76,2.48 -6.32,2.48zm-5.95 72c-0.41,0 -0.76,-0.15 -1.05,-0.44 -0.29,-0.29 -0.43,-0.64 -0.43,-1.05l0 -60.47c0,-0.41 0.15,-0.76 0.43,-1.05 0.29,-0.29 0.64,-0.43 1.05,-0.43l11.4 0c0.41,0 0.76,0.14 1.05,0.43 0.29,0.29 0.43,0.64 0.43,1.05l0 60.47c0,0.41 -0.15,0.76 -0.43,1.05 -0.29,0.29 -0.64,0.44 -1.05,0.44l-11.4 0z"/>
  <path id="_21" class="fil1" d="M826.71 509.86c5.2,0 9.79,0.91 13.75,2.73 3.96,1.82 7.02,4.32 9.17,7.49 2.15,3.18 3.22,6.8 3.22,10.85l0 41.76c0,0.41 -0.15,0.76 -0.43,1.05 -0.29,0.29 -0.64,0.44 -1.05,0.44l-11.4 0c-0.41,0 -0.76,-0.15 -1.05,-0.44 -0.29,-0.29 -0.43,-0.64 -0.43,-1.05l0 -3.97c0,-0.25 -0.08,-0.39 -0.25,-0.44 -0.17,-0.04 -0.33,0.02 -0.49,0.19 -4.05,4.46 -9.92,6.69 -17.6,6.69 -6.2,0 -11.3,-1.57 -15.31,-4.71 -4,-3.14 -6.01,-7.81 -6.01,-14 0,-6.44 2.25,-11.46 6.75,-15.06 4.5,-3.59 10.85,-5.39 19.02,-5.39l13.26 0c0.41,0 0.62,-0.21 0.62,-0.62l0 -2.97c0,-3.22 -0.95,-5.72 -2.85,-7.5 -1.9,-1.78 -4.75,-2.66 -8.55,-2.66 -3.14,0 -5.68,0.56 -7.62,1.67 -1.94,1.12 -3.16,2.66 -3.66,4.65 -0.25,0.99 -0.83,1.41 -1.73,1.24l-12.02 -1.49c-0.41,-0.08 -0.76,-0.23 -1.05,-0.44 -0.29,-0.21 -0.39,-0.47 -0.31,-0.81 0.66,-5.04 3.37,-9.17 8.12,-12.39 4.75,-3.22 10.72,-4.83 17.91,-4.83zm-2.97 53.9c4.05,0 7.52,-1.07 10.41,-3.22 2.89,-2.15 4.34,-4.87 4.34,-8.18l0 -5.83c0,-0.41 -0.21,-0.62 -0.62,-0.62l-10.41 0c-4.38,0 -7.83,0.83 -10.35,2.48 -2.52,1.65 -3.78,4.01 -3.78,7.06 0,2.64 0.97,4.69 2.91,6.14 1.94,1.44 4.44,2.17 7.5,2.17z"/>
  <path id="_22" class="fil1" d="M943.56 535.26c1.07,3.72 1.61,7.56 1.61,11.53 0,3.88 -0.54,7.56 -1.61,11.03 -1.73,5.29 -4.92,9.48 -9.54,12.58 -4.63,3.1 -10.04,4.65 -16.23,4.65 -6.12,0 -11.44,-1.51 -15.99,-4.52 -4.54,-3.02 -7.73,-7.08 -9.54,-12.21 -0.66,-1.82 -1.2,-3.88 -1.61,-6.2l0 -0.25c0,-0.91 0.5,-1.36 1.49,-1.36l11.77 0c0.83,0 1.36,0.45 1.61,1.36 0.08,0.5 0.29,1.24 0.62,2.23 0.91,2.73 2.36,4.83 4.34,6.32 1.98,1.49 4.38,2.23 7.19,2.23 2.89,0 5.37,-0.81 7.44,-2.42 2.07,-1.61 3.51,-3.82 4.34,-6.63 0.74,-1.98 1.12,-4.25 1.12,-6.81 0,-2.4 -0.33,-4.75 -0.99,-7.07 -0.58,-2.73 -1.9,-4.81 -3.97,-6.26 -2.06,-1.44 -4.58,-2.17 -7.56,-2.17 -2.81,0 -5.35,0.64 -7.62,1.92 -2.27,1.28 -3.74,2.95 -4.4,5.02 -0.33,0.83 -0.91,1.24 -1.74,1.24l-12.02 0c-0.41,0 -0.76,-0.15 -1.05,-0.44 -0.29,-0.29 -0.44,-0.64 -0.44,-1.05l0 -49.07c0,-0.41 0.15,-0.76 0.44,-1.05 0.29,-0.29 0.64,-0.43 1.05,-0.43l48.2 0c0.41,0 0.76,0.15 1.05,0.43 0.29,0.29 0.44,0.64 0.44,1.05l0 9.42c0,0.41 -0.15,0.76 -0.44,1.05 -0.29,0.29 -0.64,0.43 -1.05,0.43l-34.7 0c-0.41,0 -0.62,0.21 -0.62,0.62l-0.12 22.31c0,0.33 0.08,0.52 0.25,0.56 0.17,0.04 0.33,-0.02 0.5,-0.19 3.88,-2.89 8.55,-4.34 14,-4.34 5.78,0 10.8,1.47 15.05,4.4 4.26,2.93 7.17,6.96 8.74,12.08z"/>
  <path id="_23" class="fil1" d="M1007.38 531.42c2.23,4.21 3.34,9.34 3.34,15.37 0,5.04 -0.83,9.46 -2.48,13.26 -1.98,4.79 -5.1,8.49 -9.36,11.09 -4.25,2.6 -9.36,3.9 -15.3,3.9 -6.2,0 -11.48,-1.42 -15.86,-4.27 -4.38,-2.85 -7.52,-6.84 -9.42,-11.96 -1.32,-3.47 -1.98,-7.52 -1.98,-12.14l0 -37.79c0,-4.46 1.12,-8.39 3.35,-11.77 2.23,-3.39 5.35,-6.01 9.35,-7.87 4.01,-1.86 8.61,-2.79 13.82,-2.79 5.04,0 9.52,0.91 13.45,2.73 3.92,1.82 6.98,4.38 9.17,7.68 2.19,3.3 3.28,7.1 3.28,11.4l0 2.73c0,0.41 -0.14,0.77 -0.43,1.05 -0.29,0.29 -0.64,0.44 -1.05,0.44l-11.4 0c-0.41,0 -0.76,-0.15 -1.05,-0.44 -0.29,-0.29 -0.44,-0.64 -0.44,-1.05l0 -0.87c0,-3.3 -1.1,-6.01 -3.28,-8.12 -2.19,-2.11 -4.98,-3.16 -8.36,-3.16 -3.47,0 -6.34,1.1 -8.61,3.29 -2.27,2.19 -3.41,5.02 -3.41,8.49l0 13.51c0,0.25 0.08,0.41 0.25,0.5 0.17,0.08 0.33,0.04 0.5,-0.12 3.47,-3.39 8.26,-5.08 14.37,-5.08 4.87,0 9.15,1.03 12.83,3.1 3.68,2.07 6.59,5.04 8.74,8.92zm-12.89 24.41c1.24,-2.48 1.86,-5.41 1.86,-8.8 0,-3.72 -0.7,-6.9 -2.11,-9.54 -2.31,-3.97 -5.91,-5.95 -10.78,-5.95 -5.12,0 -8.76,2.07 -10.9,6.2 -1.24,2.48 -1.86,5.7 -1.86,9.67 0,3.39 0.54,6.15 1.61,8.3 1.98,4.54 5.7,6.82 11.15,6.82 5.2,0 8.88,-2.23 11.03,-6.69z"/>
  <path id="_24" class="fil1" d="M1040.96 561.03c-0.17,0.17 -0.23,0.33 -0.19,0.5 0.04,0.16 0.19,0.25 0.43,0.25l35.32 0c0.41,0 0.76,0.15 1.05,0.44 0.29,0.29 0.43,0.64 0.43,1.05l0 9.42c0,0.41 -0.14,0.76 -0.43,1.05 -0.29,0.29 -0.64,0.44 -1.05,0.44l-53.28 0c-0.41,0 -0.76,-0.15 -1.05,-0.44 -0.29,-0.29 -0.44,-0.64 -0.44,-1.05l0 -8.92c0,-0.74 0.25,-1.36 0.74,-1.86 6.28,-6.69 13.55,-14.91 21.81,-24.66l5.83 -6.82c7.6,-8.84 11.4,-15.53 11.4,-20.07 0,-3.39 -1.2,-6.15 -3.59,-8.3 -2.39,-2.15 -5.49,-3.22 -9.29,-3.22 -3.8,0 -6.88,1.07 -9.23,3.22 -2.35,2.15 -3.53,5 -3.53,8.55l0 3.22c0,0.41 -0.15,0.76 -0.44,1.05 -0.29,0.29 -0.64,0.44 -1.05,0.44l-11.53 0c-0.41,0 -0.76,-0.15 -1.05,-0.44 -0.29,-0.29 -0.43,-0.64 -0.43,-1.05l0 -5.33c0.17,-4.46 1.44,-8.34 3.84,-11.65 2.39,-3.31 5.64,-5.87 9.73,-7.68 4.09,-1.82 8.65,-2.73 13.69,-2.73 5.54,0 10.37,1.03 14.5,3.1 4.13,2.06 7.31,4.89 9.54,8.49 2.23,3.59 3.35,7.62 3.35,12.08 0,6.78 -3.6,14.58 -10.78,23.42 -3.96,4.96 -10.49,12.39 -19.58,22.31l-4.71 5.2z"/>
  <path id="_25" class="fil1" d="M264.92 717.52c-0.41,0 -0.77,-0.15 -1.05,-0.44 -0.29,-0.29 -0.44,-0.64 -0.44,-1.05l0 -83.77c0,-0.41 0.15,-0.76 0.44,-1.05 0.29,-0.29 0.64,-0.43 1.05,-0.43l30.24 0c5.87,0 11.03,1.03 15.49,3.1 4.46,2.07 7.91,5.02 10.35,8.86 2.44,3.84 3.66,8.32 3.66,13.44l0 35.94c0,5.12 -1.22,9.6 -3.66,13.45 -2.44,3.84 -5.89,6.8 -10.35,8.86 -4.46,2.07 -9.62,3.1 -15.49,3.1l-30.24 0zm12.89 -13.01c0,0.41 0.2,0.62 0.62,0.62l17.35 0c4.38,0 7.87,-1.38 10.47,-4.15 2.6,-2.77 3.95,-6.46 4.03,-11.09l0 -31.35c0,-4.71 -1.32,-8.45 -3.97,-11.22 -2.64,-2.77 -6.2,-4.15 -10.66,-4.15l-17.22 0c-0.41,0 -0.62,0.21 -0.62,0.62l0 60.72z"/>
  <path id="_26" class="fil1" d="M392.06 678.74c0.33,2.07 0.49,4.38 0.49,6.94l-0.12 3.84c0,0.99 -0.5,1.49 -1.49,1.49l-38.79 0c-0.41,0 -0.62,0.2 -0.62,0.62 0.25,2.73 0.62,4.58 1.12,5.58 1.98,5.95 6.81,8.96 14.5,9.05 5.62,0 10.08,-2.31 13.38,-6.94 0.33,-0.5 0.75,-0.74 1.24,-0.74 0.33,0 0.62,0.12 0.87,0.37l7.68 6.32c0.74,0.58 0.87,1.24 0.37,1.98 -2.56,3.63 -5.97,6.44 -10.22,8.43 -4.25,1.98 -8.98,2.97 -14.19,2.97 -6.44,0 -11.92,-1.45 -16.42,-4.34 -4.5,-2.89 -7.79,-6.94 -9.85,-12.14 -1.9,-4.46 -2.85,-10.66 -2.85,-18.59 0,-4.79 0.5,-8.68 1.49,-11.65 1.65,-5.78 4.77,-10.34 9.36,-13.69 4.58,-3.34 10.1,-5.02 16.54,-5.02 16.27,0 25.44,8.51 27.51,25.53zm-27.51 -13.14c-3.06,0 -5.6,0.76 -7.62,2.29 -2.02,1.53 -3.45,3.66 -4.27,6.38 -0.5,1.4 -0.83,3.22 -0.99,5.45 -0.17,0.41 0,0.62 0.49,0.62l25.16 0c0.41,0 0.62,-0.21 0.62,-0.62 -0.17,-2.07 -0.41,-3.63 -0.74,-4.71 -0.74,-2.97 -2.21,-5.29 -4.4,-6.94 -2.19,-1.65 -4.94,-2.48 -8.24,-2.48z"/>
  <path id="_27" class="fil1" d="M438.03 664.36c0,0.41 -0.14,0.77 -0.43,1.05 -0.29,0.29 -0.64,0.44 -1.05,0.44l-12.64 0c-0.41,0 -0.62,0.21 -0.62,0.62l0 29.87c0,3.14 0.68,5.41 2.05,6.82 1.36,1.4 3.53,2.1 6.51,2.1l3.72 0c0.41,0 0.76,0.15 1.05,0.44 0.29,0.29 0.43,0.64 0.43,1.05l0 9.29c0,0.91 -0.49,1.44 -1.49,1.61l-6.44 0.12c-6.53,0 -11.4,-1.12 -14.62,-3.35 -3.22,-2.23 -4.87,-6.44 -4.96,-12.64l0 -35.32c0,-0.41 -0.21,-0.62 -0.62,-0.62l-7.06 0c-0.41,0 -0.77,-0.15 -1.05,-0.44 -0.29,-0.29 -0.44,-0.64 -0.44,-1.05l0 -8.67c0,-0.41 0.15,-0.76 0.44,-1.05 0.29,-0.29 0.64,-0.44 1.05,-0.44l7.06 0c0.41,0 0.62,-0.2 0.62,-0.62l0 -14.5c0,-0.41 0.15,-0.76 0.44,-1.05 0.29,-0.29 0.64,-0.44 1.05,-0.44l10.78 0c0.41,0 0.76,0.15 1.05,0.44 0.29,0.29 0.43,0.64 0.43,1.05l0 14.5c0,0.41 0.21,0.62 0.62,0.62l12.64 0c0.41,0 0.76,0.15 1.05,0.44 0.29,0.29 0.43,0.64 0.43,1.05l0 8.67z"/>
  <path id="_28" class="fil1" d="M480.29 653.46c2.64,0 4.95,0.54 6.94,1.61 0.66,0.33 0.91,0.95 0.74,1.86l-2.1 11.15c-0.08,0.99 -0.66,1.28 -1.73,0.87 -1.24,-0.41 -2.68,-0.62 -4.34,-0.62 -1.07,0 -1.9,0.04 -2.48,0.12 -3.47,0.17 -6.36,1.39 -8.68,3.66 -2.31,2.27 -3.47,5.22 -3.47,8.86l0 35.07c0,0.41 -0.15,0.76 -0.43,1.05 -0.29,0.29 -0.64,0.44 -1.05,0.44l-11.4 0c-0.41,0 -0.76,-0.15 -1.05,-0.44 -0.29,-0.29 -0.43,-0.64 -0.43,-1.05l0 -60.35c0,-0.41 0.15,-0.76 0.43,-1.05 0.29,-0.29 0.64,-0.44 1.05,-0.44l11.4 0c0.41,0 0.76,0.15 1.05,0.44 0.29,0.29 0.43,0.64 0.43,1.05l0 5.58c0,0.33 0.06,0.52 0.19,0.56 0.12,0.04 0.27,-0.06 0.43,-0.31 3.47,-5.37 8.3,-8.06 14.5,-8.06z"/>
  <path id="_29" class="fil1" d="M520.93 653.21c5.2,0 9.79,0.91 13.75,2.73 3.96,1.82 7.02,4.32 9.17,7.49 2.15,3.18 3.22,6.8 3.22,10.85l0 41.76c0,0.41 -0.15,0.76 -0.43,1.05 -0.29,0.29 -0.64,0.44 -1.05,0.44l-11.4 0c-0.41,0 -0.76,-0.15 -1.05,-0.44 -0.29,-0.29 -0.43,-0.64 -0.43,-1.05l0 -3.97c0,-0.25 -0.08,-0.39 -0.25,-0.44 -0.17,-0.04 -0.33,0.02 -0.49,0.19 -4.05,4.46 -9.92,6.69 -17.6,6.69 -6.2,0 -11.3,-1.57 -15.31,-4.71 -4,-3.14 -6.01,-7.81 -6.01,-14 0,-6.44 2.25,-11.46 6.75,-15.06 4.5,-3.59 10.85,-5.39 19.02,-5.39l13.26 0c0.41,0 0.62,-0.21 0.62,-0.62l0 -2.97c0,-3.22 -0.95,-5.72 -2.85,-7.5 -1.9,-1.78 -4.75,-2.66 -8.55,-2.66 -3.14,0 -5.68,0.56 -7.62,1.67 -1.94,1.12 -3.16,2.66 -3.66,4.65 -0.25,0.99 -0.83,1.41 -1.73,1.24l-12.02 -1.49c-0.41,-0.08 -0.76,-0.23 -1.05,-0.44 -0.29,-0.21 -0.39,-0.47 -0.31,-0.81 0.66,-5.04 3.37,-9.17 8.12,-12.39 4.75,-3.22 10.72,-4.83 17.91,-4.83zm-2.97 53.9c4.05,0 7.52,-1.07 10.41,-3.22 2.89,-2.15 4.34,-4.87 4.34,-8.18l0 -5.83c0,-0.41 -0.21,-0.62 -0.62,-0.62l-10.41 0c-4.38,0 -7.83,0.83 -10.35,2.48 -2.52,1.65 -3.78,4.01 -3.78,7.06 0,2.64 0.97,4.69 2.91,6.14 1.94,1.44 4.44,2.17 7.5,2.17z"/>
  <path id="_30" class="fil1" d="M591.81 653.21c6.69,0 12.04,1.98 16.05,5.95 4,3.97 6.01,9.38 6.01,16.24l0 40.65c0,0.41 -0.15,0.76 -0.44,1.05 -0.29,0.29 -0.64,0.44 -1.05,0.44l-11.4 0c-0.41,0 -0.76,-0.15 -1.05,-0.44 -0.29,-0.29 -0.43,-0.64 -0.43,-1.05l0 -37.67c0,-3.8 -1.07,-6.88 -3.22,-9.23 -2.15,-2.35 -5,-3.53 -8.55,-3.53 -3.55,0 -6.42,1.16 -8.61,3.47 -2.19,2.31 -3.29,5.37 -3.29,9.17l0 37.8c0,0.41 -0.15,0.76 -0.43,1.05 -0.29,0.29 -0.64,0.44 -1.05,0.44l-11.4 0c-0.41,0 -0.76,-0.15 -1.05,-0.44 -0.29,-0.29 -0.43,-0.64 -0.43,-1.05l0 -60.35c0,-0.41 0.15,-0.76 0.43,-1.05 0.29,-0.29 0.64,-0.44 1.05,-0.44l11.4 0c0.41,0 0.76,0.15 1.05,0.44 0.29,0.29 0.43,0.64 0.43,1.05l0 3.97c0,0.25 0.08,0.41 0.25,0.49 0.17,0.08 0.29,0 0.37,-0.25 3.39,-4.46 8.51,-6.69 15.37,-6.69z"/>
  <path id="_31" class="fil1" d="M626.14 686.42c-0.41,0 -0.76,-0.15 -1.05,-0.44 -0.29,-0.29 -0.43,-0.64 -0.43,-1.05l0 -9.42c0,-0.41 0.15,-0.76 0.43,-1.05 0.29,-0.29 0.64,-0.44 1.05,-0.44l39.04 0c0.41,0 0.76,0.15 1.05,0.44 0.29,0.29 0.43,0.64 0.43,1.05l0 9.42c0,0.41 -0.15,0.76 -0.43,1.05 -0.29,0.29 -0.64,0.44 -1.05,0.44l-39.04 0z"/>
  <path id="_32" class="fil1" d="M735.69 631.77c0.41,-0.66 0.99,-0.99 1.73,-0.99l11.4 0c0.41,0 0.76,0.15 1.05,0.43 0.29,0.29 0.44,0.64 0.44,1.05l0 83.77c0,0.41 -0.15,0.76 -0.44,1.05 -0.29,0.29 -0.64,0.44 -1.05,0.44l-11.4 0c-0.41,0 -0.76,-0.15 -1.05,-0.44 -0.29,-0.29 -0.43,-0.64 -0.43,-1.05l0 -59.11c0,-0.25 -0.1,-0.41 -0.31,-0.5 -0.21,-0.08 -0.35,0 -0.44,0.25l-15.49 23.79c-0.41,0.66 -0.99,0.99 -1.73,0.99l-5.7 0c-0.74,0 -1.32,-0.33 -1.73,-0.99l-15.61 -23.67c-0.08,-0.25 -0.23,-0.33 -0.44,-0.25 -0.2,0.08 -0.31,0.25 -0.31,0.49l0 58.99c0,0.41 -0.15,0.76 -0.44,1.05 -0.29,0.29 -0.64,0.44 -1.05,0.44l-11.4 0c-0.41,0 -0.77,-0.15 -1.05,-0.44 -0.29,-0.29 -0.44,-0.64 -0.44,-1.05l0 -83.77c0,-0.41 0.15,-0.76 0.44,-1.05 0.29,-0.29 0.64,-0.43 1.05,-0.43l11.4 0c0.74,0 1.32,0.33 1.73,0.99l20.2 30.61c0.16,0.16 0.33,0.25 0.49,0.25 0.17,0 0.29,-0.08 0.37,-0.25l20.2 -30.61z"/>
  <path id="_33" class="fil1" d="M797.4 718.52c-6.2,0 -11.65,-1.22 -16.36,-3.66 -4.71,-2.44 -8.34,-5.89 -10.91,-10.35 -2.56,-4.46 -3.84,-9.58 -3.84,-15.36l0 -29.99c0,-5.87 1.28,-11.01 3.84,-15.43 2.56,-4.42 6.2,-7.85 10.91,-10.29 4.71,-2.44 10.16,-3.66 16.36,-3.66 6.11,0 11.5,1.2 16.17,3.59 4.67,2.39 8.28,5.66 10.85,9.79 2.56,4.13 3.84,8.8 3.84,14l0 0.99c0,0.41 -0.14,0.76 -0.43,1.05 -0.29,0.29 -0.64,0.44 -1.05,0.44l-11.28 0c-0.41,0 -0.76,-0.15 -1.05,-0.44 -0.29,-0.29 -0.43,-0.64 -0.43,-1.05l0 -0.62c0,-4.46 -1.51,-8.14 -4.52,-11.03 -3.02,-2.89 -7.04,-4.34 -12.08,-4.34 -5.04,0 -9.09,1.51 -12.14,4.53 -3.06,3.01 -4.58,7 -4.58,11.96l0 30.98c0,4.96 1.61,8.94 4.83,11.96 3.22,3.02 7.39,4.52 12.51,4.52 4.96,0 8.86,-1.3 11.71,-3.9 2.85,-2.6 4.27,-6.18 4.27,-10.72l0 -7.68c0,-0.41 -0.21,-0.62 -0.62,-0.62l-15.24 0c-0.41,0 -0.76,-0.15 -1.05,-0.43 -0.29,-0.29 -0.43,-0.64 -0.43,-1.05l0 -9.17c0,-0.41 0.15,-0.77 0.43,-1.05 0.29,-0.29 0.64,-0.44 1.05,-0.44l28.63 0c0.41,0 0.76,0.15 1.05,0.44 0.29,0.29 0.43,0.64 0.43,1.05l0 15.86c0,9.5 -2.79,16.9 -8.36,22.18 -5.58,5.29 -13.07,7.93 -22.49,7.93z"/>
  <path id="_34" class="fil1" d="M907.93 632.02c0,-0.83 0.41,-1.24 1.24,-1.24l9.42 0c0.83,0 1.24,0.41 1.24,1.24l0 84.27c0,0.83 -0.41,1.24 -1.24,1.24l-9.42 0c-0.83,0 -1.24,-0.41 -1.24,-1.24l0 -4.09c0,-0.17 -0.06,-0.29 -0.19,-0.37 -0.12,-0.08 -0.27,-0.04 -0.43,0.12 -1.82,2.07 -3.97,3.68 -6.44,4.83 -2.48,1.16 -5.17,1.73 -8.05,1.73 -5.95,0 -10.89,-1.47 -14.81,-4.4 -3.92,-2.93 -6.8,-7.09 -8.61,-12.46 -1.57,-4.38 -2.36,-9.66 -2.36,-15.86 0,-5.78 0.66,-10.78 1.98,-14.99 1.73,-5.46 4.58,-9.71 8.55,-12.77 3.97,-3.05 9.05,-4.58 15.24,-4.58 2.81,0 5.47,0.56 7.99,1.67 2.52,1.12 4.69,2.71 6.51,4.77 0.17,0.17 0.31,0.21 0.43,0.12 0.12,-0.08 0.19,-0.21 0.19,-0.37l0 -27.64zm-3.1 69.52c1.9,-3.47 2.85,-8.67 2.85,-15.61 0,-6.94 -1.03,-12.23 -3.1,-15.86 -2.4,-4.21 -5.91,-6.32 -10.53,-6.32 -4.95,0 -8.63,1.98 -11.03,5.95 -2.64,4.13 -3.97,9.58 -3.97,16.36 0,6.36 1.03,11.48 3.1,15.36 2.4,4.55 6.32,6.82 11.77,6.82 4.79,0 8.43,-2.23 10.91,-6.69z"/>
  <path id="_35" class="fil1" d="M988.36 678.12c0.33,3.39 0.46,7.19 0.37,11.4 0,0.83 -0.41,1.24 -1.24,1.24l-39.53 0c-0.33,0 -0.49,0.17 -0.49,0.49 0,2.81 0.25,4.96 0.74,6.44 0.91,3.31 2.75,5.89 5.51,7.75 2.77,1.86 6.26,2.79 10.47,2.79 6.11,0 10.82,-2.52 14.12,-7.56 0.41,-0.83 0.95,-0.95 1.61,-0.37l7.06 4.71c0.58,0.49 0.7,1.03 0.37,1.61 -2.31,3.72 -5.59,6.65 -9.85,8.8 -4.25,2.15 -9.07,3.22 -14.44,3.22 -6.03,0 -11.11,-1.32 -15.24,-3.97 -4.13,-2.64 -7.23,-6.4 -9.29,-11.28 -1.98,-4.87 -2.97,-10.78 -2.97,-17.72 0,-6.03 0.46,-10.61 1.36,-13.75 1.49,-5.7 4.46,-10.2 8.92,-13.51 4.46,-3.31 9.87,-4.96 16.24,-4.96 8.34,0 14.58,2.09 18.71,6.26 4.13,4.17 6.65,10.3 7.56,18.4zm-26.27 -14.38c-3.55,0 -6.49,0.89 -8.8,2.66 -2.31,1.78 -3.88,4.15 -4.71,7.13 -0.58,1.82 -0.95,4.13 -1.11,6.94 0,0.33 0.16,0.5 0.49,0.5l28.38 0c0.33,0 0.5,-0.17 0.5,-0.5 -0.17,-2.73 -0.41,-4.75 -0.74,-6.07 -0.83,-3.22 -2.46,-5.8 -4.9,-7.75 -2.44,-1.94 -5.47,-2.91 -9.11,-2.91z"/>
  <path id="_36" class="fil1" d="M406.06 862.12c-8.34,0 -14.97,-2.38 -19.89,-7.13 -4.92,-4.75 -7.37,-11.13 -7.37,-19.14l0 -36.68c0,-8.02 2.46,-14.38 7.37,-19.09 4.91,-4.71 11.54,-7.06 19.89,-7.06 8.34,0 15.02,2.35 20.01,7.06 5,4.71 7.49,11.07 7.49,19.09l0 36.68c0,8.01 -2.5,14.4 -7.49,19.14 -5,4.75 -11.67,7.13 -20.01,7.13zm0 -10.29c4.79,0 8.59,-1.39 11.4,-4.15 2.81,-2.77 4.21,-6.46 4.21,-11.09l0 -37.92c0,-4.63 -1.4,-8.32 -4.21,-11.09 -2.81,-2.77 -6.61,-4.15 -11.4,-4.15 -4.63,0 -8.34,1.38 -11.15,4.15 -2.81,2.77 -4.21,6.46 -4.21,11.09l0 37.92c0,4.63 1.4,8.32 4.21,11.09 2.81,2.77 6.53,4.15 11.15,4.15z"/>
  <path id="_37" class="fil1" d="M497.51 823.83c1.73,3.47 2.6,7.6 2.6,12.39 0,5.29 -1.15,9.91 -3.47,13.88 -1.98,3.72 -4.94,6.61 -8.86,8.67 -3.92,2.07 -8.53,3.1 -13.82,3.1 -5.29,0 -9.96,-1.05 -14,-3.16 -4.05,-2.1 -7.11,-5.14 -9.17,-9.11 -2.23,-3.88 -3.35,-8.39 -3.35,-13.51 0,-4.54 0.91,-8.72 2.73,-12.52 1.82,-3.8 4.5,-6.65 8.06,-8.55 0.41,-0.17 0.41,-0.37 0,-0.62 -2.64,-1.98 -4.63,-4.05 -5.95,-6.2 -2.31,-3.47 -3.47,-7.44 -3.47,-11.9 0,-4.87 1.4,-9.34 4.21,-13.38 2.07,-3.14 4.94,-5.62 8.61,-7.44 3.68,-1.82 7.79,-2.73 12.33,-2.73 4.63,0 8.71,0.91 12.27,2.73 3.55,1.82 6.36,4.3 8.43,7.44 2.73,4.05 4.09,8.51 4.09,13.38 0,4.46 -1.16,8.51 -3.47,12.14 -1.49,2.31 -3.43,4.29 -5.83,5.95 -0.41,0.25 -0.41,0.46 0,0.62 3.47,1.9 6.15,4.83 8.05,8.8zm-35.19 -33.83c-1.16,2.15 -1.73,4.25 -1.73,6.32 0,3.3 0.78,6.07 2.36,8.3 2.23,3.72 5.86,5.58 10.9,5.58 4.95,0 8.63,-1.9 11.03,-5.7 1.4,-1.98 2.11,-4.75 2.11,-8.3 0,-2.31 -0.54,-4.42 -1.61,-6.32 -1.07,-2.07 -2.6,-3.72 -4.58,-4.96 -1.98,-1.24 -4.34,-1.86 -7.06,-1.86 -2.56,0 -4.83,0.62 -6.82,1.86 -1.98,1.24 -3.51,2.93 -4.58,5.08zm22.92 55.89c1.9,-2.64 2.85,-6.2 2.85,-10.66 0,-3.97 -0.7,-7.23 -2.1,-9.79 -2.31,-4.29 -6.36,-6.44 -12.14,-6.44 -5.62,0 -9.58,2.02 -11.9,6.07 -1.57,2.64 -2.36,6.07 -2.36,10.29 0,4.13 0.87,7.52 2.6,10.16 2.4,3.96 6.32,5.95 11.77,5.95 5.12,0 8.88,-1.86 11.27,-5.58z"/>
  <path id="_38" class="fil1" d="M511.14 860.88c-0.91,0 -1.24,-0.46 -0.99,-1.36l29.12 -84.39c0.25,-0.66 0.74,-0.99 1.49,-0.99l9.29 0c0.91,0 1.24,0.45 0.99,1.36l-29.12 84.39c-0.25,0.66 -0.74,0.99 -1.49,0.99l-9.29 0z"/>
  <path id="_39" class="fil1" d="M594.29 862.12c-8.34,0 -14.97,-2.38 -19.89,-7.13 -4.92,-4.75 -7.37,-11.13 -7.37,-19.14l0 -36.68c0,-8.02 2.46,-14.38 7.37,-19.09 4.91,-4.71 11.54,-7.06 19.89,-7.06 8.34,0 15.02,2.35 20.01,7.06 5,4.71 7.49,11.07 7.49,19.09l0 36.68c0,8.01 -2.5,14.4 -7.49,19.14 -5,4.75 -11.67,7.13 -20.01,7.13zm0 -10.29c4.79,0 8.59,-1.39 11.4,-4.15 2.81,-2.77 4.21,-6.46 4.21,-11.09l0 -37.92c0,-4.63 -1.4,-8.32 -4.21,-11.09 -2.81,-2.77 -6.61,-4.15 -11.4,-4.15 -4.63,0 -8.34,1.38 -11.15,4.15 -2.81,2.77 -4.21,6.46 -4.21,11.09l0 37.92c0,4.63 1.4,8.32 4.21,11.09 2.81,2.77 6.53,4.15 11.15,4.15z"/>
  <path id="_40" class="fil1" d="M687.48 822.47c0.91,3.63 1.36,7.39 1.36,11.27 0,3.88 -0.5,7.48 -1.49,10.78 -1.57,5.29 -4.56,9.48 -8.98,12.58 -4.42,3.1 -9.68,4.65 -15.8,4.65 -6.03,0 -11.19,-1.49 -15.49,-4.46 -4.29,-2.97 -7.31,-7.02 -9.05,-12.14 -0.83,-2.31 -1.28,-4.34 -1.36,-6.07l0 -0.25c0,-0.66 0.37,-0.99 1.12,-0.99l9.79 0c0.75,0 1.16,0.37 1.24,1.12 0.08,0.58 0.29,1.44 0.62,2.6 0.91,3.06 2.5,5.47 4.77,7.25 2.27,1.78 5.02,2.66 8.24,2.66 3.39,0 6.26,-0.93 8.61,-2.79 2.35,-1.86 3.95,-4.44 4.77,-7.74 0.58,-1.74 0.87,-4.13 0.87,-7.19 0,-2.73 -0.25,-5.24 -0.74,-7.56 -0.58,-3.14 -2.05,-5.56 -4.4,-7.25 -2.36,-1.69 -5.27,-2.54 -8.74,-2.54 -3.22,0 -6.11,0.72 -8.68,2.17 -2.56,1.44 -4.21,3.37 -4.95,5.76 -0.25,0.74 -0.7,1.11 -1.36,1.11l-9.91 0c-0.83,0 -1.24,-0.41 -1.24,-1.24l0 -48.83c0,-0.83 0.41,-1.24 1.24,-1.24l46.35 0c0.83,0 1.24,0.41 1.24,1.24l0 7.81c0,0.83 -0.41,1.24 -1.24,1.24l-35.19 0c-0.33,0 -0.5,0.17 -0.5,0.49l-0.12 25.9c0,0.5 0.21,0.62 0.62,0.37 1.98,-1.73 4.27,-3.04 6.88,-3.9 2.6,-0.87 5.35,-1.3 8.24,-1.3 5.78,0 10.76,1.45 14.93,4.34 4.17,2.89 6.96,6.94 8.36,12.14z"/>
  <path id="_41" class="fil1" d="M698.88 860.88c-0.91,0 -1.24,-0.46 -0.99,-1.36l29.12 -84.39c0.25,-0.66 0.74,-0.99 1.49,-0.99l9.29 0c0.91,0 1.24,0.45 0.99,1.36l-29.12 84.39c-0.25,0.66 -0.74,0.99 -1.49,0.99l-9.29 0z"/>
  <path id="_42" class="fil1" d="M769.27 849.98c-0.08,0.17 -0.08,0.31 0,0.43 0.08,0.12 0.21,0.19 0.37,0.19l37.3 0c0.83,0 1.24,0.41 1.24,1.24l0 7.81c0,0.83 -0.41,1.24 -1.24,1.24l-51.92 0c-0.83,0 -1.24,-0.41 -1.24,-1.24l0 -7.56c0,-0.58 0.21,-1.07 0.62,-1.49 2.81,-3.22 9.25,-10.78 19.33,-22.68l8.55 -10.29c7.68,-9.17 11.52,-16.28 11.52,-21.31 0,-3.88 -1.3,-7 -3.9,-9.36 -2.6,-2.36 -6.05,-3.53 -10.35,-3.53 -4.29,0 -7.73,1.2 -10.29,3.59 -2.56,2.39 -3.8,5.54 -3.72,9.42l0 3.72c0,0.83 -0.41,1.24 -1.24,1.24l-9.54 0c-0.83,0 -1.24,-0.41 -1.24,-1.24l0 -5.33c0.17,-4.29 1.39,-8.1 3.66,-11.4 2.27,-3.31 5.35,-5.85 9.23,-7.62 3.88,-1.78 8.26,-2.66 13.14,-2.66 5.29,0 9.91,0.99 13.88,2.97 3.97,1.98 7.02,4.71 9.17,8.18 2.15,3.47 3.22,7.39 3.22,11.77 0,6.86 -3.71,14.95 -11.15,24.29 -3.31,4.21 -7.23,8.94 -11.77,14.19 -4.54,5.25 -9.09,10.39 -13.63,15.43z"/>
  <path id="_43" class="fil1" d="M868.77 819.74c1.65,4.05 2.48,8.72 2.48,14 0,4.38 -0.66,8.43 -1.98,12.14 -1.82,5.12 -4.83,9.07 -9.05,11.83 -4.21,2.77 -9.29,4.15 -15.24,4.15 -5.95,0 -11.09,-1.53 -15.43,-4.58 -4.34,-3.06 -7.38,-7.19 -9.11,-12.39 -0.91,-2.31 -1.44,-5.62 -1.61,-9.91 0,-0.83 0.41,-1.24 1.24,-1.24l9.54 0c0.83,0 1.24,0.41 1.24,1.24 0.17,2.97 0.5,5.16 0.99,6.57 0.83,3.06 2.37,5.49 4.65,7.31 2.27,1.82 5.1,2.73 8.49,2.73 6.28,0 10.49,-2.85 12.64,-8.55 1.07,-2.48 1.61,-5.7 1.61,-9.66 0,-4.21 -0.66,-7.97 -1.98,-11.28 -2.31,-5.12 -6.44,-7.68 -12.39,-7.68 -1.41,0 -3.18,0.62 -5.33,1.86 -0.33,0.17 -0.58,0.25 -0.74,0.25 -0.41,0 -0.75,-0.21 -0.99,-0.62l-4.71 -6.44c-0.17,-0.33 -0.25,-0.62 -0.25,-0.87 0,-0.25 0.12,-0.54 0.37,-0.87l21.19 -22.68c0.25,-0.41 0.16,-0.62 -0.25,-0.62l-32.96 0c-0.83,0 -1.24,-0.41 -1.24,-1.24l0 -7.81c0,-0.83 0.41,-1.24 1.24,-1.24l48.08 0c0.83,0 1.24,0.41 1.24,1.24l0 8.92c0,0.41 -0.21,0.91 -0.62,1.49l-18.84 20.57c-0.17,0.17 -0.21,0.31 -0.12,0.43 0.08,0.12 0.25,0.23 0.5,0.31 4.21,0.41 7.76,1.71 10.66,3.9 2.89,2.19 5.12,5.1 6.69,8.73z"/>
  <g id="_2026575219920">
   <path class="fil2" d="M426.42 974.99l12.09 1.78c1,0.14 1.84,0.85 2.16,1.82 0.32,0.98 0.06,2.04 -0.67,2.76l-8.77 8.6 2.07 12.33c0.17,1.01 -0.25,2.04 -1.09,2.63 -0.83,0.6 -1.94,0.67 -2.84,0.2l-10.8 -5.77 -10.8 5.77c-0.91,0.48 -2.01,0.4 -2.84,-0.2 -0.83,-0.6 -1.25,-1.62 -1.08,-2.63l2.07 -12.33 -8.77 -8.6c-0.72,-0.73 -0.98,-1.78 -0.66,-2.76 0.32,-0.97 1.16,-1.68 2.16,-1.82l12.08 -1.78 5.42 -11.13c0.45,-0.93 1.39,-1.52 2.42,-1.52 1.03,0 1.98,0.59 2.42,1.52l5.41 11.13z"/>
   <path class="fil2" d="M533.16 971.84l16.38 2.42c1.36,0.19 2.5,1.15 2.93,2.46 0.43,1.32 0.08,2.76 -0.9,3.74l-11.88 11.65 2.8 16.71c0.23,1.37 -0.33,2.76 -1.47,3.57 -1.13,0.81 -2.62,0.91 -3.84,0.26l-14.63 -7.81 -14.62 7.81c-1.23,0.65 -2.72,0.55 -3.85,-0.26 -1.13,-0.81 -1.7,-2.2 -1.46,-3.57l2.8 -16.71 -11.88 -11.65c-0.98,-0.98 -1.33,-2.42 -0.9,-3.74 0.43,-1.31 1.57,-2.27 2.93,-2.46l16.37 -2.42 7.34 -15.08c0.6,-1.26 1.88,-2.05 3.27,-2.05 1.4,0 2.68,0.8 3.28,2.05l7.33 15.08z"/>
   <path class="fil2" d="M640.88 967.57l22.18 3.27c1.84,0.26 3.38,1.56 3.97,3.34 0.59,1.79 0.11,3.74 -1.22,5.06l-16.09 15.78 3.8 22.63c0.31,1.85 -0.45,3.74 -1.99,4.83 -1.53,1.1 -3.55,1.23 -5.2,0.36l-19.82 -10.58 -19.81 10.58c-1.67,0.88 -3.69,0.74 -5.22,-0.36 -1.53,-1.1 -2.3,-2.98 -1.98,-4.83l3.8 -22.63 -16.09 -15.78c-1.33,-1.33 -1.8,-3.27 -1.22,-5.06 0.58,-1.78 2.12,-3.07 3.97,-3.34l22.17 -3.27 9.94 -20.43c0.82,-1.7 2.55,-2.78 4.43,-2.78 1.9,0 3.63,1.08 4.45,2.78l9.93 20.43z"/>
   <path class="fil2" d="M741.08 971.84l16.38 2.42c1.36,0.19 2.5,1.15 2.93,2.46 0.43,1.32 0.08,2.76 -0.9,3.74l-11.88 11.65 2.8 16.71c0.23,1.37 -0.33,2.76 -1.47,3.57 -1.13,0.81 -2.62,0.91 -3.84,0.26l-14.63 -7.81 -14.62 7.81c-1.23,0.65 -2.72,0.55 -3.85,-0.26 -1.13,-0.81 -1.7,-2.2 -1.46,-3.57l2.8 -16.71 -11.88 -11.65c-0.98,-0.98 -1.33,-2.42 -0.9,-3.74 0.43,-1.31 1.57,-2.27 2.93,-2.46l16.37 -2.42 7.34 -15.08c0.6,-1.26 1.88,-2.05 3.27,-2.05 1.4,0 2.68,0.8 3.28,2.05l7.33 15.08z"/>
   <path class="fil2" d="M842.26 974.99l12.09 1.78c1,0.14 1.84,0.85 2.16,1.82 0.32,0.98 0.06,2.04 -0.67,2.76l-8.77 8.6 2.07 12.33c0.17,1.01 -0.25,2.04 -1.09,2.63 -0.83,0.6 -1.94,0.67 -2.84,0.2l-10.8 -5.77 -10.79 5.77c-0.91,0.48 -2.01,0.4 -2.84,-0.2 -0.83,-0.6 -1.25,-1.62 -1.08,-2.63l2.07 -12.33 -8.77 -8.6c-0.72,-0.73 -0.98,-1.78 -0.66,-2.76 0.32,-0.97 1.16,-1.68 2.17,-1.82l12.08 -1.78 5.42 -11.13c0.45,-0.93 1.39,-1.52 2.42,-1.52 1.03,0 1.98,0.59 2.42,1.52l5.41 11.13z"/>
  </g>
 </g>
</svg>
