<?xml version="1.0" encoding="UTF-8"?>
<!DOCTYPE svg PUBLIC "-//W3C//DTD SVG 1.1//EN" "http://www.w3.org/Graphics/SVG/1.1/DTD/svg11.dtd">
<!-- Creator: CorelDRAW -->
<svg xmlns="http://www.w3.org/2000/svg" xml:space="preserve" width="42.3334mm" height="32.0924mm" version="1.1" style="shape-rendering:geometricPrecision; text-rendering:geometricPrecision; image-rendering:optimizeQuality; fill-rule:evenodd; clip-rule:evenodd"
viewBox="0 0 505.4 383.14"
 xmlns:xlink="http://www.w3.org/1999/xlink"
 xmlns:xodm="http://www.corel.com/coreldraw/odm/2003">
 <defs>
  <style type="text/css">
   <![CDATA[
    .fil2 {fill:#ED1521}
    .fil0 {fill:white}
    .fil1 {fill:#333333;fill-rule:nonzero}
    .fil3 {fill:white;fill-rule:nonzero}
   ]]>
  </style>
 </defs>
 <g id="Layer_x0020_1">
  <metadata id="CorelCorpID_0Corel-Layer"/>
  <g id="_2027954153120">
   <rect class="fil0" x="0" y="-0" width="505.4" height="383.14" rx="21.47" ry="16.27"/>
   <g>
    <path class="fil1" d="M117.69 75.75l0 -30.79 5.02 0 0 30.79 -5.02 0zm4.18 0l0 -4.39 14.43 0 0 4.39 -14.43 0zm0 -13.45l0 -4.39 13.24 0 0 4.39 -13.24 0zm0 -12.95l0 -4.39 14.05 0 0 4.39 -14.05 0z"/>
    <polygon id="_1" class="fil1" points="142.91,75.75 142.91,44.96 149.74,44.96 158.18,64.4 158.89,64.4 167.25,44.96 174.16,44.96 174.16,75.75 169.14,75.75 169.14,49.47 169.65,49.56 161.13,69.42 155.56,69.42 146.96,49.56 147.55,49.47 147.55,75.75 "/>
    <path id="_2" class="fil1" d="M186.65 65.67l0 -4.43 6.41 0c1.35,0 2.47,-0.26 3.35,-0.78 0.89,-0.52 1.57,-1.24 2.05,-2.15 0.48,-0.91 0.72,-1.95 0.72,-3.1 0,-1.18 -0.24,-2.23 -0.72,-3.14 -0.48,-0.91 -1.16,-1.62 -2.05,-2.13 -0.89,-0.51 -2,-0.76 -3.35,-0.76l-6.41 0 0 -4.43 5.82 0c2.56,0 4.72,0.42 6.47,1.25 1.76,0.83 3.09,2 4.01,3.5 0.91,1.5 1.37,3.3 1.37,5.38l0 0.67c0,2.05 -0.46,3.84 -1.37,5.36 -0.91,1.52 -2.25,2.69 -4.01,3.52 -1.76,0.83 -3.92,1.24 -6.47,1.24l-5.82 0zm-4.22 10.08l0 -31 5.06 0 0 31 -5.06 0z"/>
    <path id="_3" class="fil1" d="M209.8 75.75l0 -31 5.06 0 0 31 -5.06 0zm18.9 0l-9.78 -13.54 5.74 0 10.08 13.54 -6.03 0zm-15.48 -10.71l0 -4.26 8.01 0c1.21,0 2.25,-0.25 3.12,-0.74 0.87,-0.49 1.54,-1.17 2,-2.05 0.46,-0.87 0.7,-1.88 0.7,-3.04 0,-1.12 -0.23,-2.12 -0.7,-2.99 -0.46,-0.87 -1.13,-1.56 -2,-2.07 -0.87,-0.51 -1.91,-0.76 -3.12,-0.76l-8.01 0 0 -4.39 7.34 0c2.36,0 4.41,0.36 6.16,1.08 1.74,0.72 3.09,1.79 4.05,3.23 0.96,1.43 1.44,3.28 1.44,5.53l0 0.68c0,2.25 -0.49,4.09 -1.46,5.53 -0.97,1.43 -2.32,2.5 -4.05,3.21 -1.73,0.7 -3.78,1.05 -6.14,1.05l-7.34 0z"/>
    <path id="_4" class="fil1" d="M239.75 75.75l0 -30.79 5.02 0 0 30.79 -5.02 0zm4.18 0l0 -4.39 14.43 0 0 4.39 -14.43 0zm0 -13.45l0 -4.39 13.24 0 0 4.39 -13.24 0zm0 -12.95l0 -4.39 14.05 0 0 4.39 -14.05 0z"/>
    <path id="_5" class="fil1" d="M274.93 76.51c-2.64,0 -4.89,-0.43 -6.73,-1.29 -1.84,-0.86 -3.24,-2.04 -4.2,-3.54 -0.96,-1.5 -1.43,-3.21 -1.43,-5.13l4.98 0c0,0.87 0.24,1.73 0.72,2.57 0.48,0.84 1.25,1.54 2.32,2.09 1.07,0.55 2.52,0.82 4.34,0.82 1.66,0 3.03,-0.24 4.11,-0.72 1.08,-0.48 1.88,-1.11 2.4,-1.9 0.52,-0.79 0.78,-1.66 0.78,-2.61 0,-1.18 -0.51,-2.14 -1.52,-2.89 -1.01,-0.74 -2.53,-1.2 -4.56,-1.37l-3.08 -0.3c-2.84,-0.22 -5.1,-1.1 -6.79,-2.64 -1.69,-1.53 -2.53,-3.55 -2.53,-6.05 0,-1.91 0.46,-3.57 1.37,-4.98 0.91,-1.41 2.2,-2.51 3.86,-3.31 1.66,-0.8 3.59,-1.2 5.78,-1.2 2.25,0 4.2,0.4 5.86,1.2 1.66,0.8 2.95,1.93 3.86,3.37 0.91,1.45 1.37,3.17 1.37,5.17l-4.98 0c0,-0.9 -0.22,-1.75 -0.65,-2.55 -0.44,-0.8 -1.1,-1.46 -2,-1.96 -0.9,-0.51 -2.05,-0.76 -3.46,-0.76 -1.35,0 -2.47,0.24 -3.35,0.72 -0.88,0.48 -1.55,1.1 -2,1.86 -0.45,0.76 -0.67,1.57 -0.67,2.45 0,1.04 0.39,1.96 1.18,2.76 0.79,0.8 2,1.27 3.63,1.41l3.04 0.25c2.17,0.17 4.04,0.63 5.63,1.37 1.59,0.74 2.83,1.74 3.71,2.97 0.89,1.24 1.33,2.73 1.33,4.47 0,1.91 -0.51,3.6 -1.54,5.06 -1.03,1.46 -2.46,2.6 -4.3,3.42 -1.84,0.82 -4,1.22 -6.47,1.22z"/>
    <path id="_6" class="fil1" d="M290.07 75.75l10.8 -30.79 8.39 0 11.14 30.79 -5.23 0 -9.74 -27.42 2.07 0.97 -5.1 0 2.19 -0.97 -9.45 27.42 -5.06 0zm7 -8.69l1.6 -4.39 12.91 0 1.65 4.39 -16.16 0z"/>
    <path id="_7" class="fil1" d="M339.08 75.92l0 -4.68 7.04 0c1.72,0 3.25,-0.27 4.6,-0.82 1.35,-0.55 2.5,-1.31 3.46,-2.3 0.96,-0.98 1.68,-2.14 2.17,-3.48 0.49,-1.34 0.74,-2.78 0.74,-4.32 0,-1.66 -0.25,-3.15 -0.74,-4.47 -0.49,-1.32 -1.22,-2.46 -2.17,-3.42 -0.96,-0.96 -2.11,-1.7 -3.46,-2.21 -1.35,-0.52 -2.88,-0.78 -4.6,-0.78l-7.04 0 0 -4.68 6.62 0c2.78,0 5.21,0.42 7.28,1.27 2.07,0.84 3.79,1.98 5.17,3.42 1.38,1.43 2.4,3.05 3.08,4.85 0.67,1.8 1.01,3.66 1.01,5.57l0 0.93c0,1.8 -0.34,3.61 -1.01,5.42 -0.68,1.81 -1.7,3.44 -3.08,4.89 -1.38,1.45 -3.1,2.61 -5.17,3.5 -2.07,0.89 -4.49,1.33 -7.28,1.33l-6.62 0zm-4.22 0l0 -31.17 5.06 0 0 31.17 -5.06 0z"/>
    <path id="_8" class="fil1" d="M368.1 75.75l0 -30.79 5.02 0 0 30.79 -5.02 0zm4.18 0l0 -4.39 14.43 0 0 4.39 -14.43 0zm0 -13.45l0 -4.39 13.24 0 0 4.39 -13.24 0zm0 -12.95l0 -4.39 14.05 0 0 4.39 -14.05 0z"/>
    <path id="_9" class="fil1" d="M90.73 130.96l0 -30.79 5.06 0 0 30.79 -5.06 0zm4.22 -13.29l0 -4.39 12.78 0 0 4.39 -12.78 0zm0 -13.12l0 -4.39 13.41 0 0 4.39 -13.41 0z"/>
    <path id="_10" class="fil1" d="M128.36 131.72c-2.78,0 -5.18,-0.48 -7.19,-1.46 -2.01,-0.97 -3.68,-2.26 -5,-3.86 -1.32,-1.6 -2.3,-3.32 -2.93,-5.17 -0.63,-1.84 -0.95,-3.61 -0.95,-5.29l0 -0.93c0,-1.86 0.33,-3.71 0.99,-5.57 0.66,-1.86 1.66,-3.55 3,-5.08 1.34,-1.53 3.01,-2.76 5.02,-3.69 2.01,-0.93 4.37,-1.39 7.07,-1.39 2.7,0 5.05,0.46 7.04,1.39 2,0.93 3.67,2.16 5.02,3.69 1.35,1.53 2.36,3.23 3.02,5.08 0.66,1.86 0.99,3.71 0.99,5.57l0 0.93c0,1.69 -0.32,3.45 -0.97,5.29 -0.65,1.84 -1.62,3.56 -2.93,5.17 -1.31,1.6 -2.97,2.89 -5,3.86 -2.02,0.97 -4.41,1.46 -7.17,1.46zm0 -4.68c1.69,0 3.21,-0.31 4.56,-0.93 1.35,-0.62 2.5,-1.46 3.46,-2.53 0.96,-1.07 1.68,-2.29 2.17,-3.67 0.49,-1.38 0.74,-2.84 0.74,-4.39 0,-1.63 -0.25,-3.14 -0.76,-4.53 -0.51,-1.39 -1.23,-2.61 -2.17,-3.67 -0.94,-1.06 -2.09,-1.88 -3.44,-2.47 -1.35,-0.59 -2.87,-0.89 -4.56,-0.89 -1.69,0 -3.21,0.29 -4.56,0.89 -1.35,0.59 -2.5,1.41 -3.46,2.47 -0.96,1.05 -1.68,2.28 -2.17,3.67 -0.49,1.39 -0.74,2.9 -0.74,4.53 0,1.55 0.25,3.01 0.74,4.39 0.49,1.38 1.22,2.6 2.17,3.67 0.96,1.07 2.11,1.91 3.46,2.53 1.35,0.62 2.87,0.93 4.56,0.93z"/>
    <path id="_11" class="fil1" d="M150.71 130.96l0 -31 5.06 0 0 31 -5.06 0zm18.9 0l-9.78 -13.54 5.74 0 10.08 13.54 -6.03 0zm-15.48 -10.71l0 -4.26 8.01 0c1.21,0 2.25,-0.25 3.12,-0.74 0.87,-0.49 1.54,-1.17 2,-2.05 0.46,-0.87 0.7,-1.88 0.7,-3.04 0,-1.12 -0.23,-2.12 -0.7,-2.99 -0.46,-0.87 -1.13,-1.56 -2,-2.07 -0.87,-0.51 -1.91,-0.76 -3.12,-0.76l-8.01 0 0 -4.39 7.34 0c2.36,0 4.41,0.36 6.16,1.08 1.74,0.72 3.09,1.79 4.05,3.23 0.96,1.43 1.44,3.28 1.44,5.53l0 0.68c0,2.25 -0.49,4.09 -1.46,5.53 -0.97,1.43 -2.32,2.5 -4.05,3.21 -1.73,0.7 -3.78,1.05 -6.14,1.05l-7.34 0z"/>
    <polygon id="_12" class="fil1" points="180.66,130.96 180.66,100.17 187.49,100.17 195.93,119.62 196.64,119.62 205,100.17 211.91,100.17 211.91,130.96 206.89,130.96 206.89,104.69 207.4,104.77 198.88,124.64 193.31,124.64 184.71,104.77 185.3,104.69 185.3,130.96 "/>
    <path id="_13" class="fil1" d="M217.02 130.96l10.8 -30.79 8.39 0 11.14 30.79 -5.23 0 -9.74 -27.42 2.07 0.97 -5.1 0 2.19 -0.97 -9.45 27.42 -5.06 0zm7 -8.69l1.6 -4.39 12.91 0 1.65 4.39 -16.16 0z"/>
    <path id="_14" class="fil1" d="M265.02 131.72c-2.81,0 -5.21,-0.48 -7.19,-1.46 -1.98,-0.97 -3.59,-2.25 -4.81,-3.84 -1.22,-1.59 -2.12,-3.3 -2.7,-5.15 -0.58,-1.84 -0.86,-3.62 -0.86,-5.34l0 -0.93c0,-1.88 0.29,-3.75 0.89,-5.61 0.59,-1.86 1.5,-3.54 2.72,-5.06 1.22,-1.52 2.81,-2.74 4.77,-3.67 1.95,-0.93 4.27,-1.39 6.94,-1.39 2.78,0 5.19,0.49 7.21,1.48 2.02,0.98 3.64,2.35 4.83,4.11 1.2,1.76 1.9,3.83 2.13,6.22l-5.1 0c-0.23,-1.57 -0.75,-2.89 -1.58,-3.94 -0.83,-1.05 -1.88,-1.85 -3.16,-2.38 -1.28,-0.53 -2.72,-0.8 -4.32,-0.8 -1.66,0 -3.13,0.29 -4.41,0.89 -1.28,0.59 -2.34,1.41 -3.18,2.45 -0.84,1.04 -1.48,2.26 -1.92,3.65 -0.44,1.39 -0.65,2.92 -0.65,4.58 0,1.57 0.22,3.06 0.65,4.45 0.44,1.39 1.09,2.62 1.96,3.69 0.87,1.07 1.96,1.9 3.27,2.49 1.31,0.59 2.82,0.89 4.53,0.89 2.47,0 4.56,-0.61 6.24,-1.83 1.69,-1.22 2.71,-2.97 3.08,-5.25l5.15 0c-0.28,2.16 -1.01,4.14 -2.19,5.93 -1.18,1.78 -2.8,3.21 -4.85,4.26 -2.05,1.05 -4.53,1.58 -7.42,1.58zm-0.21 10.08c-0.59,0 -1.18,-0.04 -1.77,-0.13 -0.59,-0.08 -1.08,-0.18 -1.48,-0.29l0 -3.38c0.42,0.11 0.91,0.22 1.48,0.32 0.56,0.1 1.11,0.15 1.65,0.15 0.93,0 1.62,-0.13 2.09,-0.4 0.46,-0.27 0.7,-0.61 0.7,-1.03 0,-0.39 -0.2,-0.7 -0.59,-0.93 -0.39,-0.22 -0.97,-0.34 -1.73,-0.34l-1.86 0 0 -5.27 3.25 0 0 4.05 -2.11 -1.65 0.63 0c1.77,0 3.19,0.35 4.26,1.05 1.07,0.7 1.6,1.73 1.6,3.08 0,1.32 -0.53,2.45 -1.6,3.37 -1.07,0.93 -2.57,1.39 -4.51,1.39z"/>
    <path id="_15" class="fil1" d="M281.59 130.96l10.8 -30.79 8.39 0 11.14 30.79 -5.23 0 -9.74 -27.42 2.07 0.97 -5.1 0 2.19 -0.97 -9.45 27.42 -5.06 0zm7 -8.69l1.6 -4.39 12.91 0 1.65 4.39 -16.16 0zm11.64 -25.18c-0.79,0 -1.47,-0.11 -2.05,-0.32 -0.58,-0.21 -1.1,-0.45 -1.56,-0.72 -0.46,-0.27 -0.94,-0.51 -1.43,-0.72 -0.49,-0.21 -1.08,-0.32 -1.75,-0.32 -0.73,0 -1.42,0.15 -2.07,0.46 -0.65,0.31 -1.17,0.72 -1.56,1.22l-0.84 -3.25c0.42,-0.56 1.02,-1.05 1.79,-1.46 0.77,-0.41 1.69,-0.61 2.76,-0.61 0.79,0 1.47,0.11 2.05,0.32 0.58,0.21 1.1,0.45 1.56,0.72 0.46,0.27 0.95,0.51 1.46,0.72 0.51,0.21 1.08,0.32 1.73,0.32 0.73,0 1.42,-0.16 2.07,-0.46 0.65,-0.31 1.17,-0.73 1.56,-1.27l0.84 3.29c-0.45,0.56 -1.05,1.05 -1.81,1.46 -0.76,0.41 -1.67,0.61 -2.74,0.61z"/>
    <path id="_16" class="fil1" d="M330.1 131.72c-2.78,0 -5.18,-0.48 -7.19,-1.46 -2.01,-0.97 -3.68,-2.26 -5,-3.86 -1.32,-1.6 -2.3,-3.32 -2.93,-5.17 -0.63,-1.84 -0.95,-3.61 -0.95,-5.29l0 -0.93c0,-1.86 0.33,-3.71 0.99,-5.57 0.66,-1.86 1.66,-3.55 3,-5.08 1.34,-1.53 3.01,-2.76 5.02,-3.69 2.01,-0.93 4.37,-1.39 7.07,-1.39 2.7,0 5.05,0.46 7.04,1.39 2,0.93 3.67,2.16 5.02,3.69 1.35,1.53 2.36,3.23 3.02,5.08 0.66,1.86 0.99,3.71 0.99,5.57l0 0.93c0,1.69 -0.32,3.45 -0.97,5.29 -0.65,1.84 -1.62,3.56 -2.93,5.17 -1.31,1.6 -2.97,2.89 -5,3.86 -2.02,0.97 -4.41,1.46 -7.17,1.46zm0 -4.68c1.69,0 3.21,-0.31 4.56,-0.93 1.35,-0.62 2.5,-1.46 3.46,-2.53 0.96,-1.07 1.68,-2.29 2.17,-3.67 0.49,-1.38 0.74,-2.84 0.74,-4.39 0,-1.63 -0.25,-3.14 -0.76,-4.53 -0.51,-1.39 -1.23,-2.61 -2.17,-3.67 -0.94,-1.06 -2.09,-1.88 -3.44,-2.47 -1.35,-0.59 -2.87,-0.89 -4.56,-0.89 -1.69,0 -3.21,0.29 -4.56,0.89 -1.35,0.59 -2.5,1.41 -3.46,2.47 -0.96,1.05 -1.68,2.28 -2.17,3.67 -0.49,1.39 -0.74,2.9 -0.74,4.53 0,1.55 0.25,3.01 0.74,4.39 0.49,1.38 1.22,2.6 2.17,3.67 0.96,1.07 2.11,1.91 3.46,2.53 1.35,0.62 2.87,0.93 4.56,0.93z"/>
    <path id="_17" class="fil1" d="M366.04 131.13l0 -4.68 7.04 0c1.72,0 3.25,-0.27 4.6,-0.82 1.35,-0.55 2.5,-1.31 3.46,-2.3 0.96,-0.98 1.68,-2.14 2.17,-3.48 0.49,-1.34 0.74,-2.78 0.74,-4.32 0,-1.66 -0.25,-3.15 -0.74,-4.47 -0.49,-1.32 -1.22,-2.46 -2.17,-3.42 -0.96,-0.96 -2.11,-1.7 -3.46,-2.21 -1.35,-0.52 -2.88,-0.78 -4.6,-0.78l-7.04 0 0 -4.68 6.62 0c2.78,0 5.21,0.42 7.28,1.27 2.07,0.84 3.79,1.98 5.17,3.42 1.38,1.43 2.4,3.05 3.08,4.85 0.67,1.8 1.01,3.66 1.01,5.57l0 0.93c0,1.8 -0.34,3.61 -1.01,5.42 -0.68,1.81 -1.7,3.44 -3.08,4.89 -1.38,1.45 -3.1,2.61 -5.17,3.5 -2.07,0.89 -4.49,1.33 -7.28,1.33l-6.62 0zm-4.22 0l0 -31.17 5.06 0 0 31.17 -5.06 0z"/>
    <path id="_18" class="fil1" d="M395.05 130.96l0 -30.79 5.02 0 0 30.79 -5.02 0zm4.18 0l0 -4.39 14.43 0 0 4.39 -14.43 0zm0 -13.45l0 -4.39 13.24 0 0 4.39 -13.24 0zm0 -12.95l0 -4.39 14.05 0 0 4.39 -14.05 0z"/>
    <polygon id="_19" class="fil1" points="81.58,186.18 71.37,155.39 76.56,155.39 85.42,182.76 83.56,181.83 88.37,181.83 86.35,182.76 94.53,155.39 99.59,155.39 90.06,186.18 "/>
    <polygon id="_20" class="fil1" points="104.99,186.18 104.99,155.39 110.05,155.39 110.05,186.18 "/>
    <path id="_21" class="fil1" d="M128.65 186.94c-2.64,0 -4.89,-0.43 -6.73,-1.29 -1.84,-0.86 -3.24,-2.04 -4.2,-3.54 -0.96,-1.5 -1.43,-3.21 -1.43,-5.13l4.98 0c0,0.87 0.24,1.73 0.72,2.57 0.48,0.84 1.25,1.54 2.32,2.09 1.07,0.55 2.52,0.82 4.34,0.82 1.66,0 3.03,-0.24 4.11,-0.72 1.08,-0.48 1.88,-1.11 2.4,-1.9 0.52,-0.79 0.78,-1.66 0.78,-2.61 0,-1.18 -0.51,-2.14 -1.52,-2.89 -1.01,-0.74 -2.53,-1.2 -4.56,-1.37l-3.08 -0.3c-2.84,-0.22 -5.1,-1.1 -6.79,-2.64 -1.69,-1.53 -2.53,-3.55 -2.53,-6.05 0,-1.91 0.46,-3.57 1.37,-4.98 0.91,-1.41 2.2,-2.51 3.86,-3.31 1.66,-0.8 3.59,-1.2 5.78,-1.2 2.25,0 4.2,0.4 5.86,1.2 1.66,0.8 2.95,1.93 3.86,3.37 0.91,1.45 1.37,3.17 1.37,5.17l-4.98 0c0,-0.9 -0.22,-1.75 -0.65,-2.55 -0.44,-0.8 -1.1,-1.46 -2,-1.96 -0.9,-0.51 -2.05,-0.76 -3.46,-0.76 -1.35,0 -2.47,0.24 -3.35,0.72 -0.88,0.48 -1.55,1.1 -2,1.86 -0.45,0.76 -0.67,1.57 -0.67,2.45 0,1.04 0.39,1.96 1.18,2.76 0.79,0.8 2,1.27 3.63,1.41l3.04 0.25c2.17,0.17 4.04,0.63 5.63,1.37 1.59,0.74 2.83,1.74 3.71,2.97 0.89,1.24 1.33,2.73 1.33,4.47 0,1.91 -0.51,3.6 -1.54,5.06 -1.03,1.46 -2.46,2.6 -4.3,3.42 -1.84,0.82 -4,1.22 -6.47,1.22z"/>
    <path id="_22" class="fil1" d="M152.4 186.18l0 -27.16 5.06 0 0 27.16 -5.06 0zm-9.11 -26.32l0 -4.47 23.33 0 0 4.47 -23.33 0z"/>
    <path id="_23" class="fil1" d="M185 186.94c-2.78,0 -5.18,-0.48 -7.19,-1.46 -2.01,-0.97 -3.68,-2.26 -5,-3.86 -1.32,-1.6 -2.3,-3.32 -2.93,-5.17 -0.63,-1.84 -0.95,-3.61 -0.95,-5.29l0 -0.93c0,-1.86 0.33,-3.71 0.99,-5.57 0.66,-1.86 1.66,-3.55 3,-5.08 1.34,-1.53 3.01,-2.76 5.02,-3.69 2.01,-0.93 4.37,-1.39 7.07,-1.39 2.7,0 5.05,0.46 7.04,1.39 2,0.93 3.67,2.16 5.02,3.69 1.35,1.53 2.36,3.23 3.02,5.08 0.66,1.86 0.99,3.71 0.99,5.57l0 0.93c0,1.69 -0.32,3.45 -0.97,5.29 -0.65,1.84 -1.62,3.56 -2.93,5.17 -1.31,1.6 -2.97,2.89 -5,3.86 -2.02,0.97 -4.41,1.46 -7.17,1.46zm0 -4.68c1.69,0 3.21,-0.31 4.56,-0.93 1.35,-0.62 2.5,-1.46 3.46,-2.53 0.96,-1.07 1.68,-2.29 2.17,-3.67 0.49,-1.38 0.74,-2.84 0.74,-4.39 0,-1.63 -0.25,-3.14 -0.76,-4.53 -0.51,-1.39 -1.23,-2.61 -2.17,-3.67 -0.94,-1.06 -2.09,-1.88 -3.44,-2.47 -1.35,-0.59 -2.87,-0.89 -4.56,-0.89 -1.69,0 -3.21,0.29 -4.56,0.89 -1.35,0.59 -2.5,1.41 -3.46,2.47 -0.96,1.05 -1.68,2.28 -2.17,3.67 -0.49,1.39 -0.74,2.9 -0.74,4.53 0,1.55 0.25,3.01 0.74,4.39 0.49,1.38 1.22,2.6 2.17,3.67 0.96,1.07 2.11,1.91 3.46,2.53 1.35,0.62 2.87,0.93 4.56,0.93z"/>
    <path id="_24" class="fil1" d="M207.36 186.18l0 -31 5.06 0 0 31 -5.06 0zm18.9 0l-9.78 -13.54 5.74 0 10.08 13.54 -6.03 0zm-15.48 -10.71l0 -4.26 8.01 0c1.21,0 2.25,-0.25 3.12,-0.74 0.87,-0.49 1.54,-1.17 2,-2.05 0.46,-0.87 0.7,-1.88 0.7,-3.04 0,-1.12 -0.23,-2.12 -0.7,-2.99 -0.46,-0.87 -1.13,-1.56 -2,-2.07 -0.87,-0.51 -1.91,-0.76 -3.12,-0.76l-8.01 0 0 -4.39 7.34 0c2.36,0 4.41,0.36 6.16,1.08 1.74,0.72 3.09,1.79 4.05,3.23 0.96,1.43 1.44,3.28 1.44,5.53l0 0.68c0,2.25 -0.49,4.09 -1.46,5.53 -0.97,1.43 -2.32,2.5 -4.05,3.21 -1.73,0.7 -3.78,1.05 -6.14,1.05l-7.34 0z"/>
    <polygon id="_25" class="fil1" points="237.39,186.18 237.39,155.39 242.45,155.39 242.45,186.18 "/>
    <path id="_26" class="fil1" d="M247.64 186.18l10.8 -30.79 8.39 0 11.14 30.79 -5.23 0 -9.74 -27.42 2.07 0.97 -5.1 0 2.19 -0.97 -9.45 27.42 -5.06 0zm7 -8.69l1.6 -4.39 12.91 0 1.65 4.39 -16.16 0z"/>
    <path id="_27" class="fil1" d="M287.29 186.35l0 -4.68 7.04 0c1.72,0 3.25,-0.27 4.6,-0.82 1.35,-0.55 2.5,-1.31 3.46,-2.3 0.96,-0.98 1.68,-2.14 2.17,-3.48 0.49,-1.34 0.74,-2.78 0.74,-4.32 0,-1.66 -0.25,-3.15 -0.74,-4.47 -0.49,-1.32 -1.22,-2.46 -2.17,-3.42 -0.96,-0.96 -2.11,-1.7 -3.46,-2.21 -1.35,-0.52 -2.88,-0.78 -4.6,-0.78l-7.04 0 0 -4.68 6.62 0c2.78,0 5.21,0.42 7.28,1.27 2.07,0.84 3.79,1.98 5.17,3.42 1.38,1.43 2.4,3.05 3.08,4.85 0.67,1.8 1.01,3.66 1.01,5.57l0 0.93c0,1.8 -0.34,3.61 -1.01,5.42 -0.68,1.81 -1.7,3.44 -3.08,4.89 -1.38,1.45 -3.1,2.61 -5.17,3.5 -2.07,0.89 -4.49,1.33 -7.28,1.33l-6.62 0zm-4.22 0l0 -31.17 5.06 0 0 31.17 -5.06 0z"/>
    <path id="_28" class="fil1" d="M330.44 186.94c-2.78,0 -5.18,-0.48 -7.19,-1.46 -2.01,-0.97 -3.68,-2.26 -5,-3.86 -1.32,-1.6 -2.3,-3.32 -2.93,-5.17 -0.63,-1.84 -0.95,-3.61 -0.95,-5.29l0 -0.93c0,-1.86 0.33,-3.71 0.99,-5.57 0.66,-1.86 1.66,-3.55 3,-5.08 1.34,-1.53 3.01,-2.76 5.02,-3.69 2.01,-0.93 4.37,-1.39 7.07,-1.39 2.7,0 5.05,0.46 7.04,1.39 2,0.93 3.67,2.16 5.02,3.69 1.35,1.53 2.36,3.23 3.02,5.08 0.66,1.86 0.99,3.71 0.99,5.57l0 0.93c0,1.69 -0.32,3.45 -0.97,5.29 -0.65,1.84 -1.62,3.56 -2.93,5.17 -1.31,1.6 -2.97,2.89 -5,3.86 -2.02,0.97 -4.41,1.46 -7.17,1.46zm0 -4.68c1.69,0 3.21,-0.31 4.56,-0.93 1.35,-0.62 2.5,-1.46 3.46,-2.53 0.96,-1.07 1.68,-2.29 2.17,-3.67 0.49,-1.38 0.74,-2.84 0.74,-4.39 0,-1.63 -0.25,-3.14 -0.76,-4.53 -0.51,-1.39 -1.23,-2.61 -2.17,-3.67 -0.94,-1.06 -2.09,-1.88 -3.44,-2.47 -1.35,-0.59 -2.87,-0.89 -4.56,-0.89 -1.69,0 -3.21,0.29 -4.56,0.89 -1.35,0.59 -2.5,1.41 -3.46,2.47 -0.96,1.05 -1.68,2.28 -2.17,3.67 -0.49,1.39 -0.74,2.9 -0.74,4.53 0,1.55 0.25,3.01 0.74,4.39 0.49,1.38 1.22,2.6 2.17,3.67 0.96,1.07 2.11,1.91 3.46,2.53 1.35,0.62 2.87,0.93 4.56,0.93z"/>
    <path id="_29" class="fil1" d="M352.79 186.18l0 -31 5.06 0 0 31 -5.06 0zm18.9 0l-9.78 -13.54 5.74 0 10.08 13.54 -6.03 0zm-15.48 -10.71l0 -4.26 8.01 0c1.21,0 2.25,-0.25 3.12,-0.74 0.87,-0.49 1.54,-1.17 2,-2.05 0.46,-0.87 0.7,-1.88 0.7,-3.04 0,-1.12 -0.23,-2.12 -0.7,-2.99 -0.46,-0.87 -1.13,-1.56 -2,-2.07 -0.87,-0.51 -1.91,-0.76 -3.12,-0.76l-8.01 0 0 -4.39 7.34 0c2.36,0 4.41,0.36 6.16,1.08 1.74,0.72 3.09,1.79 4.05,3.23 0.96,1.43 1.44,3.28 1.44,5.53l0 0.68c0,2.25 -0.49,4.09 -1.46,5.53 -0.97,1.43 -2.32,2.5 -4.05,3.21 -1.73,0.7 -3.78,1.05 -6.14,1.05l-7.34 0z"/>
    <path id="_30" class="fil1" d="M382.74 186.18l0 -30.79 5.02 0 0 30.79 -5.02 0zm4.18 0l0 -4.39 14.43 0 0 4.39 -14.43 0zm0 -13.45l0 -4.39 13.24 0 0 4.39 -13.24 0zm0 -12.95l0 -4.39 14.05 0 0 4.39 -14.05 0z"/>
    <path id="_31" class="fil1" d="M417.92 186.94c-2.64,0 -4.89,-0.43 -6.73,-1.29 -1.84,-0.86 -3.24,-2.04 -4.2,-3.54 -0.96,-1.5 -1.43,-3.21 -1.43,-5.13l4.98 0c0,0.87 0.24,1.73 0.72,2.57 0.48,0.84 1.25,1.54 2.32,2.09 1.07,0.55 2.52,0.82 4.34,0.82 1.66,0 3.03,-0.24 4.11,-0.72 1.08,-0.48 1.88,-1.11 2.4,-1.9 0.52,-0.79 0.78,-1.66 0.78,-2.61 0,-1.18 -0.51,-2.14 -1.52,-2.89 -1.01,-0.74 -2.53,-1.2 -4.56,-1.37l-3.08 -0.3c-2.84,-0.22 -5.1,-1.1 -6.79,-2.64 -1.69,-1.53 -2.53,-3.55 -2.53,-6.05 0,-1.91 0.46,-3.57 1.37,-4.98 0.91,-1.41 2.2,-2.51 3.86,-3.31 1.66,-0.8 3.59,-1.2 5.78,-1.2 2.25,0 4.2,0.4 5.86,1.2 1.66,0.8 2.95,1.93 3.86,3.37 0.91,1.45 1.37,3.17 1.37,5.17l-4.98 0c0,-0.9 -0.22,-1.75 -0.65,-2.55 -0.44,-0.8 -1.1,-1.46 -2,-1.96 -0.9,-0.51 -2.05,-0.76 -3.46,-0.76 -1.35,0 -2.47,0.24 -3.35,0.72 -0.88,0.48 -1.55,1.1 -2,1.86 -0.45,0.76 -0.67,1.57 -0.67,2.45 0,1.04 0.39,1.96 1.18,2.76 0.79,0.8 2,1.27 3.63,1.41l3.04 0.25c2.17,0.17 4.04,0.63 5.63,1.37 1.59,0.74 2.83,1.74 3.71,2.97 0.89,1.24 1.33,2.73 1.33,4.47 0,1.91 -0.51,3.6 -1.54,5.06 -1.03,1.46 -2.46,2.6 -4.3,3.42 -1.84,0.82 -4,1.22 -6.47,1.22z"/>
    <rect class="fil2" x="27.26" y="221.95" width="450.89" height="132.06"/>
    <path class="fil3" d="M104.73 279.86c-2.78,0 -5.17,-0.49 -7.17,-1.48 -2,-0.98 -3.62,-2.26 -4.87,-3.84 -1.25,-1.57 -2.17,-3.29 -2.76,-5.15 -0.59,-1.86 -0.88,-3.64 -0.88,-5.36l0 -0.93c0,-1.91 0.3,-3.8 0.91,-5.65 0.61,-1.86 1.54,-3.54 2.81,-5.06 1.26,-1.52 2.87,-2.73 4.83,-3.65 1.95,-0.91 4.27,-1.37 6.94,-1.37 2.78,0 5.21,0.5 7.28,1.5 2.07,1 3.72,2.4 4.96,4.22 1.24,1.81 1.98,3.93 2.24,6.35l-6.03 0c-0.23,-1.41 -0.72,-2.59 -1.5,-3.56 -0.77,-0.97 -1.75,-1.7 -2.93,-2.19 -1.18,-0.49 -2.52,-0.74 -4.01,-0.74 -1.52,0 -2.87,0.26 -4.05,0.78 -1.18,0.52 -2.17,1.26 -2.95,2.21 -0.79,0.96 -1.38,2.08 -1.79,3.38 -0.41,1.29 -0.61,2.73 -0.61,4.3 0,1.52 0.2,2.92 0.61,4.22 0.41,1.29 1.02,2.43 1.83,3.4 0.82,0.97 1.82,1.72 3.02,2.26 1.2,0.53 2.58,0.8 4.15,0.8 2.31,0 4.25,-0.57 5.84,-1.71 1.59,-1.14 2.55,-2.74 2.89,-4.79l6.03 0c-0.28,2.19 -1.03,4.2 -2.24,6.03 -1.21,1.83 -2.87,3.29 -4.98,4.39 -2.11,1.1 -4.63,1.65 -7.55,1.65z"/>
    <path id="_1_0" class="fil3" d="M124.56 279.06l0 -31 5.99 0 0 31 -5.99 0zm18.81 0l-9.45 -13.41 6.71 0 9.74 13.41 -7 0zm-14.59 -10.29l0 -4.85 7.84 0c1.1,0 2.05,-0.23 2.85,-0.68 0.8,-0.45 1.43,-1.08 1.88,-1.9 0.45,-0.82 0.67,-1.74 0.67,-2.78 0,-1.07 -0.22,-2.01 -0.67,-2.83 -0.45,-0.82 -1.08,-1.45 -1.88,-1.9 -0.8,-0.45 -1.75,-0.68 -2.85,-0.68l-7.84 0 0 -5.1 7.21 0c2.47,0 4.62,0.37 6.43,1.1 1.81,0.73 3.21,1.84 4.2,3.33 0.98,1.49 1.48,3.36 1.48,5.61l0 0.67c0,2.28 -0.5,4.15 -1.5,5.61 -1,1.46 -2.4,2.56 -4.2,3.29 -1.8,0.73 -3.94,1.1 -6.41,1.1l-7.21 0z"/>
    <path id="_2_1" class="fil3" d="M154.93 279.06l0 -30.79 5.86 0 0 30.79 -5.86 0zm5.02 0l0 -5.06 13.96 0 0 5.06 -13.96 0zm0 -13.12l0 -5.06 12.87 0 0 5.06 -12.87 0zm0 -12.61l0 -5.06 13.62 0 0 5.06 -13.62 0z"/>
    <path id="_3_2" class="fil3" d="M185.21 279.23l0 -5.57 6.37 0c1.6,0 3.03,-0.25 4.28,-0.74 1.25,-0.49 2.31,-1.19 3.18,-2.09 0.87,-0.9 1.54,-1.96 2,-3.19 0.46,-1.22 0.7,-2.58 0.7,-4.07 0,-1.55 -0.23,-2.93 -0.7,-4.15 -0.46,-1.22 -1.13,-2.27 -2,-3.14 -0.87,-0.87 -1.93,-1.53 -3.18,-1.98 -1.25,-0.45 -2.68,-0.67 -4.28,-0.67l-6.37 0 0 -5.57 5.99 0c2.78,0 5.22,0.41 7.3,1.22 2.08,0.82 3.81,1.93 5.19,3.35 1.38,1.42 2.41,3.04 3.1,4.85 0.69,1.81 1.03,3.69 1.03,5.63l0 0.93c0,1.86 -0.35,3.68 -1.03,5.48 -0.69,1.8 -1.72,3.43 -3.1,4.89 -1.38,1.46 -3.11,2.63 -5.19,3.5 -2.08,0.87 -4.51,1.31 -7.3,1.31l-5.99 0zm-5.15 0l0 -31.17 5.99 0 0 31.17 -5.99 0z"/>
    <path id="_4_3" class="fil3" d="M213.18 279.06l0 -30.79 5.86 0 0 30.79 -5.86 0zm5.02 0l0 -5.06 13.96 0 0 5.06 -13.96 0zm0 -13.12l0 -5.06 12.87 0 0 5.06 -12.87 0zm0 -12.61l0 -5.06 13.62 0 0 5.06 -13.62 0z"/>
    <polygon id="_5_4" class="fil3" points="238.32,279.06 238.32,248.27 248.15,248.27 261.1,274.08 262.49,274.08 261.64,274.84 261.64,248.27 267.3,248.27 267.3,279.06 257.43,279.06 244.48,253.25 243.04,253.25 243.89,252.49 243.89,279.06 "/>
    <path id="_6_5" class="fil3" d="M288.76 279.86c-2.78,0 -5.17,-0.49 -7.17,-1.48 -2,-0.98 -3.62,-2.26 -4.87,-3.84 -1.25,-1.57 -2.17,-3.29 -2.76,-5.15 -0.59,-1.86 -0.88,-3.64 -0.88,-5.36l0 -0.93c0,-1.91 0.3,-3.8 0.91,-5.65 0.61,-1.86 1.54,-3.54 2.81,-5.06 1.26,-1.52 2.87,-2.73 4.83,-3.65 1.95,-0.91 4.27,-1.37 6.94,-1.37 2.78,0 5.21,0.5 7.28,1.5 2.07,1 3.72,2.4 4.96,4.22 1.24,1.81 1.98,3.93 2.24,6.35l-6.03 0c-0.23,-1.41 -0.72,-2.59 -1.5,-3.56 -0.77,-0.97 -1.75,-1.7 -2.93,-2.19 -1.18,-0.49 -2.52,-0.74 -4.01,-0.74 -1.52,0 -2.87,0.26 -4.05,0.78 -1.18,0.52 -2.17,1.26 -2.95,2.21 -0.79,0.96 -1.38,2.08 -1.79,3.38 -0.41,1.29 -0.61,2.73 -0.61,4.3 0,1.52 0.2,2.92 0.61,4.22 0.41,1.29 1.02,2.43 1.83,3.4 0.82,0.97 1.82,1.72 3.02,2.26 1.2,0.53 2.58,0.8 4.15,0.8 2.31,0 4.25,-0.57 5.84,-1.71 1.59,-1.14 2.55,-2.74 2.89,-4.79l6.03 0c-0.28,2.19 -1.03,4.2 -2.24,6.03 -1.21,1.83 -2.87,3.29 -4.98,4.39 -2.11,1.1 -4.63,1.65 -7.55,1.65z"/>
    <polygon id="_7_6" class="fil3" points="308.67,279.06 308.67,248.27 314.66,248.27 314.66,279.06 "/>
    <path id="_8_7" class="fil3" d="M319.3 279.06l10.5 -30.79 9.79 0 10.8 30.79 -6.16 0 -9.15 -26.7 2.15 0.93 -5.27 0 2.19 -0.93 -8.86 26.7 -5.99 0zm7.34 -8.18l1.9 -5.06 12.49 0 1.86 5.06 -16.24 0z"/>
    <path id="_9_8" class="fil3" d="M360.09 279.23l0 -5.57 6.37 0c1.6,0 3.03,-0.25 4.28,-0.74 1.25,-0.49 2.31,-1.19 3.18,-2.09 0.87,-0.9 1.54,-1.96 2,-3.19 0.46,-1.22 0.7,-2.58 0.7,-4.07 0,-1.55 -0.23,-2.93 -0.7,-4.15 -0.46,-1.22 -1.13,-2.27 -2,-3.14 -0.87,-0.87 -1.93,-1.53 -3.18,-1.98 -1.25,-0.45 -2.68,-0.67 -4.28,-0.67l-6.37 0 0 -5.57 5.99 0c2.78,0 5.22,0.41 7.3,1.22 2.08,0.82 3.81,1.93 5.19,3.35 1.38,1.42 2.41,3.04 3.1,4.85 0.69,1.81 1.03,3.69 1.03,5.63l0 0.93c0,1.86 -0.35,3.68 -1.03,5.48 -0.69,1.8 -1.72,3.43 -3.1,4.89 -1.38,1.46 -3.11,2.63 -5.19,3.5 -2.08,0.87 -4.51,1.31 -7.3,1.31l-5.99 0zm-5.15 0l0 -31.17 5.99 0 0 31.17 -5.99 0z"/>
    <path id="_10_9" class="fil3" d="M383.84 279.06l10.5 -30.79 9.79 0 10.8 30.79 -6.16 0 -9.15 -26.7 2.15 0.93 -5.27 0 2.19 -0.93 -8.86 26.7 -5.99 0zm7.34 -8.18l1.9 -5.06 12.49 0 1.86 5.06 -16.24 0z"/>
    <path id="_11_10" class="fil3" d="M59.58 318.33l0 -5.19 5.99 0c1.21,0 2.23,-0.24 3.06,-0.72 0.83,-0.48 1.46,-1.14 1.9,-1.98 0.44,-0.84 0.65,-1.81 0.65,-2.91 0,-1.1 -0.22,-2.07 -0.65,-2.91 -0.44,-0.84 -1.07,-1.5 -1.9,-1.96 -0.83,-0.46 -1.85,-0.7 -3.06,-0.7l-5.99 0 0 -5.19 5.48 0c2.59,0 4.79,0.42 6.6,1.27 1.81,0.84 3.2,2.05 4.15,3.61 0.96,1.56 1.43,3.41 1.43,5.55l0 0.67c0,2.14 -0.48,3.99 -1.43,5.55 -0.96,1.56 -2.34,2.77 -4.15,3.63 -1.81,0.86 -4.01,1.29 -6.6,1.29l-5.48 0zm-5.15 9.45l0 -31 5.99 0 0 31 -5.99 0z"/>
    <path id="_12_11" class="fil3" d="M82.19 327.78l0 -30.79 5.86 0 0 30.79 -5.86 0zm5.02 0l0 -5.06 13.96 0 0 5.06 -13.96 0zm0 -13.12l0 -5.06 12.87 0 0 5.06 -12.87 0zm0 -12.61l0 -5.06 13.62 0 0 5.06 -13.62 0z"/>
    <path id="_13_12" class="fil3" d="M107.33 327.78l0 -30.79 5.99 0 0 30.79 -5.99 0zm5.15 0l0 -5.27 13.29 0 0 5.27 -13.29 0z"/>
    <path id="_14_13" class="fil3" d="M144.53 328.58c-2.78,0 -5.2,-0.49 -7.23,-1.48 -2.04,-0.98 -3.73,-2.27 -5.06,-3.86 -1.34,-1.59 -2.33,-3.3 -2.99,-5.15 -0.66,-1.84 -0.99,-3.62 -0.99,-5.34l0 -0.93c0,-1.88 0.34,-3.76 1.01,-5.63 0.68,-1.87 1.7,-3.56 3.06,-5.08 1.36,-1.52 3.06,-2.73 5.08,-3.65 2.02,-0.91 4.4,-1.37 7.13,-1.37 2.7,0 5.06,0.46 7.09,1.37 2.02,0.91 3.72,2.13 5.08,3.65 1.36,1.52 2.38,3.21 3.06,5.08 0.67,1.87 1.01,3.75 1.01,5.63l0 0.93c0,1.71 -0.33,3.49 -0.99,5.34 -0.66,1.84 -1.66,3.56 -3,5.15 -1.34,1.59 -3.02,2.87 -5.06,3.86 -2.04,0.98 -4.44,1.48 -7.19,1.48zm0 -5.57c1.57,0 2.99,-0.28 4.24,-0.84 1.25,-0.56 2.32,-1.34 3.21,-2.34 0.89,-1 1.56,-2.14 2.02,-3.42 0.46,-1.28 0.7,-2.64 0.7,-4.07 0,-1.55 -0.23,-2.97 -0.7,-4.26 -0.46,-1.29 -1.14,-2.42 -2.02,-3.38 -0.89,-0.96 -1.96,-1.7 -3.23,-2.23 -1.27,-0.53 -2.67,-0.8 -4.22,-0.8 -1.57,0 -3,0.27 -4.26,0.8 -1.27,0.53 -2.34,1.28 -3.23,2.23 -0.89,0.96 -1.56,2.08 -2.02,3.38 -0.46,1.29 -0.7,2.71 -0.7,4.26 0,1.43 0.23,2.79 0.7,4.07 0.46,1.28 1.14,2.42 2.02,3.42 0.89,1 1.96,1.78 3.23,2.34 1.26,0.56 2.69,0.84 4.26,0.84z"/>
    <path id="_15_14" class="fil3" d="M180.81 327.95l0 -5.57 6.37 0c1.6,0 3.03,-0.25 4.28,-0.74 1.25,-0.49 2.31,-1.19 3.18,-2.09 0.87,-0.9 1.54,-1.96 2,-3.19 0.46,-1.22 0.7,-2.58 0.7,-4.07 0,-1.55 -0.23,-2.93 -0.7,-4.15 -0.46,-1.22 -1.13,-2.27 -2,-3.14 -0.87,-0.87 -1.93,-1.53 -3.18,-1.98 -1.25,-0.45 -2.68,-0.67 -4.28,-0.67l-6.37 0 0 -5.57 5.99 0c2.78,0 5.22,0.41 7.3,1.22 2.08,0.82 3.81,1.93 5.19,3.35 1.38,1.42 2.41,3.04 3.1,4.85 0.69,1.81 1.03,3.69 1.03,5.63l0 0.93c0,1.86 -0.35,3.68 -1.03,5.48 -0.69,1.8 -1.72,3.43 -3.1,4.89 -1.38,1.46 -3.11,2.63 -5.19,3.5 -2.08,0.87 -4.51,1.31 -7.3,1.31l-5.99 0zm-5.15 0l0 -31.17 5.99 0 0 31.17 -5.99 0z"/>
    <path id="_16_15" class="fil3" d="M208.77 327.78l0 -30.79 5.86 0 0 30.79 -5.86 0zm5.02 0l0 -5.06 13.96 0 0 5.06 -13.96 0zm0 -13.12l0 -5.06 12.87 0 0 5.06 -12.87 0zm0 -12.61l0 -5.06 13.62 0 0 5.06 -13.62 0z"/>
    <path id="_17_16" class="fil3" d="M239.98 327.78l0 -26.36 5.99 0 0 26.36 -5.99 0zm-8.9 -25.52l0 -5.27 23.79 0 0 5.27 -23.79 0z"/>
    <path id="_18_17" class="fil3" d="M259.64 327.78l0 -31 5.99 0 0 31 -5.99 0zm18.81 0l-9.45 -13.41 6.71 0 9.74 13.41 -7 0zm-14.59 -10.29l0 -4.85 7.84 0c1.1,0 2.05,-0.23 2.85,-0.68 0.8,-0.45 1.43,-1.08 1.88,-1.9 0.45,-0.82 0.67,-1.74 0.67,-2.78 0,-1.07 -0.22,-2.01 -0.67,-2.83 -0.45,-0.82 -1.08,-1.45 -1.88,-1.9 -0.8,-0.45 -1.75,-0.68 -2.85,-0.68l-7.84 0 0 -5.1 7.21 0c2.47,0 4.62,0.37 6.43,1.1 1.81,0.73 3.21,1.84 4.2,3.33 0.98,1.49 1.48,3.36 1.48,5.61l0 0.67c0,2.28 -0.5,4.15 -1.5,5.61 -1,1.46 -2.4,2.56 -4.2,3.29 -1.8,0.73 -3.94,1.1 -6.41,1.1l-7.21 0z"/>
    <path id="_19_18" class="fil3" d="M286.97 327.78l10.5 -30.79 9.79 0 10.8 30.79 -6.16 0 -9.15 -26.7 2.15 0.93 -5.27 0 2.19 -0.93 -8.86 26.7 -5.99 0zm7.34 -8.18l1.9 -5.06 12.49 0 1.86 5.06 -16.24 0z"/>
    <polygon id="_20_19" class="fil3" points="322.61,327.78 322.61,296.99 332.44,296.99 345.39,322.8 346.78,322.8 345.94,323.56 345.94,296.99 351.59,296.99 351.59,327.78 341.72,327.78 328.77,301.96 327.34,301.96 328.18,301.2 328.18,327.78 "/>
    <polygon id="_21_20" class="fil3" points="357.54,318.5 357.54,313.35 374.62,313.35 374.62,318.5 "/>
    <polygon id="_22_21" class="fil3" points="380.57,327.78 380.57,296.99 388.75,296.99 396.47,315.38 397.23,315.38 404.9,296.99 413.21,296.99 413.21,327.78 407.27,327.78 407.27,301.5 408.03,301.58 399.72,321.49 393.6,321.49 385.25,301.58 386.05,301.5 386.05,327.78 "/>
    <path id="_23_22" class="fil3" d="M435.15 328.58c-2.64,0 -4.97,-0.44 -6.98,-1.33 -2.01,-0.89 -3.7,-2.08 -5.06,-3.59 -1.36,-1.5 -2.39,-3.21 -3.08,-5.1 -0.69,-1.9 -1.03,-3.87 -1.03,-5.93l0 -0.93c0,-1.94 0.34,-3.84 1.01,-5.69 0.68,-1.86 1.67,-3.53 2.97,-5.02 1.31,-1.49 2.92,-2.68 4.85,-3.56 1.93,-0.89 4.14,-1.33 6.64,-1.33 2.7,0 5.09,0.5 7.17,1.5 2.08,1 3.75,2.39 5.02,4.18 1.27,1.79 2.01,3.86 2.23,6.22l-6.03 0c-0.2,-1.32 -0.69,-2.45 -1.48,-3.4 -0.79,-0.94 -1.78,-1.67 -2.97,-2.17 -1.2,-0.51 -2.51,-0.76 -3.94,-0.76 -1.44,0 -2.74,0.25 -3.9,0.76 -1.17,0.51 -2.16,1.22 -2.97,2.15 -0.82,0.93 -1.44,2.04 -1.88,3.33 -0.44,1.29 -0.65,2.73 -0.65,4.3 0,1.72 0.24,3.25 0.72,4.6 0.48,1.35 1.15,2.5 2.02,3.44 0.87,0.94 1.93,1.66 3.16,2.15 1.24,0.49 2.63,0.74 4.18,0.74 2.05,0 3.85,-0.43 5.4,-1.29 1.55,-0.86 2.67,-1.97 3.38,-3.35l-1.06 4.85 0 -7.93 5.53 0 0 6.83c-1.32,2 -3.12,3.55 -5.4,4.66 -2.28,1.11 -4.89,1.67 -7.84,1.67zm-0.97 -11.98l0 -4.47 16.79 0 0 4.47 -16.79 0z"/>
   </g>
  </g>
 </g>
</svg>
